<svg width="1600" height="900" viewBox="0 0 1600 900" fill="none" xmlns="http://www.w3.org/2000/svg">
  <defs>
    <linearGradient id="bg" x1="250" y1="80" x2="1380" y2="840" gradientUnits="userSpaceOnUse">
      <stop stop-color="#0A271E"/>
      <stop offset="0.55" stop-color="#1D5B46"/>
      <stop offset="1" stop-color="#D08A2D"/>
    </linearGradient>
    <radialGradient id="glow" cx="0" cy="0" r="1" gradientUnits="userSpaceOnUse" gradientTransform="translate(1180 180) rotate(90) scale(260 260)">
      <stop stop-color="#FFF0A6"/>
      <stop offset="1" stop-color="#FFF0A6" stop-opacity="0"/>
    </radialGradient>
  </defs>
  <rect width="1600" height="900" fill="url(#bg)"/>
  <rect width="1600" height="900" fill="url(#glow)"/>
  <path d="M0 620C160 566 316 520 480 536C652 553 737 640 913 641C1064 642 1177 588 1312 587C1420 586 1517 605 1600 629V900H0V620Z" fill="#08120F" fill-opacity="0.75"/>
  <path d="M82 598C182 527 236 418 302 336C328 304 365 291 395 320C418 342 422 376 410 407C394 446 352 477 327 520C295 575 277 641 244 702" stroke="#6DD59A" stroke-width="8" stroke-linecap="round" stroke-opacity="0.55"/>
  <path d="M1518 624C1438 553 1391 453 1328 369C1300 331 1262 321 1234 351C1212 376 1210 411 1223 442C1240 483 1282 513 1307 555C1337 607 1353 669 1380 730" stroke="#6DD59A" stroke-width="8" stroke-linecap="round" stroke-opacity="0.55"/>
  <rect x="570" y="260" width="460" height="220" rx="16" fill="#EAB65D" fill-opacity="0.12" stroke="#E9D28E" stroke-opacity="0.35"/>
  <path d="M0 760H1600" stroke="#FFFFFF" stroke-opacity="0.08" stroke-width="2"/>
  <path d="M800 430L768 510H832L800 430Z" fill="#09100F"/>
  <rect x="788" y="500" width="24" height="120" rx="6" fill="#09100F"/>
  <path d="M610 560L760 332" stroke="#FFD36C" stroke-width="9" stroke-linecap="round" stroke-opacity="0.6"/>
  <path d="M990 560L840 332" stroke="#FFD36C" stroke-width="9" stroke-linecap="round" stroke-opacity="0.6"/>
  <circle cx="216" cy="734" r="8" fill="#FFE8AA" fill-opacity="0.72"/>
  <circle cx="276" cy="715" r="6" fill="#FFE8AA" fill-opacity="0.62"/>
  <circle cx="1370" cy="726" r="8" fill="#FFE8AA" fill-opacity="0.72"/>
  <circle cx="1430" cy="708" r="6" fill="#FFE8AA" fill-opacity="0.62"/>
  <text x="112" y="122" fill="#E9F4EC" font-size="30" font-family="Arial, Helvetica, sans-serif" letter-spacing="10">NOCTILUCA</text>
  <text x="110" y="190" fill="#FFFFFF" font-size="110" font-weight="700" font-family="Arial, Helvetica, sans-serif">KAPO</text>
  <text x="112" y="255" fill="#D9C17E" font-size="34" font-family="Arial, Helvetica, sans-serif" letter-spacing="8">FESTIVAL 40 PRINCIPALES</text>
  <text x="112" y="315" fill="#FFFFFF" fill-opacity="0.82" font-size="26" font-family="Arial, Helvetica, sans-serif" letter-spacing="5">AFRO CARIBBEAN VISUAL ENVIRONMENT</text>
</svg>