<svg width="1600" height="900" viewBox="0 0 1600 900" fill="none" xmlns="http://www.w3.org/2000/svg">
  <defs>
    <linearGradient id="bg" x1="180" y1="60" x2="1380" y2="860" gradientUnits="userSpaceOnUse">
      <stop stop-color="#07111F"/>
      <stop offset="0.52" stop-color="#16345A"/>
      <stop offset="1" stop-color="#081019"/>
    </linearGradient>
    <radialGradient id="halo" cx="0" cy="0" r="1" gradientUnits="userSpaceOnUse" gradientTransform="translate(800 280) rotate(90) scale(210 420)">
      <stop stop-color="#E7D8A2" stop-opacity="0.28"/>
      <stop offset="1" stop-color="#E7D8A2" stop-opacity="0"/>
    </radialGradient>
  </defs>
  <rect width="1600" height="900" fill="url(#bg)"/>
  <rect width="1600" height="900" fill="url(#halo)"/>
  <circle cx="295" cy="180" r="2" fill="#FFFFFF" fill-opacity="0.9"/>
  <circle cx="380" cy="116" r="1.8" fill="#FFFFFF" fill-opacity="0.85"/>
  <circle cx="1288" cy="140" r="2" fill="#FFFFFF" fill-opacity="0.88"/>
  <circle cx="1198" cy="96" r="1.5" fill="#FFFFFF" fill-opacity="0.72"/>
  <circle cx="910" cy="142" r="1.6" fill="#FFFFFF" fill-opacity="0.76"/>
  <circle cx="720" cy="108" r="1.4" fill="#FFFFFF" fill-opacity="0.7"/>
  <path d="M0 680C170 622 314 590 472 590C654 590 742 645 911 650C1084 654 1210 600 1364 600C1459 600 1538 616 1600 636V900H0V680Z" fill="#070B12" fill-opacity="0.82"/>
  <ellipse cx="800" cy="620" rx="210" ry="42" fill="#D9BC70" fill-opacity="0.16"/>
  <path d="M660 630C660 575 720 530 800 530C880 530 940 575 940 630" stroke="#D9BC70" stroke-width="4" stroke-opacity="0.55"/>
  <rect x="745" y="472" width="110" height="110" rx="12" fill="#09111D" stroke="#D9BC70" stroke-opacity="0.4"/>
  <path d="M620 662H980" stroke="#D9BC70" stroke-opacity="0.25" stroke-width="3"/>
  <path d="M800 468V624" stroke="#D9BC70" stroke-opacity="0.35" stroke-width="4"/>
  <path d="M702 430L800 332L898 430" stroke="#D9BC70" stroke-opacity="0.45" stroke-width="5"/>
  <path d="M800 332V250" stroke="#D9BC70" stroke-opacity="0.4" stroke-width="4"/>
  <text x="112" y="120" fill="#FFFFFF" font-size="30" font-family="Arial, Helvetica, sans-serif" letter-spacing="10">NOCTILUCA</text>
  <text x="110" y="182" fill="#F4F1E5" font-size="82" font-weight="700" font-family="Arial, Helvetica, sans-serif">MATTEO</text>
  <text x="110" y="262" fill="#D9BC70" font-size="100" font-weight="700" font-family="Arial, Helvetica, sans-serif">BOCELLI</text>
  <text x="112" y="320" fill="#DCE6F8" fill-opacity="0.85" font-size="28" font-family="Arial, Helvetica, sans-serif" letter-spacing="6">VINA 2026 CINEMATIC ELEGANCE</text>
</svg>