<svg width="1600" height="900" viewBox="0 0 1600 900" fill="none" xmlns="http://www.w3.org/2000/svg">
  <defs>
    <linearGradient id="bg" x1="160" y1="120" x2="1450" y2="820" gradientUnits="userSpaceOnUse">
      <stop stop-color="#091322"/>
      <stop offset="0.5" stop-color="#122B58"/>
      <stop offset="1" stop-color="#0F1627"/>
    </linearGradient>
  </defs>
  <rect width="1600" height="900" fill="url(#bg)"/>
  <path d="M0 660L800 430L1600 660V900H0V660Z" fill="#070A12"/>
  <path d="M0 661H1600" stroke="#3BE9FF" stroke-opacity="0.6" stroke-width="4"/>
  <path d="M0 724H1600" stroke="#3BE9FF" stroke-opacity="0.3" stroke-width="2"/>
  <path d="M0 786H1600" stroke="#3BE9FF" stroke-opacity="0.18" stroke-width="2"/>
  <path d="M280 660V900" stroke="#3BE9FF" stroke-opacity="0.18" stroke-width="2"/>
  <path d="M420 616V900" stroke="#3BE9FF" stroke-opacity="0.18" stroke-width="2"/>
  <path d="M580 572V900" stroke="#3BE9FF" stroke-opacity="0.18" stroke-width="2"/>
  <path d="M800 430V900" stroke="#3BE9FF" stroke-opacity="0.18" stroke-width="2"/>
  <path d="M1020 572V900" stroke="#3BE9FF" stroke-opacity="0.18" stroke-width="2"/>
  <path d="M1180 616V900" stroke="#3BE9FF" stroke-opacity="0.18" stroke-width="2"/>
  <path d="M1320 660V900" stroke="#3BE9FF" stroke-opacity="0.18" stroke-width="2"/>
  <rect x="525" y="248" width="550" height="244" rx="16" fill="#0D1836" stroke="#FFE95A" stroke-width="4" stroke-opacity="0.75"/>
  <rect x="560" y="282" width="480" height="175" rx="10" fill="#102050"/>
  <path d="M590 320H1010" stroke="#FF4EA3" stroke-width="5" stroke-dasharray="14 10"/>
  <path d="M590 364H1010" stroke="#3BE9FF" stroke-width="5" stroke-dasharray="14 10"/>
  <path d="M590 408H1010" stroke="#FFE95A" stroke-width="5" stroke-dasharray="14 10"/>
  <path d="M799 455L770 525H830L799 455Z" fill="#090D17"/>
  <rect x="788" y="515" width="22" height="108" rx="6" fill="#090D17"/>
  <path d="M484 532L682 288" stroke="#FF4EA3" stroke-width="10" stroke-linecap="round" stroke-opacity="0.65"/>
  <path d="M1116 532L918 288" stroke="#FF4EA3" stroke-width="10" stroke-linecap="round" stroke-opacity="0.65"/>
  <text x="112" y="120" fill="#FFFFFF" font-size="30" font-family="Arial, Helvetica, sans-serif" letter-spacing="10">NOCTILUCA</text>
  <text x="110" y="186" fill="#FFE95A" font-size="90" font-weight="700" font-family="Arial, Helvetica, sans-serif">MEN AT</text>
  <text x="110" y="270" fill="#3BE9FF" font-size="106" font-weight="700" font-family="Arial, Helvetica, sans-serif">WORK</text>
  <text x="112" y="330" fill="#FFB8D9" font-size="30" font-family="Arial, Helvetica, sans-serif" letter-spacing="7">VINA 2024 RETRO FUTURE BROADCAST VISUALS</text>
</svg>