<?xml version="1.0" encoding="UTF-8"?>
<svg id="Capa_1" xmlns="http://www.w3.org/2000/svg" version="1.1" xmlns:xlink="http://www.w3.org/1999/xlink" viewBox="0 0 31.88 32">
  <!-- Generator: Adobe Illustrator 30.2.1, SVG Export Plug-In . SVG Version: 2.1.1 Build 1)  -->
  <defs>
    <style>
      .st0 {
        fill: url(#Degradado_sin_nombre_328);
      }

      .st1 {
        fill: url(#Degradado_sin_nombre_712);
      }
    </style>
    <linearGradient id="Degradado_sin_nombre_328" data-name="Degradado sin nombre 328" x1="15.94" y1="-4.48" x2="15.94" y2="35.59" gradientUnits="userSpaceOnUse">
      <stop offset="0" stop-color="#41d1ff"/>
      <stop offset="1" stop-color="#0c2f3a"/>
    </linearGradient>
    <linearGradient id="Degradado_sin_nombre_712" data-name="Degradado sin nombre 712" x1="15.94" y1="-7.21" x2="15.94" y2="28.57" gradientUnits="userSpaceOnUse">
      <stop offset=".24" stop-color="#fff"/>
      <stop offset=".45" stop-color="#35acd2"/>
      <stop offset=".86" stop-color="#2b8eae"/>
    </linearGradient>
  </defs>
  <path class="st0" d="M15.94.25C7.24.25.19,7.3.19,16s7.05,15.75,15.75,15.75,15.75-7.05,15.75-15.75S24.64.25,15.94.25ZM15.94,24.82c-4.87,0-8.82-3.95-8.82-8.82s3.95-8.82,8.82-8.82,8.82,3.95,8.82,8.82-3.95,8.82-8.82,8.82Z"/>
  <path class="st1" d="M15.94,2.59c-7.4,0-13.41,6-13.41,13.41s6,13.41,13.41,13.41,13.41-6,13.41-13.41S23.34,2.59,15.94,2.59ZM15.94,23.66c-4.23,0-7.66-3.43-7.66-7.66s3.43-7.66,7.66-7.66,7.66,3.43,7.66,7.66-3.43,7.66-7.66,7.66Z"/>
</svg>