<?xml version="1.0" encoding="UTF-8"?>
<svg id="Capa_1" data-name="Capa 1" xmlns="http://www.w3.org/2000/svg" viewBox="0 0 640.49 636.59">
  <defs>
    <style>
      .cls-1 {
        fill: #fff;
      }
    </style>
  </defs>
  <path class="cls-1" d="M192.37,270.91c-3.36,7.92-8.14,19.88-9.75,27.86-2.76,13.75-4.15,27.48-5.76,41.42-.23,1.99-1.14,5.77-2.55,6.2-1.91.58-3.91-4.9-3.96-6.7-.23-8.91.15-14.25,1.63-22.93l4.63-27.26,1.53-9.21c.13-.77-.49-3.11-1.35-2.54-3.93,3.26-7.54,6.49-11.01,10.04l-8.18,8.36c-2.51,2.56-6.52,3.52-9.45,1.11-1.81-1.48-1.63-4.07-1.06-6.13l1.56-5.58,2.25-7.09c.73-2.31,2.33-7.19.46-9.05-1.26-1.25-7.03,5.47-8.45,6.96l-10.14,10.56-7.38,7.83-9.48,9.84c-4.14,4.3-15.32,14-21.25,9.73-1.43-1.03-2.6-2.93-2.83-5.03l-.91-8.2c-.05-.49-.63-1.47-1-1.47-.45,0-1.13.56-1.56,1-4.28,4.41-8.29,8.73-12.88,12.83-7.37,6.59-15.16,12.27-23.63,17.3-4.91,2.92-9.84,5.07-15.43,6.07-4.74.85-11.98-.2-15.54-3.69-4.11-4.03-5.13-12.12-3.89-17.55.34-1.48.38-3.91.97-5.23,2.93-6.47,5.9-12.63,9.65-18.63-.43.69,6.89-8.98,6.96-9.07,6.29-7.71,13.22-14.41,20.73-20.97,20.87-18.21,42.94-31.8,68-43.69,9.34-4.43,18.4-8.67,27.98-12.55,2.59-1.05,5.27-1.84,8.04-1.96.61-.03,1.57,1.31,1.36,1.81s-.82,1.75-1.34,1.97l-17.59,7.65c-9.46,4.11-17.99,8.99-26.64,14.61s-16.53,11.84-24.49,18.53c-7.74,6.51-14.68,13.26-21.44,20.78l-14.96,16.66-10.69,12.43c-2.94,3.42-13.55,18.43-6.8,21.35,3.23,1.4,7.07.4,10.21-.97,7.11-3.08,13.41-7.03,19.27-12.02,3.39-2.89,6.74-5.51,9.95-8.57,5.49-5.22,10.56-10.37,15.79-15.88l22.09-23.3,4.31-4.75c7.2-7.92,13.44-16.54,19.5-25.42l2.76-4.06c2.49-3.65,6.4-11.6,10.24-10.1.7.27.73,2.27.3,2.97l-5.97,9.68-9.54,15.37c-9.08,14.62-17.68,29.26-24.91,44.85-.92,1.98-1.12,4.13.2,5.84,3.48-1.34,6.07-3.65,8.62-6.13l11.14-10.83,25.24-24.86c2.3-2.27,5.21-4.2,8.47-4.11,2.42,2.03.76,9.21-.07,12.1l-2.44,8.49-1.65,6.32c-.44,1.7-.67,3.85.9,5.22,2.64-.95,4.83-2.87,6.7-4.82l2.05-2.15,8.24-8.58,8.08-8.84,6.54-7.39c1.51-1.7,4.57-3.76,6.92-2.65,2.58,1.22,3.05,5.92,1.61,8.12-2.41,3.68-4.23,7.08-5.91,11.05l-2.98,7.03Z"/>
  <path class="cls-1" d="M247.53,319.55c5.8,1.36,17.14-2.81,18.88,1.48.82,2.01-1.59,3.76-3.29,4.27-9.33,2.78-19.58,2.72-28.88-.24-3.76-1.19-5.91-4.29-7.5-7.77-1.99-4.36-4.36-8.47-5.63-13.16-.78-2.89-1.28-5.74-2.65-8.48-3.73.9-5.91,3.31-8.52,5.55l-5.46,4.71c-3.11,2.68-6.61,3.88-10.68,2.12-1.35-.58-4.05-1.57-4.25-3.49-1.25-12.04.9-18.97,6.07-29.47,4.6-9.35,11.3-17.32,20.36-22.57,2.67-1.55,10.14-5.09,11.27-.47.53,2.16,1.05,5.17-.38,7.29-1.53,2.28-3.85,5.12-5.53,7.16-.27.33-1.86.4-2.03.02-.9-1.94.57-2.03-.39-4.55-.18-.47-1.73-.05-2.14.28-7.2,5.7-13.04,13.16-16.23,21.88-1.24,3.39-3.66,9.47-.09,11.52,5.21.04,10.17-3.31,13.15-7.59,6.24-8.97,6.15-15.32,16.62-22.4.32-.22,1.38-.13,1.54.13,1.21,1.96-.84,7.69-1.68,10.1-3.83,11.01-3.73,25.19,3.82,34.73,3.49,4.41,7.92,7.6,13.63,8.94Z"/>
  <path class="cls-1" d="M366.36,443.4c-.04.76-1.68,2.07-2.4,1.89-.81-.21-.77-2.2-.18-2.62s2.63-.35,2.58.73Z"/>
  <g>
    <path class="cls-1" d="M441.58,314.05c-2.95-2.07-2.68-5.66-2.4-8.58.75-7.67,3.23-12.72,7.22-19.07,2.81-4.47,6.39-8.62,10.48-11.68.44-.33,1.08-1.23,1.19-1.65.13-.49-.36-1.47-.76-1.95-2.91-3.54-2.57-8.61,1.17-11.38.35-.26,1.23-.55,1.63-.53.47.02,1.15,1.09,1.15,1.58v4.27c.01.48.65,1.46,1.02,1.74.43.32,1.67.08,2.12-.26l3.8-2.85c1.62-1.21,3.52.07,4.45,1.3,1.81,2.37,1.98,4.73,1.24,7.67-.24.95.31,3.63,1.7,3.28,2.44-.6,4.5-2.94,5.75-5.07l4.69-8.03c1.12-1.91,4.09-3.57,6.13-2.51.99,1.65,1.14,5,.43,6.87-1.7,4.43-4,8.23-6.09,12.41-2.32,4.64-5.63,12.83-1.06,16.94,1.44-.27,3.66-1.56,4.31-3.04,3.88-8.88,1.09-16.54,9.72-26.54,1.8-2.08,3.57-4.35,6.06-5.67,3.71-1.96,8.65-1.53,11.89,1.08,5.06,4.07,1,17.4-4.93,23.1l-9.67,9.29c-1.43,1.37-2.59,2.92-3.86,4.64-.63.85.08,3.36,1.02,4.09.7.55,2.5.2,3.29-.28,7.39-4.49,16.04-13.32,18.04-21.95,1.36-5.86,2.6-11.37,4.39-17.14,6.52-20.97,12.25-39.41,24.26-57.92,4.62-7.12,10.13-12.45,17.45-16.75,1.98-1.16,6.12-2.08,7.08.97,1.04,3.32.23,7.85-.67,11.38-6.22,24.4-2.81,14.95-12.93,37.77-4.9,11.06-11.96,20.69-19.26,30.24l-2.43,3.18c-2.52,3.29-5.11,6.34-7.95,9.37-4.28,4.55-5.55,6.23-7.99,12.59-2.85,7.44-3.13,15.21-3.88,23.15l-1.08,11.44-.35,6.6c-.18,3.45-.37,6.78-.15,10.33l2.12,34.01c.09,1.39.12,4.7-2.15,4-3.29-1.01-5.42-4.99-6.31-8.22-1.93-6.99-1.3-28.08-.89-36.21l.3-5.94.4-6.69c.36-5.97.37-11.49,2.45-17.18.45-1.25.32-3.16-.03-4.57-2.41-.79-4.92,3.29-9.71,5.36-3.97,1.71-8.88,1.7-12.41-.87-1.7-1.23-2.84-3.54-4.17-5.18-2.06-1.57-5.75,2.25-8.94-1.26-2.41-2.65-3.69-6.64-3.09-10.28l1.23-7.46c.11-.69-1.13-2.29-1.71-1.99l-2.66,1.4c-.77.41-2.1.78-3.03.64-.79-.12-1.86-1.33-2.11-2.36l-1.47-6.09c-.1-.42-1.29-1.02-1.59-.77-2.05,1.73-.54,4.18-1.35,7.8-2.46,11.05-7.84,20.94-16.17,28.43-1.18,1.06-3.72,1.84-4.97.97ZM537.71,254.47c.03.47,1.03,1.47,1.43,1.38,1.23-.27,3.19-2.86,3.73-3.76,7.17-11.98,13.61-24.1,19.66-36.66,1.05-2.19,1.21-4.71.13-6.88-3.52,1.36-5.53,4.39-7.76,7.18-6.86,8.6-11.31,19.22-15.21,29.52-1.11,2.94-2.2,5.88-1.97,9.21ZM510.33,269.89c-6.85.88-11.59,14.12-8.72,14.93.41.12,1.52-.11,1.8-.44,2.66-3.09,8.82-10.33,6.92-14.5ZM449.79,298.99c3.09-1.66,4.62-5.7,4.09-8.83-1.34-.72-2.69.35-3.74,1.28-2.14,1.89-3.07,6.15-.35,7.55Z"/>
    <path class="cls-1" d="M351.94,270.29c1.88-1.86,9.63-9.3,8.37-11.61-.2-.37-1.28-.36-1.67-.16l-12.65,6.72c-4.06,2.16-8.77,3.01-13.23,1.67-.83-.41-.65-2.86-.13-3.6l2.23-3.22c11.66-8.75,26.68-15.99,41.47-14.85,3.31,5.21-2.18,11.52-5.47,15.86-7.53,9.92-15.95,18.72-25.38,26.82l-4.78,4.11c-3.01,2.59-5.97,4.9-9.19,7.3-13.04,9.73-24.88,21.5-41.83,22.22-4.11.17-8.23-.39-11.3-3.19-2.58-2.35-4.41-6.25-4.21-9.91.29-5.26,1.59-10.32,3.82-15.14,7.95-17.15,13.99-27.46,26.58-41.6l3-3.36,3.18-3.56c4.06-4.56,8.36-8.66,12.81-12.86,3.33-3.14,6.66-5.82,10.2-8.8,11.2-9.43,23.21-17.37,36.27-24,3.44-1.75,6.83-3.27,10.65-3.59,4.12-.34,8.42.92,10.98,4.14,7.28,9.14-2.64,29.82-13.54,29.11-1.13-.43-.83-3.14-.34-4.16l4.18-8.56c1.21-2.47.36-8.49-1.96-7.9-11.4,2.91-19.33,10.2-28.32,17.27-6.74,5.3-12.86,10.83-18.59,17.22l-14.58,16.26-2.99,3.72-3.72,4.72-4.2,5.97-5.69,8.61c-4.32,6.54-11.23,17.41-11.46,25.27-.06,1.99.54,5.53,2.72,6.03,4.26.98,15.32-7.38,18.93-10.15l16.7-12.85c6.87-5.28,13.57-10.47,19.69-16.52l3.46-3.43Z"/>
    <path class="cls-1" d="M356.03,303.45c-.8-15.2,14.3-32.43,25.11-41.35,2.98-2.46,8.56-4.81,11.64-2.08,1.35,1.2,2.15,3.14,1.91,5.02-.27,2.15-2.26,6.84-4.47,6.37-.56-.12-.95-1.29-1.14-2.02l-.42-1.56c-.65-2.41-7.29,4.21-7.88,4.76-4.71,4.37-8.73,9.32-11.18,15.34-.63,1.55-2,6.27-.13,7.15,2.71,1.27,7.75-4.2,9.53-5.99l7.22-7.23,5.15-5.46c1.08-1.14,1.85-4.23,4.32-4.15.43.01.76,1.18.62,1.72l-3.64,13.47c-.55,2.04-.06,5.59,1.5,6.6,2.46.14,3.73-2.36,4.86-3.92,2.47-3.44,4.33-6.84,5.61-10.84l3.4-10.64c3.49-10.92,6.77-21.63,11.04-32.31,1.61-4.03,2.8-8.05,5.22-11.64,1.57-2.33,3.03-4.53,4.46-6.96,3.02-5.13,12.31-18.4,19.38-15.03,2.32,4.43,2.37,9.71,1.19,14.59-2.47,10.26-6.66,19.53-11.46,28.89-1.9,3.71-4.21,7.34-7.21,10.13-.3.28-.57,1.29-.63,1.68-.07.46.76,1.5,1.24,1.36,5.14-1.52,14.14-10.99,19.19-3.34,1.78,2.69,2.06,5.77,2.02,9.02-.1,7.84-3.38,14.62-7.9,20.86-2.85,3.94-5.23,7.97-9.23,11.02-5,3.81-10.53,7.02-16.23,9.72-7.55,3.56-12.5-2.74-14.37-2.22-.51.14-1.42.98-1.59,1.5l-2.18,6.59c-.18.55-1.82,1.22-2.29.93-3.6-2.2,2.5-12.69.62-14.05s-8.29,6.99-12.46,5c-.75-.36-1.74-1.74-1.77-2.66l-.24-6.98c-2.05.47-3.22,1.21-4.44,2.41-3.44,3.37-6.5,6.91-10.22,9.92-2.81,2.28-6.85,3.67-10.33,2.81-2.44-.6-3.66-3.81-3.79-6.43ZM424.56,256.29l7.08-12.89c3.66-6.66,6.08-13.69,8.75-20.8.85-2.27,1.49-4.79.91-7.13-1.67-2.3-5.78,7.54-6.37,8.84-2.68,5.93-5.52,11.38-8.66,17.1-1.92,3.51-7.88,15.89-5.98,18.75.22.33,1.12.56,1.51.37,1.39-.69,1.95-2.76,2.76-4.24ZM420.23,298.64l7.99-4.82c1.25-.75,2.76-2.12,3.72-3.22,5.65-6.47,11.38-13.28,10.75-22.24-.35-4.95-7.97-1.25-10.38.29-8.37,5.34-15.32,12.39-21.32,20.27-1.84,2.42-3.72,4.82-4.49,7.66s1.26,4.94,3.74,5.1c3.8.26,6.88-1.16,10-3.04Z"/>
    <path class="cls-1" d="M411.54,411.88c.83-2.14,2.58-11.86,6.4-8.15l-1.78,4.49c-.09.22,0,1.37.21,1.31.28-.08.97-.44,1.16-.72l4.38-6.55c3.59-5.37,5.12,4.68,9.5,2.96.78-.31,1.14-1.55,1.34-2.8.18-1.13,2.85-1.93,3.76-.86.83.96,1.74,2.51,2.38,3.57l-.74,1.02c-.18.24.21,1.1.58,1.1,3.86-.04,8.56-2.09,12.13-4.61.94,1.12-.64,2.14-1.53,2.69-3.64,2.23-7.71,3.72-12.01,3.49-1.01,3.13-4.05,7.65-7.3,7.02-.61-.12-1.57-1.12-1.82-1.74-.93-2.33.34-4.53,1.68-6.68-4.09-1.42-6.22-5.49-7.35-2.95-1.01,2.26-2.39,3.68-3.81,5.56l-4.54,5.98c-.25.33-1.18.74-1.49.57-1.55-.85-1.35-2.54-2.05-2.53l-1.82.03c-3.57.05-5.91-2.76-7.08-6.3-3.76,2.57-1.9,2.57-5.83,6.57-6.9,7.02-4.89,1.42-10.59,4.97-2.84,1.77-6.14,3.13-9.57,1.85-1.23-.46-1.97-2.36-3.06-3.86l-12.16,11.66c-5.69,5.45-11.68,10.09-18.52,13.93-7.4,4.15-15.24,5.99-23.67,5.14s-15.2-5.1-18.6-12.59c-2.27-5-2.76-10.24-2.46-15.76.46-8.57,3.33-16.42,7.11-24.03,7.36-14.81,18.7-27.48,33.28-35.38,8.1-4.39,19.96-7,28.76-2.95,4.87,2.25,7.28,7.15,6,12.25s-4.87,11.66-8.14,16.05c-1.95,2.61-4,5.41-7.15,4.4-.41-.13-.36-1.23-.06-1.54,1.59-1.64,2.89-3.37,4.15-5.21,3.42-4.97,6.37-10.22,7.24-16.2.76-5.28-2.75-9.17-7.85-9.53-2.55-.18-5.09-.31-7.69.26-15.73,3.43-27.91,15.24-36.95,27.98-8.43,11.88-16.45,29.89-14.15,44.64.72,4.64,2.88,9.08,6.54,11.86,8.39,6.36,21.39,4.22,29.9-.53,6.55-3.66,12.45-7.7,18.11-12.65l15.88-13.9c.28-3.65,1.34-6.81,2.81-10.02,3.42-7.46,7.23-14.51,12.54-20.71,1.66-1.94,3.49-3.47,5.95-4.12.84-.23,1.95,1.17,1.83,2-.25,1.88-.8,3.47-1.85,4.98-1.81,2.61-3.59,5.13-5.53,7.62l-3.14,4.04c-2.58,3.32-9.83,9.36-8.07,12.07l4.37-4.18c.57.62.41,1.65-.08,2.13l-3.03,2.96c-1.27,1.24-2.81,2.11-2.86,3.8-.04,1.45.47,4.02,2.13,4.25,3.71.53,6.88-1.75,9.68-3.63-.6-5.63,5.25-10.95,10.3-12.08,1.88-.42,4.01-.1,6.07-.06l1.99,5.29c.41,1.1,1.33,2.39,2.18,2.76,1.05.46,3.36.4,4.03-.39ZM383.2,398.62l5.06-6.81c1.65-2.22,3.59-5.56,4.97-7.83.2-.33-.02-1.31-.19-1.55s-.95.19-1.15.42l-6.87,9.91-4.31,6.45c-.37.55-.42,1.44-.18,2.16,1.18-1.14,2.01-1.85,2.67-2.75ZM391.82,415.82l3.11-2.93c1.15-1.08,1.93-2,2.58-3.52l2.47-3.44c-2.75-1.28-8.33,4.59-8.24,5.6.88-.01,1.51-.23,1.54.06s-.08,1.26-.3,1.44l-2.32,1.87c-.18.14-.65.67-.53.85s.37.44.55.55.93-.27,1.14-.47ZM434.52,407.01c-.42.02-1.4.46-1.6.88l-2.24,4.84c-.14.31-.04,1.12.21,1.29,1.98,1.3,6.85-7.15,3.63-7Z"/>
    <path class="cls-1" d="M549.92,422.53c-.3.11-1.07,0-1.31-.09-3.07-1.23,12.45-5.16,13.28-5.33.98-.2,1.77-.6,2.41-1.33-4.9.28-8.98,1.72-13.71,2.58-15.18,2.77-29.72,6.94-43.92,12.99l-13.91,5.92c-1.35.58-2.96.24-3.85-1.33,9.33-4.88,18.24-8.42,28.22-11.86l.57-4.12c1.83-13.16,10.27-32.31,17.37-43.69,7.34-11.78,16.75-24.68,27.59-33.49,3.07-2.49,6.26-4.84,9.82-6.55,2.85-1.37,8.96-3.19,11.41-1.37.25.19-.14,1.26-.55,1.29-3.74.3-8.46,1.85-11.72,4.11-5.91,4.1-10.75,8.82-15.41,14.17-9.5,10.9-16.13,21.06-22.49,34.1-4.95,10.15-9.34,20.18-13.59,30.62-.51,1.25-.67,2.66-.59,4.11,9.13-2.96,17.81-5.01,27.01-7.2,8.89-2.12,17.68-3.79,26.82-4.67l14.38-1.39c2-.19,4.21.24,5.82,1.38.01.66-1,1.67-1.74,1.81l-26.64,4.92c-5.3.98-10.06,2.42-15.28,4.41Z"/>
    <path class="cls-1" d="M560.8,399.64c-.45-1.84-6.11,7.86-9.65,5.81-3.22-1.87,2.48-12.88,3.94-13.61.88-.44,2.16-.51,3.23.28l-5.11,9.77c-.15.29-.1,1.42.14,1.36s.9-.27,1.1-.49l3.55-3.91c1.58-1.74,2.83-3.25,4.14-5.28.38-.59,1.67-1.02,2.38-.62,2.19,1.21-1.88,5.73.05,9.17,6.32-1.12,3.39-3.27,7.75-10.96.5-.88,2.64-1.81,3.33-1.09,1.83,1.92-3.22,4.67-1.59,6.35l4.82-4.54c.81-.76,2.04-1.3,3.15-1.3s2.11.96,2.68,2.2l1.96,4.27c.2.43,1.38.97,1.72.73,1.6-1.09-.85-2.19,4.07-7.43,2.89-3.07,6.45-4.54,10.64-4.18.91.08,2.68-.56,3.12.61.95,2.55,1.28,5.47,3.43,7.3,1.25,1.06,3.96.18,5.33-.49,6.55-3.2,6.18-5.85,8.88-5.36.64,2.28-1.42,3.02-2.91,3.97-3.1,1.96-6.13,4.19-9.96,4.11-6.66-.14-6.25-8.6-8.23-5.46-1.1,1.75-2.13,3.05-3.52,4.61-7.15,7.98-6.56,4.1-11.54,4.14-3.76.03-5.33-3.17-6.78-6.74-1.63,1.27-2.94,2.64-4.21,4.02l-2.25,2.45c-2.54,2.77-1.67,1.04-6.83,4-1.22.7-2.76.93-4.09.41-1.06-.42-2.14-1.63-2.44-2.85l-.3-1.24ZM600.27,391c.64-.39,1.57-2.19,1.88-2.81-1.21-1.9-9.58,5.25-8.12,6.61l6.23-3.81Z"/>
    <path class="cls-1" d="M509.51,399.25c.88,1.78-.73,2.23-1.64,3.01l-2.96,2.54c-4.45,3.81-14.19,10.98-18.4,3.06-1.74.27-3.78.83-5.3.4-2.86-.81-4.38-3.81-4.44-6.56l-.09-4.24c-4.32,3.96-10.27,18.81-15.71,16.48-3.81-1.64-.62-8.68,2.51-11.72,2.23-2.17,4.9-2.38,7.9-1.19l4.38-5.6c2.01-2.56,3.25-5.23,4.4-8.33,2.51-6.78,5.92-13,10.06-18.93.63-.91,2.53-2.04,3.5-2.19,1.24-.19,1.49,2,1.14,2.96-3.34,9.29-8.89,13.89-11.67,19.14-1.96,3.71-5.25,14.8-1.82,18.61,1.04.46,3.72.03,4.33-.68.25-.29.05-1.08.11-1.57.19-4.79,7.52-11.73,11.25-9.44.62.38,1.56,1.93,1.18,2.63-.85,1.57-2.39,2.82-3.73,3.95l-5.08,4.28c-1.29,1.09.31,3.45,1.8,3.73,1.3.25,2.76.27,3.92-.3,4.11-2,7.39-4.77,11-7.49l3.35-2.53ZM486.5,378.78c1.87.62,5.26-6.59,5.84-8.21-.77-1.74-5.97,7.73-5.84,8.21ZM491.33,401.78l4.29-3.56c.27-.22.65-1.19.53-1.47s-.56-.57-.87-.53c-.23.02-.94.33-1.12.51l-3.88,3.8c-.2.19-.32.96-.37,1.21s1.17.24,1.42.04ZM469.14,404.74c.58-.68.75-1.96.08-2.41-2.75-1.86-7.98,7.5-6.44,9.72,3.19-2.51,3.64-4.11,6.36-7.31Z"/>
    <path class="cls-1" d="M498.36,249.97c.39,3.39-.86,5.84-3.52,7.11-2.24,1.07-5.35.65-7.31-1.6-1.71-1.96-1.18-5.25.48-7.25s4.5-2.99,7.31-1.97c1.44.53,2.84,2.03,3.04,3.71Z"/>
  </g>
</svg>