<?xml version="1.0" encoding="UTF-8"?>
<svg id="Capa_2" data-name="Capa 2" xmlns="http://www.w3.org/2000/svg" viewBox="0 0 615.52 139.09">
  <defs>
    <style>
      .cls-1 {
        fill: #fff;
      }
    </style>
  </defs>
  <g id="Capa_1-2" data-name="Capa 1">
    <g>
      <path class="cls-1" d="M436.23,137.67c-4.83,1.53-9.11.75-14.17.35l-35.13-92.67-.35,79.01c-.02,5.2,1.49,9.31,4.33,13.94l-45.9.03c2.03-3.79,2.39-7.11,1.59-10.94l-7.53-36.28-25.54.12-8.02,39.87c-.52,2.6.74,4.54,1.88,7.1-6.11.38-11.21.34-17.61.01,2.3-3.8,4.37-6.79,5.29-11.38l23.01-114.63c.81-4.02.13-6.99-1.71-10.93l23.1-.11,25.5,123.34c1.04,5.05,2.49,9.28,6.71,12.8,3.02-4.02,3.98-8.14,3.98-12.96l-.02-110.23c0-4.9-1.56-8.67-4.27-12.77,5.82-.54,10.43-.3,16.33-.17l37.33,98.36.23-85.47c.01-4.81-1.59-8.63-4.28-12.77,6.94-.39,12.55-.39,19.5,0-2.75,4.17-4.28,7.87-4.28,12.82v123.55ZM337.19,80.81l-10.91-51.65-10.74,51.8c7.56.19,14.03.49,21.65-.15Z"/>
      <path class="cls-1" d="M157.05,138.17l-26.49.07c2.5-4.45,4.06-8.27,4.06-13.03l-.03-59.39-31.3-.03-.08,58.64c0,5.24,1.64,9.35,4.04,13.88l-26.42-.11c2.57-4.65,4.01-8.07,4.01-12.83l.03-110.19c0-5.19-1.23-9.04-4.1-13.91l26.51-.11c-2.71,4.83-4.13,9.38-4.11,14.95l.16,39.49,31.19-.04.12-40.41c.02-5.04-1.4-9.22-4.09-13.86l26.54-.09c-3.11,5.08-4.23,9.93-4.23,16.05l.06,107.09c0,5.06,1.34,8.94,4.12,13.83Z"/>
      <path class="cls-1" d="M512.85,137.75c-4.52,1.38-8.66.51-14.09.52l-35.19-93.15-.41,79.25c-.03,5.28,1.72,9.39,4.13,13.88-7.13.18-12.81.41-19.21-.15,3.12-4.79,4.23-9.26,4.23-14.87l-.05-109.16c0-5.07-1.81-8.68-4.03-12.81,5.9-.33,10.68-.51,16.21.15l36.99,97.45.49-84.83c.03-4.76-1.77-8.62-4.18-12.71,6.54-.48,12.61-.46,19.21-.02-2.59,4.18-4.12,7.85-4.12,12.77v123.65Z"/>
      <path class="cls-1" d="M214.8,91.34l-25.75-.22-8.07,39.99c-.52,2.57.8,4.46,1.84,7.1-6.12.36-11.21.35-17.62,0,2.61-3.94,4.54-7.2,5.51-12.03l22.99-114.74c.73-3.66-.14-6.38-1.89-10.15l23.17-.15,25.85,125.03c1.02,4.93,3.25,7.99,6.66,12.03l-27.04.05c2-3.45,2.45-6.57,1.74-10.11l-7.38-36.8ZM212.64,80.43l-10.91-50.79-10.74,51.45c7.62-.35,14.45.92,21.65-.66Z"/>
      <path class="cls-1" d="M576.47,58.43c-8.75-6.18-17.37-3.97-29.09-4.25l-.1,72.4,24.99.15c5.03.03,9.36-1.38,13.47-4.21-.55,5.55-1.45,10.37-2.82,15.86h-58c2.72-4.94,4.06-9.33,4.06-15.1l-.02-108.16c0-5.42-1.71-9.37-4.05-14.03l57.99.03c1.4,5.47,2.25,10.3,2.83,15.85-4.12-2.82-8.43-4.11-13.46-4.12h-24.81s-.15,29.31-.15,29.31c10.26.33,20.68,1.91,29.15-3.95l.03,20.23Z"/>
      <path class="cls-1" d="M299.73,12.28l-20.18,60.58v52.63c0,4.83,1.81,8.62,3.99,12.82l-26.47-.03c2.56-4.48,4.12-8.69,4.13-13.89l.02-51.71-22.69-59.52c-1.77-4.63-4.16-8-7.74-11.84l25.93-.07c-2.3,3.47-2.16,6.76-.8,10.31l17.17,44.85,16.09-46.69c1.01-2.93.88-5.48-.96-8.37,6.33-.48,11.65-.47,18.24,0-2.67,3.65-5.22,6.42-6.72,10.94Z"/>
      <path class="cls-1" d="M58.56,124.28c5.57-4.25,8.09-10.2,10.62-16.95,2.11,6.71,2.8,13.16,4.35,20.76-14.12,12.95-36.98,15.03-52.92,3.22C-2.87,113.91-2.04,66.59,2.64,40.98,6.77,18.35,21.15-1.01,46.45.04c8.78.36,16.56,2.84,23.21,9.23-2.89,5.23-5.28,10.63-9.07,15.49-2.32-7.15-6.44-12.71-12.56-14.14-6.62-1.54-13.33.88-17.71,6.45-13.84,17.61-12.43,58.7-9.63,80.18.95,7.25,3.01,13.78,6.24,20.1,6.07,11.85,20.6,15.34,31.62,6.93Z"/>
      <path class="cls-1" d="M601.29,1.03v2.14h-3.56v10.78h-2.21V3.17h-3.56V1.03h9.33ZM613.31,13.95l-.41-7.6c-.04-1-.04-2.23-.08-3.61h-.12c-.29,1.14-.61,2.66-.94,3.85l-2.01,7.17h-2.29l-2.01-7.36c-.2-1-.53-2.52-.78-3.66h-.12c0,1.19-.04,2.42-.08,3.61l-.41,7.6h-2.13l.82-12.92h3.31l1.93,6.32c.24,1,.45,1.95.74,3.28h.04c.29-1.19.53-2.28.78-3.23l1.93-6.36h3.19l.86,12.92h-2.21Z"/>
    </g>
  </g>
</svg>