<?xml version="1.0" encoding="UTF-8"?>
<svg id="Capa_1" data-name="Capa 1" xmlns="http://www.w3.org/2000/svg" viewBox="0 0 640.49 636.59">
  <defs>
    <style>
      .cls-1 {
        fill: #fff;
      }
    </style>
  </defs>
  <path class="cls-1" d="M237.5,173.49l13.74,15.96-.04,70.06-30.4,18.31,30.43,21.24-.02,78.72-35.41,29.4-.29-82.88c-.01-2.98-1.61-6.26-3.81-7.93l-23.02-17.58.47,79.15c.06,9.81,1.89,18.63.07,29.13-12.4-11.34-22.74-21.45-33.46-32.33l.02-184.15,13.57-17.1h68.14ZM190.44,259.18l26.29-18.57-.38-26.79-27.45,1.04c.04,8.56-.08,16.12.39,24.21l1.15,20.1Z"/>
  <path class="cls-1" d="M119.47,173.49l20.71,16.27-.32,32.74-31.18.85-.81-9.49-23.72-.65c-3.71.32-4.95,7.72-4.97,11.26l-.37,60.71-.26,82.03,29.48-26.52.92-13.52,30.8-.06-.65,46.63-88.7,83.04.13-72.77.44-22.69.13-177.58c-2.32-3.52-4.75-7.09-5.87-10.23h74.23Z"/>
  <polygon class="cls-1" points="398.12 173.49 415.03 191.88 414.94 218.55 379.79 218.5 379.51 208.54 351.74 208.57 351.73 245.41 415.09 282.57 414.98 344.61 376.38 375.69 319.17 330.62 319.25 301.38 351.53 301.36 351.61 317.94 379.27 340.2 379.55 295.86 319.21 259.7 319.1 185.71 328.76 173.49 398.12 173.49"/>
  <polygon class="cls-1" points="539.2 463.1 538.11 463.1 493.84 423.16 493.57 406.63 521.31 381.47 523.78 394.74 556.04 416.35 556.15 222.3 591.47 222.43 591.51 416.83 539.2 463.1"/>
  <polygon class="cls-1" points="300.78 173.49 300.93 333.58 267.9 359.93 267.92 173.49 300.78 173.49"/>
  <polygon class="cls-1" points="595.25 173.49 591.84 180.26 591.21 208.15 556.3 208.21 555.79 180.01 552.66 173.49 595.25 173.49"/>
  <path class="cls-1" d="M509.72,264.22c-.08-5-.83-9.59-1.93-14.59l-24.87,103.54-24.35-77.18c-1.34,21.4-.6,40.52-.35,61.48l.51,43.35c.02,1.37,2.79,4.82,3.15,5.88l-32.64,27.95-.16-232.38c0-1.59-3.05-4.94-4.01-6.38l36.35-.02,22.3,54.92,22.08-54.99,33.55.22v151.88s4.01,7.68,4.01,7.68l-31.27,26.16-1.48-42.73-.91-54.77Z"/>
</svg>