<?xml version="1.0" encoding="UTF-8"?>
<svg id="Capa_1" data-name="Capa 1" xmlns="http://www.w3.org/2000/svg" viewBox="0 0 640.49 636.59">
  <defs>
    <style>
      .cls-1 {
        fill: #fff;
      }
    </style>
  </defs>
  <path class="cls-1" d="M142.24,431.01l-12.42.3c-6.02.14-9.96-4.01-9.95-9.84l.21-91.81-36.99-.17c-4.33-.02-8.55,3.97-8.54,8.23.03,18.23-.31,35.42.72,53.24.6,10.36,1.1,20.99.24,31.06-.7,8.2-8.28,9.49-15.4,9.51-5.4.02-15.28-1.34-15.26-9.3l.5-161.47,1.14-56.76c2.3-3,26.19-3.19,27.73,1.08l.22,76.1c0,1.3.83,4.41,1.87,4.89,3.59,1.66,36.1,3.48,43.71,1.1l.21-83.12c2.03-3.05,26.79-3.36,28,1.2l.8,178.42.95,37.78c.1,3.97-3.36,9.45-7.74,9.55Z"/>
  <path class="cls-1" d="M525.87,332.02l.46,53.83,60.82.22c3.9.01,8.52,4.13,8.49,8.24l-.26,31.45c-.02,2.95-6.95,5.52-9.75,5.51l-79.56-.1c-13.19-.02-7.35-25.53-7.37-35.36l-.38-137.86-1.02-47.59c-.1-4.82,3.75-9.64,9.08-9.65l74.98-.18c6.53-.02,11.38,4.76,11.4,11.25l.09,24.31c.02,4.49-3.5,9.75-8.63,9.76l-53.69.08c-1.75,1.9-4.34,6.47-4.35,8.67l-.25,35.14,51.35-.12c4.12,0,9.84,1.94,9.74,7.16l-.68,34.98-60.47.24Z"/>
  <g>
    <path class="cls-1" d="M357.76,335.05c.18-22.51,1.13-43.14,0-65.65-5.72,25.22-6.65,50.46-9.95,76.3l-10.69,83.69-21.62.85c-3.28.13-6.9-3.44-7.34-7.13l-9.22-76.79-7.36-64.98c-.51-4.51-1.43-8.78-2.23-12.98-1.57,18.54-.77,35.45-.7,53.97l.38,101.18c0,1.96-1.94,6.36-3.36,6.36l-19.42-.03c-3.22,0-4.43-5.56-4.43-8.65l.25-214.71c0-1.95,3.79-4.57,5.39-4.56l27.02.08c4.7.01,7.75,1.87,8.52,7.77l18.79,144.01c.08.62,1.79,2.55,1.96,2.22.2-.36,1.52-2.14,1.71-3.6l10.29-77.81,9.5-72.49,33.4-.17c2.04-.01,5.46,3.35,5.47,5.74l.52,132.34.5,83.98c.02,3.07-3.74,6.28-6.31,6.21l-18.76-.51c-1.35-2.4-2.99-6.99-2.97-9.68l.68-84.93Z"/>
    <path class="cls-1" d="M490.74,330.58c6.08,25.35,5.58,52.06-4.91,75.91-5.07,11.52-14.76,22.37-28.11,22.95-21.16.92-42.66.53-63.75.45-1.85-.21-4.18-5.34-4.18-7.33l.09-214.79c0-2.99,2.62-5.82,5.29-5.81l58.36.25c14.42.06,25.74,10.39,30.91,22.85,8.96,21.61,10.39,64.11-7.04,83.12,5.7,6.91,11.22,13.57,13.34,22.4ZM463.09,275.73c1.28-10.65,2.33-31.05-12.44-31.21l-33.87-.36.23,46.59c15.16-.41,43.55,5.93,46.07-15.03ZM465.76,345.43c-1.16-8.16-8.26-14.53-16.51-14.5l-32.3.11-.14,50.59c0,2.39,3.01,7.18,5.45,7.14l23.89-.36c21.18-.32,21.81-27.66,19.62-42.97Z"/>
    <path class="cls-1" d="M257.39,208.91l-.53,50.56c-.23,21.88-.85,43.34-.05,65.2,1.3,35.49,2.96,109.02-47.32,111.32-37,1.69-51.81-29.49-53.34-60.51l-1.48-29.9-.47-137.68c-.01-3.58,3.78-6.03,6.47-6.02l14.96.05c3.49.01,8.18,2.87,8.17,7.27l-.28,144.08c-.03,15,2.78,39.4,20.88,39.94,17.94.54,23.27-20.92,23.28-34.45l.06-151.1c0-2.75,3.26-5.68,5.35-5.7l16.35-.13c3.39-.03,7.99,3.17,7.95,7.08Z"/>
  </g>
</svg>