<?xml version="1.0" encoding="UTF-8"?>
<svg id="Capa_1" data-name="Capa 1" xmlns="http://www.w3.org/2000/svg" viewBox="0 0 640.49 636.59">
  <defs>
    <style>
      .cls-1 {
        fill: #fff;
      }
    </style>
  </defs>
  <path class="cls-1" d="M486.65,149.35c7.51,10.75-85.13,110.91-106.12,117.18-41.86,2.13-82.59-2.65-122.24-15.87-28.78-9.6-51.48-29.5-62.26-58.14l-34.51-91.71c-2.03-5.38-2.76-11.38-1.44-16.65,9.74,9.6,15.57,20.27,26.16,27.31,7.27,4.84,43.16,27.12,49.41,22.59,7.8-5.65.77-28.94,29.8-58.75,10.37-10.65,19.08-22.09,24.99-35.64,1.97-4.51,7.68-5.3,11.27-2.09,4.82,4.32,10.86,8,17.3,9.61l38.07,9.54c9.62,2.41,9.77-11.17,17.72-7.06,1.81.94,5.18,3.96,5.65,6.14l8.16,37.83c1.62,7.52,5.52,14.68,6.03,22.45,1.01,15.21.74,29.16-.11,44.66l41.26-.17c19.83-.08,44.39-20.52,50.87-11.24Z"/>
  <g>
    <path class="cls-1" d="M331.56,583.26l-.1-289.45-7.52-8.19,79.24-.1,20.39,46.42.11,131.9c4.84-3.33,8.89-6.47,13.55-10.44l-.03-197.97-21.33-1.41,35.19-35.88,22.83.14.03,253.28-85.88,67.28-.17-140.18-23.25.11v149.65s10.38.92,10.38.92l-43.43,33.91ZM363.91,315.62l-.03,53.34,24.03.02.03-53.34-24.03-.02Z"/>
    <path class="cls-1" d="M309.45,553.29l16.14-10.7.42,45.31-16.73,13.06-155.87-129.58v-253s44.3-.53,44.3-.53c10.53,15.37,23.2,26.04,40.15,36.14l-47.28.78-.08,199.68,118.96,98.85Z"/>
    <path class="cls-1" d="M201.77,398.97l41.72.19-7.6,7.34.28,22.23c11.87,10.1,22.35,19.75,35.82,29.37l.22-191.9,35.85,7.2-.08,260.21-106.03-88.42-.18-46.22Z"/>
  </g>
</svg>