<?xml version="1.0" encoding="UTF-8"?>
<svg id="Capa_1" data-name="Capa 1" xmlns="http://www.w3.org/2000/svg" viewBox="0 0 640.49 636.59">
  <defs>
    <style>
      .cls-1 {
        fill: #fff;
      }
    </style>
  </defs>
  <path class="cls-1" d="M185.46,263.6l26.74-26.55c2.65-2.61,4.31-4.39,4.96-5.34.65-.95.98-1.99.98-3.13,0-2.06-1.01-3.62-3.03-4.68-1.05-.51-2.82-.89-5.31-1.14v-1.45h27.25v1.45c-1.86.17-3.4.47-4.65.92-1.25.44-2.6,1.19-4.08,2.24-1.64,1.18-4.47,3.69-8.47,7.52l-20.48,19.66,29.14,37.17,3.6,4.61c2.65,3.29,5.41,5.86,8.28,7.71,1.73,1.14,3.24,1.95,4.55,2.43,1.31.49,2.95.85,4.93,1.11v1.45h-41.79v-1.45c3.16-.25,5.44-.78,6.83-1.58,1.39-.8,2.09-1.98,2.09-3.54,0-1.69-.86-3.83-2.59-6.45-.84-1.26-2.42-3.46-4.74-6.57-2.32-3.12-4.28-5.65-5.88-7.59l-14.22-17.64-4.11,4.05v20.93c0,4.3.24,7.49.73,9.58.48,2.09,1.38,3.8,2.69,5.15,1.14,1.18,2.45,2.05,3.95,2.62,1.5.57,3.47.92,5.91,1.04v1.45h-40.4v-1.45c2.44-.13,4.41-.47,5.91-1.04,1.5-.57,2.81-1.44,3.95-2.62,1.35-1.35,2.25-3.05,2.72-5.12.46-2.06.69-5.27.69-9.61v-46.59c0-4.34-.23-7.54-.69-9.61-.47-2.07-1.37-3.77-2.72-5.12-1.14-1.22-2.47-2.11-3.98-2.66-1.52-.55-3.48-.89-5.88-1.01v-1.45h40.4v1.45c-2.4.13-4.35.46-5.85,1.01-1.5.55-2.83,1.43-4.01,2.66-1.31,1.35-2.2,3.07-2.69,5.15-.48,2.09-.73,5.28-.73,9.58v22.44Z"/>
  <path class="cls-1" d="M290.41,221.31v1.45c-2.4.13-4.35.46-5.85,1.01-1.5.55-2.83,1.43-4.01,2.66-1.64,1.69-2.65,4.02-3.03,7.02-.25,2.23-.38,4.8-.38,7.71v46.59c0,3.5.17,6.26.51,8.28.34,2.02.88,3.65,1.64,4.87,1.1,1.69,2.51,2.94,4.24,3.76,1.73.82,4.02,1.32,6.89,1.49v1.45h-40.4v-1.45c2.44-.13,4.41-.47,5.91-1.04,1.49-.57,2.81-1.44,3.95-2.62,1.35-1.35,2.25-3.05,2.72-5.12.46-2.06.69-5.27.69-9.61v-46.59c0-4.34-.23-7.54-.69-9.61-.46-2.07-1.37-3.77-2.72-5.12-1.14-1.22-2.46-2.11-3.98-2.66-1.52-.55-3.48-.89-5.88-1.01v-1.45h40.4Z"/>
  <path class="cls-1" d="M296.6,306.15c2.44-.13,4.4-.46,5.88-1.01,1.47-.55,2.8-1.43,3.98-2.66,1.31-1.35,2.2-3.07,2.69-5.15.48-2.09.73-5.28.73-9.58v-46.59c0-4.64-.28-8.03-.85-10.18s-1.68-3.92-3.32-5.31c-2.07-1.73-5.1-2.7-9.1-2.91v-1.45h34.77c7.71,0,12.62.08,14.73.25,8.89.67,16.44,3.2,22.63,7.59,5.9,4.17,10.49,9.64,13.78,16.41,3.29,6.76,4.93,14.13,4.93,22.09,0,5.82-.94,11.31-2.81,16.47-1.88,5.16-4.48,9.45-7.81,12.86-4.68,4.8-10.52,7.86-17.51,9.17-5.23.97-10.56,1.45-15.99,1.45h-46.72v-1.45ZM323.72,223.27v62.84c0,4.13.23,7.27.69,9.42.46,2.15,1.33,3.98,2.59,5.5,2.7,3.29,7.08,4.93,13.15,4.93,5.18,0,9.62-.85,13.31-2.56,3.69-1.71,6.98-4.48,9.89-8.31,2.87-3.71,5.05-7.95,6.54-12.74s2.24-9.87,2.24-15.27c0-5.98-.91-11.67-2.72-17.07-1.81-5.4-4.41-10.11-7.78-14.16-4.68-5.61-10.26-9.31-16.75-11.13-3.54-.97-8.05-1.45-13.53-1.45h-7.65Z"/>
  <path class="cls-1" d="M396.55,306.15c2.44-.13,4.4-.46,5.88-1.01,1.47-.55,2.8-1.43,3.98-2.66,1.3-1.35,2.2-3.07,2.69-5.15.48-2.09.73-5.28.73-9.58v-46.59c0-4.64-.28-8.03-.85-10.18-.57-2.15-1.67-3.92-3.32-5.31-2.07-1.73-5.1-2.7-9.1-2.91v-1.45h34.77c7.71,0,12.62.08,14.73.25,8.89.67,16.44,3.2,22.63,7.59,5.9,4.17,10.5,9.64,13.78,16.41,3.29,6.76,4.93,14.13,4.93,22.09,0,5.82-.94,11.31-2.81,16.47-1.87,5.16-4.48,9.45-7.81,12.86-4.68,4.8-10.51,7.86-17.51,9.17-5.23.97-10.56,1.45-15.99,1.45h-46.72v-1.45ZM423.67,223.27v62.84c0,4.13.23,7.27.7,9.42.46,2.15,1.33,3.98,2.59,5.5,2.7,3.29,7.08,4.93,13.15,4.93,5.18,0,9.62-.85,13.31-2.56,3.69-1.71,6.98-4.48,9.89-8.31,2.86-3.71,5.04-7.95,6.54-12.74,1.49-4.78,2.24-9.87,2.24-15.27,0-5.98-.91-11.67-2.72-17.07-1.81-5.4-4.41-10.11-7.78-14.16-4.68-5.61-10.26-9.31-16.75-11.13-3.54-.97-8.05-1.45-13.53-1.45h-7.65Z"/>
  <path class="cls-1" d="M18.32,326.84h41.72v1.45c-3.16.3-5.44.78-6.83,1.45-1.31.63-2.36,1.61-3.16,2.94-.8,1.33-1.2,2.77-1.2,4.33,0,1.1.1,2.07.31,2.91.21.84.84,2.68,1.9,5.5l18.71,50.89,18.14-44.63c2.53-6.28,3.79-10.85,3.79-13.72,0-1.6-.25-3.1-.76-4.49s-1.18-2.46-2.02-3.22c-.84-.72-1.77-1.22-2.78-1.52-1.01-.3-2.32-.44-3.92-.44v-1.45h28.13v1.45c-2.32.21-4.33.78-6.04,1.71-1.71.93-3.34,2.34-4.9,4.24-1.05,1.35-2.16,3.19-3.32,5.53-1.16,2.34-2.75,5.95-4.77,10.84l-25.92,62.52h-2.65l-25.16-64.61c-3.29-8.47-5.92-13.85-7.9-16.12-1.26-1.43-2.81-2.47-4.65-3.13-1.83-.65-4.08-.98-6.73-.98v-1.45Z"/>
  <path class="cls-1" d="M114.28,370.56c0-7.08,1.52-13.65,4.55-19.71,3.03-6.05,7.46-11.33,13.27-15.85,4.34-3.33,9.02-5.89,14.04-7.69,5.01-1.79,10.07-2.69,15.17-2.69,6.49,0,12.77,1.42,18.84,4.27s11.38,6.86,15.93,12.05c7.42,8.44,11.13,18.03,11.13,28.78,0,5.4-.97,10.61-2.91,15.63-1.94,5.02-4.76,9.6-8.47,13.73-4.55,5.15-9.94,9.13-16.15,11.96-6.22,2.83-12.72,4.24-19.5,4.24s-13.11-1.37-19.22-4.11c-6.11-2.74-11.38-6.62-15.8-11.64-3.5-3.92-6.19-8.38-8.06-13.38-1.88-5-2.81-10.2-2.81-15.6ZM129.58,371.51c0,12.23,3.33,22.54,9.99,30.94,2.99,3.75,6.16,6.48,9.51,8.19s7.22,2.56,11.6,2.56,8.31-.84,11.66-2.53,6.54-4.43,9.58-8.22c6.66-8.44,9.99-18.83,9.99-31.19,0-6.79-.92-13.21-2.75-19.26-1.83-6.05-4.42-11.19-7.75-15.4-2.7-3.46-5.7-5.98-9.01-7.56-3.31-1.58-7.22-2.37-11.73-2.37s-8.33.78-11.6,2.34-6.29,4.09-9.07,7.59c-3.33,4.18-5.9,9.3-7.71,15.37-1.81,6.07-2.72,12.59-2.72,19.55Z"/>
  <path class="cls-1" d="M219.29,370.56c0-7.08,1.52-13.65,4.55-19.71,3.03-6.05,7.46-11.33,13.28-15.85,4.34-3.33,9.02-5.89,14.03-7.69s10.07-2.69,15.17-2.69c6.49,0,12.77,1.42,18.84,4.27s11.38,6.86,15.93,12.05c7.42,8.44,11.13,18.03,11.13,28.78,0,5.4-.97,10.61-2.91,15.63-1.94,5.02-4.76,9.6-8.47,13.73-4.55,5.15-9.94,9.13-16.15,11.96-6.22,2.83-12.72,4.24-19.5,4.24s-13.11-1.37-19.22-4.11c-6.11-2.74-11.38-6.62-15.81-11.64-3.5-3.92-6.19-8.38-8.06-13.38-1.88-5-2.81-10.2-2.81-15.6ZM234.59,371.51c0,12.23,3.33,22.54,9.99,30.94,2.99,3.75,6.16,6.48,9.52,8.19,3.35,1.71,7.22,2.56,11.6,2.56s8.31-.84,11.66-2.53c3.35-1.69,6.54-4.43,9.58-8.22,6.66-8.44,9.99-18.83,9.99-31.19,0-6.79-.92-13.21-2.75-19.26-1.83-6.05-4.42-11.19-7.74-15.4-2.7-3.46-5.7-5.98-9.01-7.56-3.31-1.58-7.22-2.37-11.73-2.37s-8.34.78-11.6,2.34c-3.27,1.56-6.29,4.09-9.07,7.59-3.33,4.18-5.9,9.3-7.71,15.37-1.81,6.07-2.72,12.59-2.72,19.55Z"/>
  <path class="cls-1" d="M321.32,411.68c2.44-.13,4.4-.46,5.88-1.01,1.47-.55,2.8-1.43,3.98-2.66,1.31-1.35,2.2-3.07,2.69-5.15.48-2.09.73-5.28.73-9.58v-46.59c0-4.64-.28-8.03-.85-10.18s-1.68-3.92-3.32-5.31c-2.07-1.73-5.1-2.7-9.1-2.91v-1.45h34.77c7.71,0,12.62.08,14.73.25,8.89.67,16.44,3.2,22.63,7.59,5.9,4.17,10.49,9.64,13.78,16.41,3.29,6.76,4.93,14.13,4.93,22.09,0,5.82-.94,11.31-2.81,16.47-1.88,5.16-4.48,9.45-7.81,12.86-4.68,4.8-10.52,7.86-17.51,9.17-5.23.97-10.56,1.45-15.99,1.45h-46.72v-1.45ZM348.44,328.8v62.84c0,4.13.23,7.27.69,9.42.46,2.15,1.33,3.98,2.59,5.5,2.7,3.29,7.08,4.93,13.15,4.93,5.18,0,9.62-.85,13.31-2.56,3.69-1.71,6.98-4.48,9.89-8.31,2.87-3.71,5.05-7.95,6.54-12.74s2.24-9.87,2.24-15.27c0-5.98-.91-11.67-2.72-17.07-1.81-5.4-4.41-10.11-7.78-14.16-4.68-5.61-10.26-9.31-16.75-11.13-3.54-.97-8.05-1.45-13.53-1.45h-7.65Z"/>
  <path class="cls-1" d="M424.24,370.56c0-7.08,1.52-13.65,4.55-19.71,3.03-6.05,7.46-11.33,13.28-15.85,4.34-3.33,9.02-5.89,14.03-7.69s10.07-2.69,15.17-2.69c6.49,0,12.77,1.42,18.84,4.27s11.38,6.86,15.93,12.05c7.42,8.44,11.13,18.03,11.13,28.78,0,5.4-.97,10.61-2.91,15.63-1.94,5.02-4.76,9.6-8.47,13.73-4.55,5.15-9.94,9.13-16.15,11.96-6.22,2.83-12.72,4.24-19.5,4.24s-13.11-1.37-19.22-4.11c-6.11-2.74-11.38-6.62-15.81-11.64-3.5-3.92-6.19-8.38-8.06-13.38-1.88-5-2.81-10.2-2.81-15.6ZM439.54,371.51c0,12.23,3.33,22.54,9.99,30.94,2.99,3.75,6.16,6.48,9.52,8.19,3.35,1.71,7.22,2.56,11.6,2.56s8.31-.84,11.66-2.53c3.35-1.69,6.54-4.43,9.58-8.22,6.66-8.44,9.99-18.83,9.99-31.19,0-6.79-.92-13.21-2.75-19.26-1.83-6.05-4.42-11.19-7.74-15.4-2.7-3.46-5.7-5.98-9.01-7.56-3.31-1.58-7.22-2.37-11.73-2.37s-8.34.78-11.6,2.34c-3.27,1.56-6.29,4.09-9.07,7.59-3.33,4.18-5.9,9.3-7.71,15.37-1.81,6.07-2.72,12.59-2.72,19.55Z"/>
  <path class="cls-1" d="M529.24,370.56c0-7.08,1.52-13.65,4.55-19.71,3.03-6.05,7.46-11.33,13.27-15.85,4.34-3.33,9.02-5.89,14.04-7.69,5.01-1.79,10.07-2.69,15.17-2.69,6.49,0,12.77,1.42,18.84,4.27s11.38,6.86,15.93,12.05c7.42,8.44,11.13,18.03,11.13,28.78,0,5.4-.97,10.61-2.91,15.63-1.94,5.02-4.76,9.6-8.47,13.73-4.55,5.15-9.94,9.13-16.15,11.96-6.22,2.83-12.72,4.24-19.5,4.24s-13.11-1.37-19.22-4.11c-6.11-2.74-11.38-6.62-15.8-11.64-3.5-3.92-6.19-8.38-8.06-13.38-1.88-5-2.81-10.2-2.81-15.6ZM544.54,371.51c0,12.23,3.33,22.54,9.99,30.94,2.99,3.75,6.16,6.48,9.51,8.19s7.22,2.56,11.6,2.56,8.31-.84,11.66-2.53,6.54-4.43,9.58-8.22c6.66-8.44,9.99-18.83,9.99-31.19,0-6.79-.92-13.21-2.75-19.26-1.83-6.05-4.42-11.19-7.75-15.4-2.7-3.46-5.7-5.98-9.01-7.56-3.31-1.58-7.22-2.37-11.73-2.37s-8.33.78-11.6,2.34-6.29,4.09-9.07,7.59c-3.33,4.18-5.9,9.3-7.71,15.37-1.81,6.07-2.72,12.59-2.72,19.55Z"/>
</svg>