<?xml version="1.0" encoding="UTF-8"?>
<svg id="Capa_1" data-name="Capa 1" xmlns="http://www.w3.org/2000/svg" viewBox="0 0 640.49 636.59">
  <defs>
    <style>
      .cls-1 {
        fill: #fff;
      }
    </style>
  </defs>
  <g>
    <path class="cls-1" d="M410.13,259.88l-99.98,21.82-99.28-21.64c-4.62-1.01-6.74-4.64-5.59-9.27l25.88-47.85c1.98-3.43,5.12-3.91,8.8-3.24l70.15,12.88,70.18-12.88c3.41-.63,6.27-.28,8.46,2.61l26.21,48.51c.97,3.92-.53,8.12-4.82,9.06Z"/>
    <path class="cls-1" d="M364.58,194.59l-54.47,10.99-53.28-10.74c-2.56-.52-4.4-3.18-4.26-5.65l.05-34.58c0-3.01,3.11-4.72,5.86-4.51,17.39,1.31,34.02,6.41,51.65,6.4s34.77-5.27,52.33-6.4c3.29-.21,5.21,2.38,5.21,5.63v34.3c0,1.15-1.75,4.28-3.08,4.55Z"/>
    <g>
      <path class="cls-1" d="M356.98,115.82c-13.95,1.97-27.62,3.33-41.19,6.28-2.69.58-3.97,6.33-8.01,3.95-2.53-1.49-5.05-3.87-5.06-7.6s1.39-6.62,4.61-8.36c2.35-1.27,5.65.82,8.14,2.95l37.22-5.3c-8.47-12.63-47.09-15.91-61.07-16.45-7.68,10.13-26.69,26.58-37.96,17.41,8.63.34,15.72-3.87,22.2-9.53,13.49-11.79,22.78-27.28,29.45-44,5.62-14.08,12.71-42.75.02-54.52,14.11,3.06,14.11,23.2,11.71,35.87l-2.32,12.28c12.08,14.8,25.18,27.59,40.37,38.83,11.37,8.42,16.39,20.87,12.51,34.81-3.84,13.77-14.72,23.64-29.32,25.14-17.5,1.8-47.57,2.65-65-1.66-.53-3.84-.58-7.05-.03-10.92,26.46-5.06,52.47-4.02,78.98-.25,4.35-5.35,6.37-11.45,4.76-18.93Z"/>
      <path class="cls-1" d="M284.84,47.79c8.04-1.76,15.39-8.86,16.24-17.08.35-3.42-.26-7.11-2.38-9.27-6.8-6.94-17.26-.27-23.33,5.8-10.29,10.3-16.9,23.23-21.16,37.25-3.08,10.14-7.1,32.85,8.87,35.6-3.02,2.12-6.74,4.05-10.61,5-5.62,1.39-10.85-1.82-12.5-7.34-2.06-6.89-1.94-14.32-.31-21.74,4.88-22.28,15.72-42.7,31.26-59.27,5.65-6.03,12.25-11.01,19.88-13.31,6.46-1.95,12.29,1.14,13.93,7.43,1.65,6.34,1.75,13,.36,19.84-4.67,22.92-15.63,44.06-31.78,60.77-3.58,3.7-10.02,6.76-14.25,3.35-3.86-3.11-4.79-9.83-4.33-14.87,1.66-18.1,9.25-34.84,20.97-48.43,4.08-4.72,14.19-13.03,20.15-8.22,1.6,1.29,2.54,5.01,2.13,7.17-1.85,9.75-9.31,12.24-14.92,14.88-.44.21,1.09,2.59,1.79,2.44Z"/>
    </g>
  </g>
  <polygon class="cls-1" points="499.99 518.79 499.65 459.09 477.16 518.75 456.98 518.75 434.38 459.03 433.99 518.84 409.01 518.65 409.01 416.09 438.47 416.1 467.22 486.98 495.61 416.24 525.07 416.04 525.05 518.81 499.99 518.79"/>
  <polygon class="cls-1" points="376.22 518.81 375.71 459.69 353.43 518.62 333.25 518.81 310.35 458.12 310.08 518.7 284.92 518.83 284.91 416.11 314.6 416.06 343.47 486.51 371.87 416.1 401.18 416.11 401.17 518.73 376.22 518.81"/>
  <path class="cls-1" d="M79.11,479.53l-31.36-.14.09-18.64h54.38c-.7,7.42,1.34,15.69-.41,22.85-5.79,23.68-28.58,36.81-51.93,35.86-25.52-1.04-45.61-18.24-48.91-43.65-1.86-14.29.68-28.79,9.28-40.69,9.64-13.34,25.12-20.11,41.55-20.18,23.08-.1,42.26,10.32,48.51,33.5l-27.45.06c-4.24-6.83-11.06-10.05-19.03-10.39-11.67-.51-22.02,5.59-25.91,16.78-3.27,9.4-2.9,19.8,1.56,28.73s13.45,13.19,23.27,13.64c11.8.54,22.48-4.65,26.36-17.74Z"/>
  <polygon class="cls-1" points="623.59 416.17 588.3 484.62 588.11 518.79 563.29 518.78 563.19 484.98 527.65 416.18 555.92 415.99 575.83 458.78 595.52 416.2 623.59 416.17"/>
  <path class="cls-1" d="M244.23,416.21l-29.02-.13-32.89,90.78-16.79-28.75c14.27-3.97,22.83-15.67,22.57-29.7.33-12.42-6.13-22.88-17.17-28.3-5.32-2.03-11.25-4.01-17.16-4.01l-45.29.05.05,102.64h24.95s.07-38.36.07-38.36c1.6-.46,4.45-.42,6.23.04l21.13,38.34,43.25-.02,6.46-18.18,38.13.22,6.07,18.16,26.32-.44-36.93-102.32ZM162.82,450.47c0,.12,0,.24-.01.36,0,0,0,0,0,0h0c-.01.18-.04.35-.06.52-.02.18-.03.37-.06.55-.03.17-.07.33-.1.5-.04.19-.06.37-.11.56-.04.16-.09.31-.13.47-.05.19-.1.38-.16.57-.03.11-.08.21-.12.32-.08.23-.16.47-.26.7-.4.95-.92,1.85-1.54,2.67-.03.04-.06.09-.09.13-2,2.57-5.1,4.35-9.17,4.42l-2.26.04-15.2.25h0s0,0,0,0v-13.11s-.02-12.36-.02-12.36h0c5.18-.09,10.18-.25,15.11.04,1.97.12,3.93.31,5.89.61,2.76.43,4.76,2,6.1,4.06,0,0,0,0,0,0,.19.29.37.59.53.9.14.26.26.53.38.8.02.05.05.11.08.16.25.59.46,1.21.63,1.83.02.06.04.13.06.19.07.27.13.54.18.81.02.08.04.15.05.23.18.96.27,1.92.28,2.85,0,.09,0,.18,0,.26,0,.22-.01.42-.02.64ZM217.13,481.31l12.47-36.51,12.49,36.34-24.96.17Z"/>
  <g>
    <path class="cls-1" d="M303.42,612.03c-8.93,24.07-37.36,27.2-55.83,18.15-7.82-3.83-13.11-11.15-16.01-19.59-8.26-24.09-8.27-70.98,19.01-81.37,18.59-7.08,43.97-3.41,52.66,19.13,7.8,20.23,7.71,43.35.17,63.69ZM267.26,611.14c7.46.16,13.37-3.92,15-11.21,2.8-12.49,2.49-26.24.02-38.79-1.57-7.98-7.86-12-15.44-11.63-6.74.33-11.78,3.96-13.36,11.01-2.85,12.69-3.16,26.77-.12,39.38,1.66,6.87,6.65,11.08,13.9,11.23Z"/>
    <path class="cls-1" d="M470.09,611.36c-7.45,25.52-37.79,28.54-57,18.77-10.13-5.15-16.49-14.96-16.48-26.67l24-.2c2.03,7.93,8.79,11.57,16.13,10.5s11.23-8.11,10.96-16.15c-.12-3.68-.84-7.66-3.21-10.52-2.05-2.48-6.46-3.98-10.18-4.07-5.9-.14-10.67,2.55-12.49,8.66l-24.32.06v-63.58s68.16.03,68.16.03l.11,21.98-45.63.12.02,19.46c6.12-4.86,12.54-6.62,20.16-6.75,13.52-.22,25.05,7.45,29.34,20.58,2.87,8.79,3.06,18.76.43,27.77Z"/>
    <path class="cls-1" d="M146.68,615.23c10.41-8.7,20.24-16.78,29.91-25.87,8.94-8.4,22.76-25.97,14.52-38.25-3.64-5.43-12.6-5.17-16.69-.45-2.97,3.43-3.48,7.79-3.93,12.43l-23.76-.02c-.13-12.68,4.7-25.33,16.16-31.79,12.09-6.82,27.59-7.16,40.13-1.15,10.73,5.14,15.85,16.76,15.48,28.21.79,23.25-20.49,40.45-37.02,54.76l38.67.23.13,20.41h-73.41s-.2-18.5-.2-18.5Z"/>
    <path class="cls-1" d="M316.47,615.28c14.18-12.86,55.32-40.55,45.54-62.5-1.68-3.78-5.55-5.62-9.03-5.64-9.79-.05-11.66,7.29-12.91,15.98l-23.69.02c-.08-13,5.18-25.62,16.72-32.16,9.4-5.32,20.04-5.8,30.59-4.01,13.45,2.29,23.02,12.55,24.38,26.33,3.33,26.28-18.3,43.95-37.03,59.86l38.81.16.08,20.41h-73.27s-.21-18.44-.21-18.44Z"/>
  </g>
  <polygon class="cls-1" points="487.56 406.02 462.28 406.21 420.99 343.8 420.7 406.11 395.75 406.15 395.75 303.87 420.79 303.91 462.32 366.98 462.46 303.89 487.51 303.82 487.56 406.02"/>
  <polygon class="cls-1" points="327.37 406.02 302.48 406.21 302.42 323.95 275.38 323.7 275.45 303.79 354.3 303.79 354.47 323.73 327.35 323.93 327.37 406.02"/>
  <polygon class="cls-1" points="190.74 387.02 190.55 406.18 132.74 406.2 132.68 303.88 157.82 303.9 157.84 386.9 190.74 387.02"/>
  <rect class="cls-1" x="362.67" y="303.78" width="25.16" height="102.42"/>
  <path class="cls-1" d="M264.78,388.17l-38.09-.03-6.02,17.94h-26.27s36.89-102.19,36.89-102.19h29.14s36.84,101.92,36.84,101.92l-26.35.33-6.14-17.98ZM258.18,368.29l-12.36-36.23-12.59,36.7,24.95-.47Z"/>
  <path class="cls-1" d="M436.17,253.74c0,3.93-3.08,7.01-7.1,7.01s-7.14-3.08-7.14-7.01,3.17-6.93,7.14-6.93,7.1,3.08,7.1,6.93ZM423.71,253.74c0,3.08,2.28,5.53,5.41,5.53s5.28-2.45,5.28-5.49-2.24-5.58-5.32-5.58-5.36,2.49-5.36,5.53ZM427.97,257.37h-1.6v-6.93c.63-.13,1.52-.21,2.66-.21,1.31,0,1.9.21,2.41.51.38.3.68.84.68,1.52,0,.76-.59,1.35-1.44,1.61v.08c.68.25,1.06.76,1.27,1.69.21,1.06.34,1.48.51,1.73h-1.73c-.21-.25-.34-.89-.55-1.69-.13-.76-.55-1.1-1.44-1.1h-.76v2.79ZM428.02,253.44h.76c.89,0,1.61-.3,1.61-1.01,0-.63-.47-1.06-1.48-1.06-.42,0-.72.04-.89.09v1.98Z"/>
  <path class="cls-1" d="M640.4,422.09c0,3.93-3.08,7.01-7.1,7.01s-7.14-3.08-7.14-7.01,3.17-6.93,7.14-6.93,7.1,3.08,7.1,6.93ZM627.94,422.09c0,3.08,2.28,5.53,5.41,5.53s5.28-2.45,5.28-5.49-2.24-5.58-5.32-5.58-5.36,2.49-5.36,5.53ZM632.2,425.72h-1.6v-6.93c.63-.13,1.52-.21,2.66-.21,1.31,0,1.9.21,2.41.51.38.3.68.84.68,1.52,0,.76-.59,1.35-1.44,1.61v.08c.68.25,1.06.76,1.27,1.69.21,1.06.34,1.48.51,1.73h-1.73c-.21-.25-.34-.89-.55-1.69-.13-.76-.55-1.1-1.44-1.1h-.76v2.79ZM632.25,421.8h.76c.89,0,1.61-.3,1.61-1.01,0-.63-.47-1.06-1.48-1.06-.42,0-.72.04-.89.09v1.98Z"/>
</svg>