<?xml version="1.0" encoding="UTF-8"?>
<svg id="Capa_1" data-name="Capa 1" xmlns="http://www.w3.org/2000/svg" viewBox="0 0 640.49 636.59">
  <defs>
    <style>
      .cls-1 {
        fill: #fff;
      }
    </style>
  </defs>
  <g>
    <path class="cls-1" d="M289.78,312.07c.12.83-2.03,2.88-2.41,2.22-8.11-14.14-13.45-28.93-20.78-43.86l-4.91,38.18c-.24,1.84.93,3.55,2.58,3.77,1.64.68,3.37-.12,5,1.37-3.38,1.97-7.07,1.02-10.84.88-2.76-.1-9.76,1.26-9.8-.8-.03-1.72,5.5.14,6.25-5.15l8.86-61.92c.12-.82.84-1.4,1.2-1.63.56-.35,1.63.05,2.08,1.03l23.37,51.17,22.95-51.1c.33-.74,1.19-1.13,1.58-1.22.63-.14,1.48.61,1.63,1.69l8.2,59.45c1.31,9.5,11.16,5.43,9.88,7.52-1.57,2.56-17.13.65-21.61.19,1.65-2.7,1.56-4.57,1.21-7.18l-4.97-37.43-19.48,42.83Z"/>
    <path class="cls-1" d="M424.61,285.16c-.65-4.04-9.27-.59-6.91-3.83.42-.57,23.99-.26,24.43-.13.23.07.3.26.33.63.1,1.81-5.75-.65-6.29,5.45-.69,7.62.81,16-.63,23.64-4.64,4.48-13.23,4.77-19.57,5.04-22.44.96-39.64-11.69-40.15-35.2-.42-19.39,13.35-34.37,32.92-35.18,9.11-.38,17.64.85,27.07,2.69-.99,6.02.47,11.63-1.47,17.97-1.82-6.58-3.73-10.88-9.36-13.21-13.12-5.45-30.79-3.63-35.49,11.88-2.87,9.47-2.4,19.61,1.33,28.73,5.01,12.22,16.77,18.91,29.86,17.36,2.26-.27,4.6-1.41,4.62-4.09.04-7.1.52-14.19-.69-21.74Z"/>
    <path class="cls-1" d="M491.8,248.28c-2.43-2.91,22.27-.95,21.94-1.22.31.25.41.77-.05,1.03-.26.15-.81.43-1.3.43-3.28.01-5.12,1.73-5.13,4.87l-.13,28.9c-.02,4.84-.34,9.58-1.17,14.12-2.32,12.71-12.97,19.86-25.44,19.78-17.66-.12-25.03-13.01-25.21-29.19l-.4-35.8c-.04-3.88-8.56-1.35-7.55-3.56.17-.36.44-.94,1.36-.92,3.31.05,23.9.1,24.24.35s.46.77-.03,1.02c-.25.13-.78.43-1.25.44-3.31.03-5.1,1.77-5.1,4.97l-.07,34.99c0,3.79.55,7.46,1.58,11,2.17,7.51,8.55,11.85,16.01,11.5,7.37-.35,13.41-5.68,14.54-13.72,1.52-10.88,1.18-30.91.82-42.59-.05-1.73-.31-3.81-1.27-4.79-1.8-1.84-5.7-.77-6.39-1.6Z"/>
    <path class="cls-1" d="M541.2,280.8c-.37,7.99-.19,15.19-.1,23.08.1,8.5,13.54,6.28,17.14,5.1s3.22-5.26,5.49-8.46c.74,2.48,1.04,14.27-3.39,14.43-8.9.33-17.43-.09-26.33-.41-3.73-.14-7.47,1.41-10.96-.43,1.11-1.9,3.61-.79,4.96-2.12,1.63-1.59,2.07-4.77,2.07-7.33l-.09-52.61c0-5.42-11.37-1.96-7.56-4.96.23-.18.56-.38,1.31-.37,11.87.23,23.35.59,35.21,0,.92-.05,3.15-1.05,3.27.03-.73,4.43-.19,8.59-1.56,13.02-1.99-2.05-.88-4.15-2.07-5.56-2.74-3.26-12.11-2.1-17.49-2.2l-.03,23.91c7.35-.05,14.71,1.43,19.83-2.64-.72,5.42-.2,10.21-1.6,15.3-1.95-2.36-.44-5.93-3.23-6.79-4.58-1.4-9.18-.88-14.89-.97Z"/>
    <path class="cls-1" d="M618.57,300.28c.89,2.2,1.43,14.46-3.92,14.68-9.2.39-17.97-.2-27.14-.41-1.22-.03-14.6,1.53-10.93-1.3.76-.58,6.18.14,6.17-5.59l-.05-56.44c0-3.89-10.22-1.51-6.84-4.14.24-.19.63-.45,1.33-.45l24.79.21c-.08,3.34-7.85-.28-7.96,6.1-.29,16.96-.48,33.62.13,50.54.11,2.95,1.66,5.4,4.6,5.79,4.34.58,8.93.89,13.2-.07s4.44-4.96,6.6-8.93Z"/>
    <g>
      <path class="cls-1" d="M110.25,248.29c-2.82-2.86,23.71-.98,22.09-1.33.23.05.3.18.33.62.17,2.02-6.67-.96-6.74,5.97l-.3,33.85c-.15,16.66-8.33,28.29-25.91,28.78-13.46.37-24.87-8.45-25.09-22.47l-.63-39.92c-.03-1.62-.44-3.18-1.26-4-1.94-1.96-8.96-.27-6.26-2.72.41-.37,24.7-.28,24.99-.02,2.89,2.63-6.24-.82-6.25,6.53l-.05,35.1c0,3.93.59,7.73,1.72,11.32,2.36,7.47,9.01,11.57,16.4,10.97,10.28-.84,14.86-10.19,14.85-19.86v-37.49c0-1.62-.68-3.12-1.46-3.87-1.84-1.78-5.53-.52-6.43-1.44Z"/>
      <path class="cls-1" d="M213.5,305.94c-6.4,11.81-24.97,12.68-32.43,6.34-1.4-5.03-.69-11.27,1.36-16.28,1.58,6.66,2.47,12.45,8.49,14.55,4.68,1.63,9.77,1.07,13.09-2.51,2.91-3.14,3.76-8.2,1.74-12.73-4.02-9.01-16.91-13.02-22.06-25.55-4.13-10.05.73-20.45,11.25-23.28,6.35-1.71,13.04-1.19,19.35,1.03l-.32,12.38c-.02.64-.23,1.16-.59,1.34-2.02,1.05-.56-12.36-13.06-11.1-2.95.3-5.59.63-7.35,2.86-1.65,2.08-2.52,5.06-1.77,8.15,1.74,7.15,11.97,12.12,18.64,19.68,6.11,6.93,8.17,16.83,3.67,25.13Z"/>
      <path class="cls-1" d="M64.58,300.25c.49,3.99.73,14.46-4,14.68-9.67.45-18.98-.23-28.64-.37-3.49-.05-7.02,1.32-10.3-.45,1.14-1.94,3.62-.75,5-2.08,1.68-1.62,2.03-4.81,2.04-7.39l.08-51.03c0-1.7-.54-3.14-1.44-3.92-2.23-1.93-5.61.01-5.97-2.05-.06-.35.6-.96,1.28-.93,8.29.32,16.33.16,24.7.06.3,1.74-1.4,1.8-2.74,1.82-3.12.03-4.94,1.84-4.93,5l.16,49.44c0,2.19.88,5.19,3.16,5.77,5.05,1.28,11.13,1.72,15.97-.13,3.58-1.36,3.1-5.65,5.62-8.41Z"/>
      <path class="cls-1" d="M154.74,314.61c-3.25,0-12.29,1.29-12.39-.83-.08-1.79,6.52.35,6.14-5.12-.17-2.5.58-4.82.58-7.31l-.08-47.31c0-1.56-.46-3.32-1.16-4.26-1.46-1.98-8.47-.35-5.42-2.69.93-.72,18.77.2,22.99-.41,4.27,1.59-2.33,1.74-3.91,2.82-1.12.76-1.65,2.51-1.65,4.25l.1,53.57c0,1.92.68,4.08,2.29,4.85,2.29,1.08,4.81-.18,7,1.65-4.74,2.12-9.59.8-14.5.79Z"/>
    </g>
    <path class="cls-1" d="M367.97,313.81c-4.64,2.17-9.52.78-14.45.8-3.2,0-12.28,1.25-12.35-.78-.06-1.65,5.19-.28,5.68-3.04s1.04-5.63,1.03-8.56v-48.33c-.02-1.55-.62-3.27-1.26-4.12-1.51-1.98-8.59-.36-5.41-2.68.99-.72,18.7.2,22.98-.4,4.28,1.62-2.31,1.68-3.9,2.85-1.05.77-1.62,2.48-1.62,4.21l.07,52.79c0,1.94.22,4.91,1.82,5.33l7.41,1.95Z"/>
  </g>
  <g>
    <path class="cls-1" d="M238.07,367.97c0,13.06-10.58,23.64-23.64,23.64s-23.64-10.58-23.64-23.64,10.58-23.64,23.64-23.64,23.64,10.58,23.64,23.64ZM220.79,386.94c9.84-3.13,10.92-20.21,6.1-29.9-3.1-6.24-9.36-9.36-16.28-8.53-12.95,1.54-13.86,19.58-9.02,29.82,3.4,7.2,11.24,11.14,19.19,8.61Z"/>
    <path class="cls-1" d="M322.3,384.97l-8.72-11.77c-1.2-1.62-4.43-.92-6.27-.8-.01,5.25-.68,9.99.5,14.81.47,1.91,3.75.79,5.16,2.73l-17.73.05c1.04-1.81,2.68-1.01,3.35-1.85s1.21-2.37,1.21-3.85l.04-34.11c0-2.91-3.37-2.05-5.46-3.91,6.85-.26,13.73-.27,20.89-.1,3.92.09,7.43,2.11,9.2,4.82,4.54,6.94-.06,13.62-5.54,18.9,3.93,5.38,7.88,10.09,12.01,14.84,2.44,2.82,5.42,3.49,9.33,4.92-7.21,1.1-13.16,1.81-17.98-4.69ZM316.26,367.72c3.29-3.4,3.28-8.14,2.28-12.12-1.32-5.23-6.62-7.84-11.43-5.71l.43,18.24c2.02,1.66,6.76,1.62,8.72-.4Z"/>
    <path class="cls-1" d="M417.43,354.3c4.92,13.44,2.15,37.1-13.93,36.75-5.2-.11-9.63-3.67-11.76-9.09-5.03-12.79-2.78-36.82,13.35-36.79,5.38.01,10.24,3.39,12.33,9.12ZM403.65,348.2c-10.64.51-9.12,41.99,1.95,39.8,10.04-1.99,8.98-40.32-1.95-39.8Z"/>
    <path class="cls-1" d="M273.03,346.3l15.95-.16c-1.04,1.93-2.71.94-3.67,1.61-1.22.86-1.58,2.47-1.59,4.16l-.15,22.09c-.08,10.97-8.12,17.42-18.6,17.14-9.41-.25-16.78-5.52-16.94-15.56l-.4-25.58c-.05-3.03-3.74-1.87-5.93-3.63l18.62-.31c-1.11,2.14-3.2,1.08-4.58,2.77-.23,9.19-.47,18.31.08,27.28.42,6.91,4.82,11.56,11.15,11.59,6.85.03,11.27-4.9,11.3-12.12l.11-23.84c0-1.34-.26-2.52-.9-3.33-.83-1.05-2.17-.25-4.45-2.11Z"/>
    <path class="cls-1" d="M483.69,387.42c1.45,1.85,4.06-.17,5.19,2.69l-18.08-.15c1.31-2,3.02-1.28,4.71-1.89,1.3-2.77,1.41-6.4.58-9.14-6.81-.47-12.64.78-19.5-.68l25.77-33.76.83,29c1.91,1.02,4.43.27,6.89.07,1.2,1.47.36,4.92-1.59,5.09l-5.24.43c-.4,2.7-.29,5.31.44,8.34ZM476.58,373.79c-.33-6.23.47-11.08-.45-16.57l-11.78,16.4c4.29.62,7.85.38,12.23.17Z"/>
    <path class="cls-1" d="M384.17,378.65c1.09,3.99-.39,7.62-1.97,11.44-9.69-.08-18.75.83-28.75-.45,9.76-9.88,24.12-19.4,21.17-34.17-.96-4.83-4.12-7.39-8.64-7.15s-6.56,3.22-8.15,8.59c-1.44-2.07-2.02-7.3-.43-9.13,4.66-3.2,11.12-3.04,16.41-1.86,5.71,1.27,9.38,6.44,9.12,12.18-.52,11.48-11.92,19.96-19.62,26.7,7.42.26,17.66,2.56,20.85-6.14Z"/>
    <path class="cls-1" d="M454.42,378.65c1.08,3.99-.39,7.62-1.97,11.44-9.69-.08-18.76.83-28.75-.45,9.76-9.88,24.12-19.4,21.18-34.17-.96-4.83-4.12-7.38-8.64-7.16s-6.52,3.26-8.18,8.55c-1.21-1.81-2.23-7.53-.31-9.01,4.42-3.42,11.16-3.05,16.31-1.94,5.75,1.24,9.39,6.46,9.14,12.17-.5,11.48-11.93,19.98-19.62,26.71,7.42.26,17.66,2.56,20.85-6.14Z"/>
    <path class="cls-1" d="M170.99,383.22c0,2.07.42,3.98,1.37,4.87,1.17,1.09,3.25.01,4.89,1.83l-18.58.24c.87-2.1,2.79-1.19,3.36-2.06.8-1.25,1.04-2.8,1.05-4.23l.14-34.19c-6.96.03-12.72-1.86-15.96,4.41-.8-2.85.13-5.88,1.22-8.65,2.09-.13,3.59.57,5.52.58l26.38.02c1.9,0,3.31-.9,5.6-.64-.02,3.3.64,5.97-.74,9.27-1.8-6.84-8.25-4.84-14.27-5.07l.02,33.64Z"/>
  </g>
</svg>