<?xml version="1.0" encoding="UTF-8"?>
<svg id="Capa_1" data-name="Capa 1" xmlns="http://www.w3.org/2000/svg" viewBox="0 0 640.49 636.59">
  <defs>
    <style>
      .cls-1 {
        fill: #fff;
      }
    </style>
  </defs>
  <path class="cls-1" d="M77.93,341.8c5.84-4.79,8.38-16.49,8.36-24.01l-.17-67.74c-6.37,8.56-9.66,16.64-13.96,25.22l2.86,5.01-20.66-.06c1.89-2.09,2.91-4.58,1.66-7.06-4.01-7.95-7.47-15.01-12.96-22.83l-.42,64.71c-.06,8.7,2.31,20.77,7.96,26.74l-32.7.03c4.43-6.39,6.67-13.23,6.67-21.35v-91.7c.01-8.17-1.86-21.28-9.19-26.71l34.17.1c-4.66,2.46-7.66,5.72-6.49,11.21,2.46,11.57,13.48,26.95,21.58,37.1,8.25-10.86,19.07-25.46,21.46-37.43,1.04-5.19-2.13-7.92-6.34-10.9l34.24-.05c-8,5.55-9.51,19.7-9.53,28.53l-.15,84.57c-.01,7.64.86,21.39,7.96,26.61l-34.37.02Z"/>
  <polygon class="cls-1" points="152.96 281.97 146.87 270.99 152.49 260.36 158.4 270.77 152.96 281.97"/>
  <polygon class="cls-1" points="493.27 282.37 487.39 270.78 492.92 260.36 498.8 270.75 493.27 282.37"/>
  <g>
    <path class="cls-1" d="M446.15,341.83l-34.84-.05c3.74-2.92,5.16-6.77,3.52-11.68l-41.29-84.27-.3,86.11c-.02,4.77,5.68,6.94,8.87,9.77l-29.08.15c2.88-1.55,10.07-4.18,10.14-9.23l-.23-121.9c0-5.2-7.43-6.9-11.01-9.14l43.68.06c-4.75,2.19-7.16,5.87-5.71,10.77l35.86,73.63c.88-25.7.63-49.7.2-74.22-.1-5.49-7.18-7.94-11.23-10.09l33.45-.1c-3.64,2.03-11.73,4.12-11.74,9.98l-.31,119.91c-.01,5.38,6.54,7.83,10.03,10.28Z"/>
    <path class="cls-1" d="M316.51,282.14l-5.73-11.12c1.14-3.17,3.44-7.16,5.41-10.46l5.89,10.18-5.57,11.39Z"/>
    <path class="cls-1" d="M247.65,289.63l-25.92-12.7-12.45,40.07c-2.24,7.22-3.15,19.56,5.34,24.07l-35.01-.02c4.24-4.56,7.82-9.49,9.77-15.97l37.34-123.58,38.9-.11c2.63,0,5.42-.88,8.5-1.4-3.18,7.16-21.51,4.75-18.74,17.97l22.5,107.35c1.34,6.38,4.65,11.74,9.96,15.74h-39.41c4.46-3.61,7.63-8.98,6.39-15.26l-7.18-36.16ZM242.66,268.06c-2.18-12-4.26-22-7.36-34.56l-8.66,26.84,16.02,7.72Z"/>
  </g>
  <g>
    <path class="cls-1" d="M585.53,289.62l-25.94-12.68-12.43,40.06c-2.48,8-2.67,20.01,5.5,24.09l-34.95-.09c4.2-4.99,7.7-9.82,9.62-16.15l37.28-123.36,37.26-.08c3.35,0,6.49-.74,9.92-1.41-1.97,6.77-21.23,4.74-18.55,17.58l22.51,107.67c1.36,6.49,4.69,11.25,9.35,15.75h-38.6c5.47-4.23,6.41-9.61,6.26-16.08l-7.22-35.3ZM580.64,268.08l-7.5-34.57-8.54,27.2,16.04,7.36Z"/>
    <path class="cls-1" d="M603.5,178.16c-.08,8.47-12.2,15.52-19.32,18.27-1.22.47-2.85-3.34-1.87-4.33,4-4.06,6.95-8.42,9.09-13.96l12.1.02Z"/>
  </g>
  <g>
    <path class="cls-1" d="M348.51,453.55c-1.18-3.97-.42-5.86-.44-8.46-1.07-.9-2.58-2.21-3.13-3s1.52-2.88,2.62-3.18c2.79-.76,4.2-3.39,5.43-6.13l3.92-8.74-8.49,1.63-11.3,23.01c-.34.68-1.93,1.35-2.61,1.62-.85.33-1.81-2.64-1.44-3.66l9.32-26.07c.82-2.28,1.81-5.66,4.07-6.09.57-.11,2.91.24,3.15.76.29.65.29,1.61.48,3.33,9.84-4.74,24.86-6.4,32.94,1.9l-.97,7.23c-6.17,5.87-13.17,8.92-22.15,12.07l16.04,5.56c-7.46,4.6-15.07,1.15-22.6.69l-4.82,7.55ZM371.66,427.38c1.11-.65,2.86-2.68,3.49-3.78.5-.91-2.87-2.29-3.91-2.11l-8.27,1.45-4.09,11.96,12.77-7.52Z"/>
    <path class="cls-1" d="M403.25,447.69l9.37.71c1.83.14,1.77.32-.28,1.26l-3.44-.32c-1.01-.09-2.56,2.1-3.6,3.07-7.03-.57-15.17.05-22.45,1.99-2.31.62-6.66.82-6.46-2.6.58-2.61,6.55-3.85,9.34-4.07,2.19-8.44,4.9-16.5,8.01-24.72l-8-1.89c-1.43-10.4,40.88-8.3,42.72-1.45l-20.69,1.62c-2.96.23-6.23,5.04-7.32,7.61,5.94.8,10.33-.4,16.29,2.52l-19.99,3.37-5.85,12.11,12.36.78Z"/>
    <g>
      <path class="cls-1" d="M244.72,455.4c-.28.63-1.55,1.46-1.85,1.73-6.79,6,9.42-35.77,8.88-34.3.74-2.04-.16-7.42,2.26-8.51s7.23,1.23,7.4,3.65c.57,8.05,1.3,15.11,2.9,22.65,4.89-10.91,8.01-20.84,15.72-29.09.43,2.2.33,4.94-.42,6.91l-12.17,31.84c-.5,1.32-3.38,3.37-3.96,2.79-4.73-10.84-4.53-4.29-9.5-18.22l-9.26,20.55Z"/>
      <path class="cls-1" d="M225.11,439.06c-.79,5.81-20.95,17.53-24.16,15.68.24-2.66,2.84-3.65,5.05-4.96,4.89-2.88,8.96-6.61,12.94-10.57l-8.98-3.26c-1.24-.45-3.12-2.4-3.54-3.63-2.46-7.31,15.39-16.58,23.82-17.8,2.85-.41,5.52,2.87,5.67,4.88.38,5.05-2.75,8.73-6.82,9.72-.69.17-.22-2.1-.08-2.83l1.29-6.58c-7.9,2.01-12.68,5.99-18.23,11.13,5.41,3.6,10.84,2.71,13.04,8.2Z"/>
      <path class="cls-1" d="M230.02,452.93l1.42-5c.25-.89-1.73-1.85-2.33-2.54,1.6-.41,3.37-1,3.67-1.92,2.43-7.49,4.84-14.61,7.85-21.56l4.04-9.33c6.57,9.85,3.19,8.93-3.15,22.48l-5.16,11.02c-1.27,2.71-1.89,7.05-6.33,6.85Z"/>
      <path class="cls-1" d="M251.18,409.38c-2.07,1.06-7.07-.56-7.86-2.5-1.08-2.63.8-6.18,3.64-7.8,2.08-1.19,5.32.74,6.65,2.26,1.98,2.25.73,6.43-2.43,8.05Z"/>
    </g>
    <path class="cls-1" d="M352.09,411.26c-2.45,1.43-6.19-.55-6.83-2.99-.78-2.95.93-5.73,4.32-6.54,2.31-.55,4.69.56,5.55,2.19,1.25,2.4.29,5.4-3.04,7.34Z"/>
    <g>
      <path class="cls-1" d="M116.31,454.37c-5.2.97-2.59-32.05,0-35.99.61.12,2.36,1.86,2.52,2.77l2.29,13.48,10.54-13.99c2.32-3.08,3.61-8.42,10.41-6.21l-8.17,13.77-13.38,25.38-4.21.79Z"/>
      <g>
        <path class="cls-1" d="M149.3,453.87c-.88-3.1-.54-5.53-.38-8.13-.87-.93-2.44-2.54-2.87-3.54s1.64-3.09,2.69-3.5c6.34-2.5,3.88-6.07,9.19-14.66-11.1-.4-10.73,6.28-16.1,17.21-2.28,4.64-3.66,9.38-7.25,8.73-.53-.1-.97-2.12-.73-2.77l10.06-27.89c.58-1.6,1.13-3.47,1.95-4.27s3.66-.25,4.27.35l.29,2.28c.3,2.39,17.2-8.66,31.39,1.17,1.98,1.37,2.49,7.7.58,9.3-6.08,5.09-13.07,8.26-20.57,11.75l21.47,6.79c-5.45,1.44-23.87,1.41-28.7-1.05l-5.27,8.21ZM159.83,434.64c6.41-2.88,11.59-6.65,16.8-11.13-3.36-2.83-8.58-2.41-12.44.1l-4.36,11.03Z"/>
        <path class="cls-1" d="M156.14,411.79c-3.32,1.44-6.25-.62-8.35-2.13-.03-3.33,1.83-5.65,4.78-8,1.4.28,4.56,1.84,5.64,3.26s-.47,6.18-2.06,6.88Z"/>
      </g>
      <g>
        <path class="cls-1" d="M77.93,453.45c-3.73-3.23-1.67-27.59.77-34.98,4.63,4.6,3.42,10.41,4.28,16.99l11.45-14.86c2.42-3.13,3.39-8.27,9.68-6.01-6.67,11.29-12.7,22.15-18.51,34.02-1.19,2.42-4.32,7.74-7.67,4.83Z"/>
        <path class="cls-1" d="M111.1,427.3l-10.21,21.21c-.39.81-2.19,1.79-2.97,2-5.97,1.65,9.41-32.74,10.91-37.13,3.73,1.21,5.54,4.59,4.65,8.54-.37,1.63-1.35,3.24-2.38,5.38Z"/>
        <path class="cls-1" d="M109.99,410.61l-2.15-.95c-.56-.25,1.98-6.16,5.7-7.36,1.82-.58,5.83,1.89,5.78,3.82s-1.7,4.69-3,5.48c-1.64.99-4.34-.13-6.32-1Z"/>
      </g>
    </g>
    <g>
      <path class="cls-1" d="M527.54,426.34c-2.05,11.07-5.44,19.54-14.85,25.52-2.69-.44-6.71-2.11-7.6-4.87-1.16-3.6-.49-8.49.98-12l8.31-19.87,4.55,4.26-6.52,23.35,6.17-9.15c1.74-2.59,2.75-7.15,4.32-10.33l3.63-7.35,2.38,4.56c7.31-8.77,32.26-7.41,35.01.25,2.67,7.45-8.79,13.94-14.15,16.04l-8.05,3.16c7.96,2.65,14.42,3.45,22.88,6.89-6.03,2.01-24.99.86-30.32-.79l-4.84,8.15c-1.55-3.31-.85-5.87-.45-8.64-1.14-.93-3.67-3.13-3.22-4.58.74-2.43,2.98-3.66,5.7-3.51l5.73-12.7c-3.22.11-6.47.74-9.65,1.62ZM545.78,430.81c3.51-2.44,6.69-4.26,10.84-7.4-4.15-1.83-8.29-1.38-12.13-.39l-4.2,11.59,5.49-3.81Z"/>
      <path class="cls-1" d="M485.1,418.83l-15.53.49-14.45,32.72c-.42.94-1.05,2.08-1.4,2.61-.45.66-2.77-.17-3.41-.73-.6-.53-.09-1.71.24-2.96.71-2.68,1.14-5.21,1.71-8.28,1.36-7.35,4.33-14.37,6.93-21.44l-15.15,2.35-.2-3.93c-.12-2.38,10.52-5.79,15.05-5.84l33.37-.34c1.38-.01,3.54.43,5.44.93-.64,4.21,1.1,6.96,3.23,10.22,5.68,8.72.96,19.35-7.58,23.92-5.61,3-11.48,4.82-17.79,2.3l-5.43-6.02c-1.38-6.14,3.6-15.52,7.7-19.3l7.27-6.71ZM489.72,440.63c2.48-1.31,5.13-2.94,5.59-5.3.89-4.51,1.19-8.2-1.85-12.51-6.13,3.25-11.08,8.2-14.25,14.59-.92,1.84-1.07,5.9,1.02,6.52,3.7,1.09,6.73-1.83,9.49-3.29Z"/>
    </g>
    <path class="cls-1" d="M316,440.37c-12.8-3.38-7.82,7.55-19.92,9.77l3.7-9.85-9.6.44c.26-2.17,1.78-2.67,3.77-3.01l8.39-1.44,13.86-17.87c3.09-3.98,7.19-7.33,12.28-9.7,2.76,10.93,5.99,6.33,2.16,13.59-1.6,3.04-3.27,6.56-4.16,10.25l-1.83,7.55-3.31,7.88c-1.67,3.98-1.44,8.39-6.94,10.48-.57-3.75-.51-7.03.14-10.41l1.46-7.66ZM317.16,435.25c.55-1.84,1.04-4.56,1.24-6.65-2.57,2.54-4.02,4.31-5.97,6.95,1.23.48,4.44.66,4.73-.3Z"/>
  </g>
</svg>