<?xml version="1.0" encoding="UTF-8"?>
<svg id="Capa_1" data-name="Capa 1" xmlns="http://www.w3.org/2000/svg" viewBox="0 0 1080 1080">
  <defs>
    <style>
      .cls-1 {
        fill: #fff;
      }
    </style>
  </defs>
  <path class="cls-1" d="M724.44,544.29c2.76,22.07-26.05,36.95-44.94,32.88-19.79-42.72-36.34-84.76-53.59-128.24-3.36-8.45-40.53-100.53-46.14-97.72-1.07.54-3.24,2.61-3.8,4.01l-47.95,119.98-12.16-84.87c-2.38.22-6.23,2.81-7.35,4.94l-19.69,37.4-55.73,112.13-51.17-99.16c-9.42-18.25-19.3-35.27-29.76-52.77l-4.67-2.68c-.99-.57-2.95,3.39-3.09,4.6l-12.35,102.41c-8.6-18.35-12.08-35.9-16.47-54.29-9.09-38.02-15.74-75.46-22.29-115.24l176.16-16.27c52.32-4.83,102.52-3.94,154.89.97l161.83,15.17-11.84,66.53c-7.04,39.52-16.93,77.37-29.78,116.39-9.75-10.87-16.99-19.44-26.61-27.44l-35.87-29.83c-8.15-6.78-14.76-17.46-15.25-28.07-1.01-21.97,19.37-35.4,39.83-32.02,15.95,2.63,27.42,14.07,27.55,30.17,11.52,5.4,9.89-31.53,9.6-38.93-30.08-7.91-65.78-4.39-90.51,15.78-14.67,11.96-18.19,30.46-8.86,47.06,5.6,9.97,13.23,18.99,21.65,27.04l42.16,40.37c7.9,7.57,14.75,17.91,16.23,29.7Z"/>
  <path class="cls-1" d="M356.96,453.96l34.12,67.82c10.93,21.72,21.27,41.57,38.81,61.88,25.5-45.02,41.46-85.36,68.61-131.24,13.09,89.14,14.62,63.67-15.19,142.33-18.64,26.4-29.63,19.38-34.43,24.63-.66.72,2.96,2.68,4.36,2.67l78.93-.35c.11-8.83-24.89-2.36-20.88-20.15,4.47-19.83,10.92-38.37,18.2-57.61l46.19-129.13,31.54,86.23c-19.65,5.19-38.44,8.27-54.39,20.19,21.59-3.22,40.47-7.11,61.9-1.22l36.75,90.97c-6.49,3.18-10.32,4.07-14.82,10.62l53.62,1.36c-38.51,58.82-90.6,103.41-150.38,141.58-87.14-54.17-155.67-125.34-192.9-221.79-1.7-25.67,4.35-59.19,9.95-88.8Z"/>
  <path class="cls-1" d="M546.13,821.64l13.66,38.11c13.78-10.05,33.57-14.6,48.85-4.25-9.76,16.56-29.23,18.19-46.35,14.95l1.98,23.94,6.52,7.61c.54,2.39-3.51,6.44-5.95,6.57-2.68.14-8.4-3.99-6.87-6.18,3.31-4.72,5.13-8.84,3.92-14.28-4.45-19.96-9.53-39.12-21.99-57.01-12.84,20.01-20.58,43.22-22.59,65.14,1.77,2.01,4.55,5.72,4.66,7.59.12,2.19-4.75,4.87-7.17,4.65-1.87-.17-4.48-2.89-5.81-5.05-1.09-1.77,3.04-4.55,5.2-6.83,1.94-8.17,2.79-17.7,3.4-25.92-17.53,2.84-37.15,1.43-45.8-15.35,15.29-10.29,33.47-5.49,47.98,4.26l13.95-37.64c-12.38-17.46-29.6-31.13-46.82-44.01-15.33-11.46-43.28-15.32-47.66,3.87,19.85.62,38.81,7.93,48.54,25.01,4.28,7.5,5.2,17.19,1.02,25.02-2.89,5.42-11.17,12.34-19.19,11.99l-20.11-.9c5.18,5.64,12.2,11.45,11.83,19.55s-8.92,12.12-14.66,13.25c-15.48,3.05-16.91-11.08-31.24-19.85-1.78-1.09-1.66-6.64.16-7.61s6.59-1.07,8.47-.02,1.06,5.31,1,8.51c-.12,6.79,10.26,12.5,16.91,10.1,17.53-6.34-24.91-40.26-30.72-45.32-12.51-10.88-23.14-22.98-31.52-37.41-16.16-27.83-29.11-57.47-32.87-90.2,9.53,27.83,18.74,54.45,36.58,78.22,17.41,23.2,38.33,42.37,63.59,56.9,9.66,5.55,27.27,7.4,33.65-2.25,3.31-5,3.49-13.33,1.29-17.91-17.75,3.63-35.77-3.25-44.94-17.51-6.73-10.46-1.74-21.83,8.81-26.69,13.63-6.28,28.76-4.43,42.97,1.18,21.95,8.65,37.44,25.28,51.23,45.78,18.71-31.16,57.15-60.3,92-47.9,5.42,1.93,10.66,6.81,12.43,10.77,2.35,5.26,1.47,12.62-1.93,17.56-9.8,14.21-27.9,20.47-44.69,16.88-5.3,9.89,0,21.04,11.02,23.99,7.65,2.05,17.55-.05,25.11-4.51,27.79-16.4,50.96-38.48,68.81-65.38,14.38-21.68,21.65-45.07,30.59-69.11-3.54,26.89-13,51.23-24.51,74.99-11.77,24.29-28.04,43.61-49,60.25-5.38,4.27-40.27,35.05-20.31,38.16,6.42,1,14.3-3.41,14.77-9.73.2-2.69-1.13-6.69.32-8.02,1.46-1.35,5.76-2.41,7.73-2.43,2.36-.02,5.2,6.42,3.28,7.84-16.35,12.1-17.47,22.61-31.87,20.97-5.74-.66-14.61-5.8-15.3-13.24-.77-8.33,6.53-13.15,12.23-19.85l-16.51,1.06c-9.34.6-18.38-3.98-22.37-10.83-4.61-7.9-4.21-17.99.45-26.19,9.46-16.67,27.93-24.25,47.39-25.17.51-5.63-4.55-10.22-9.93-11.77-13.69-3.94-26.34.28-37.43,8.35-16.94,12.33-32.48,25.6-46.16,43.33Z"/>
  <path class="cls-1" d="M138.44,348.8c1.76-11.59,15.3-17.74,24.96-12.75,6.56,3.38,8.61,12.31,10.96,18.68,4.66-9.9,9.84-19.29,19.85-22.76,14.97-5.19,29.87,4.3,35.38,18.82,5.85,15.43,2.97,32.29-6.91,45.65,1.87,1.38,6.99,2.58,9.2,1.79,13.23-4.77,19.42-16.82,19.49-30.24.12-23.62-4.17-46-13.1-68.01-26.02-3.24-50.74-12.22-73.34-24.02-3.34.18-9.89,1.8-11.97-1.61-.87-1.42-.88-5.8.56-6.34l8.57-3.19c-14.12-10.15-28.77-19.09-35.91-37.45,23.29-7.71,82.34,27.26,88.27,52.98-19.69,2.2-34.71-6.68-52.13-14.94l4.38,10.06c21.62,7.5,42.27,15.75,67.16,15.68-8.7-19.51-23.12-34.84-38.44-49.43-9.69-9.22-18.29-2.27-17.97-8,.13-2.39.57-4.76,1.41-6.21s6.54-1.6,7.87-.58c1.76,1.35,3.39,6.86,4.56,9,20.63,15.01,39.6,33.52,54.28,55.63,24.39-.91,47.06-6.81,69.87-15.37,10.94-4.1,20.18-12.83,22.97-24.14,1.23-4.99-.62-10.91-4.96-12.89-14.42,18.43-35.73,28.35-57.43,21.11-6.82-2.27-13.11-7.84-15.09-12.73-3.12-7.67-1.86-17.07,3.15-22.74l10.1-11.44c-8.7.19-16.78,2.01-23.63-1.78-6.1-3.38-6.5-12.23-4.35-18.81,1.63-5.03,9.21-9.77,15.99-10.31,14.84-1.19,22.25-6.27,24.7-2.54.9,1.37,1.1,5.13.71,6.73-1.83,7.49-13.83-2.66-18.47-1.92-3.64.58-9.27,3.76-11.02,6.73-.76,1.28-1.04,5.85-.35,7.1,4.22,7.65,34.09,1.07,42.76-1.27,20.88-5.63,41.12-9.22,63.15-7.93,35.2,2.07,69.37,8.97,101.06,23.68l-30.89-7.73c-45.33-11.34-91.69-8.47-135.18,8.42-14.46,5.61-32.95,16.54-26.92,33.21,1.68,4.66,8.07,9.04,14.73,10.8,3.38-11.17,10.48-17.32,20.69-22.45,10.51-5.28,27.45-7.16,35.06,4.07s1.08,27.61-8.52,36.59c-15.73,14.72-35.75,23.04-57.55,24.52l-24.24,1.65c14.42,27.04,20.43,67.67.24,90.42-7.46,8.41-18.63,14.21-29.14,9.91-11.92-4.87-15.22-17.65-14.26-29.31.88-10.64,5.3-19.27,13.43-24.79-5.95-8.71-18.48-11.98-26.63-5.12-26.05,21.95.89,106.77,22.39,135.05l27.53,36.2c-22.08-17.96-38.89-40.01-53.4-63.95-12.35-20.39-19-41.73-22.37-65.16-1.31-9.06-7.11-40.84-18.96-37.9-7.96,1.97-6.61,12.82-4.88,18.34.62,1.97,5.16,2.88,7.72,4.02,1.83.82,1.87,6.79.35,8.11-1.77,1.53-6.2,1.42-8.98.54-2.25-.71-.71-6.81-1.16-9.22-1.15-6.21-6.57-12.6-5.37-20.47Z"/>
  <path class="cls-1" d="M939.05,342.88c5.68,9.68-.9,18.34-2.73,26.59-.47,2.14.61,7.9-1.32,8.87s-6.28.83-8.84-.01c-2.05-.67-2.3-6.88-.27-7.71,6.53-2.7,9.79-5.12,9.73-13.14-.03-3.68-2.77-8.39-6.38-9.73-11.93-4.42-17.88,30.2-19.2,38.64-3.19,20.42-8.3,39.34-18.5,57.54-16.3,29.08-36.77,54.74-62.33,75.03l22.19-26.6c26.48-31.75,40.52-70.22,43.13-111.55.91-14.34-.47-38.34-17.5-40.88-7.83-1.17-14.79,1.82-19.61,8.23,7.67,5.32,11.23,12.12,13.15,21.08,2.81,13.13-1.11,28.32-14.66,33.51-10.89,4.18-21.19-2.66-28.7-10.89-8.3-9.1-11.1-21.75-12.23-34.49-1.71-19.27,4.71-37.12,12.93-55.39l-23.72-1.42c-26.8-1.6-66.58-18.96-70.08-46.93-1.55-12.44,7.26-21.98,19.79-22.31,17.44-.47,33.69,9.8,39.87,25.99,8.96-1.79,15.95-8.1,15.3-17.27-2.52-35.73-107.31-47.28-145.79-38.41l-49.44,11.39c31.52-13.81,64.88-21.23,99.47-23.45,21.87-1.4,41.72,1.03,62.46,6.97,9.77,2.8,39.29,9.35,45.84,2.62,1.43-1.47,1.13-6.51-.08-8.19-4.18-5.83-12.86-8.71-18.29-3.99-2.21,1.92-6.41,2.67-8.69,1.51s-3.15-6.79-1.14-8.68,6.68-.39,10.03.45c11.18,2.8,28.7.86,31.1,15.55,1.21,7.38-1.27,15.8-9.91,17.63-5.19,1.1-12.39.31-18.62.16,6.34,7.08,13.5,14.02,14.57,23.52,1.34,11.83-8.07,20.93-19.13,23.9-21.24,5.71-41.88-4.46-55.09-22.24-4.65,1.89-6.12,7.83-4.75,13.13,3.6,13.95,14.71,22.14,27.93,26.48,21.16,6.96,41.82,12.27,64.58,13.26,15.11-22.63,33.96-40.96,55.78-56.56.34-4.04,1.71-9.12,5.81-8.94,3.38.15,7.69,2.83,7.08,6.75-.72,4.61-8.21,3.43-11.37,3.87-18.61,13.8-34.62,32.48-45.8,54.17,24.07.6,46.23-7.31,67.42-15.99l4.89-9.71c-5.84,5.19-61.7,26.82-50.62,9.17,11.38-18.14,28.85-30.45,48.05-39.51,12.39-5.85,24.38-10.08,38.48-7.82-6.87,17.96-21.29,26.84-35.52,37.69,3.32,1.47,6.61,2.87,8.1,4.17s.31,6-1.11,7.4-7.54-1.1-10.23.14c-19.23,8.98-48.56,20.92-73.76,23.57-8.21,21.7-12.02,42.15-13.39,64.63-.66,10.84,3.92,21.76,11.34,28.76,5.08,4.81,11.81,6.65,17.7,3.3-10.19-15.14-13-34.15-4.89-49.79,7.38-14.25,24.62-21.48,38.25-12.75,6.76,4.33,10.56,12.19,14.98,19.38,2.74-5.94,5.22-13.51,10.08-17.03,7.41-5.37,19.23-1.2,23.67,6.35Z"/>
  <path class="cls-1" d="M389.27,688.45c-4.08-20.61-23.78-35.13-44.61-35.55l-6.27,27.83c2.82-.57,7.05-1.16,9.42-.62s3.92,5.88,2.36,7.77c-1.97,2.4-4.75,4.66-6.51,3.64-2.78-1.62-5.11-5.63-6.03-9.06-10.65,20.09-24.98,46-48.48,54.97-8.45,3.23-14.89-2.09-17.48-9.89-14.1,10.24-27.72,19.92-44.73,20.61,1.67-17.18,12.59-29.82,22.05-41.93-4.33-2.34-8.24-4.52-9.96-6.5-6.1-7.04,5.12-21.21,11.74-27.2,21.79-19.73,47.78-31.7,77.71-35.09-2.22-17.54-11.61-31.97-26.86-39.3-20.94-10.07-42.03-2.12-42.5,7.97-.39,8.39,20.56,17.49,29.71,17.48,4.67,0,10.22-5.22,13.65,1.13,1.1,2.03-1.54,6.61-4.09,7.55-3.3,1.21-6.53-3.29-9.44-4.8-8.46-4.39-35.18-7.42-35.38-23.11-.18-14.61,26.99-27.36,56.71-11.92,18.07,9.39,31.28,24.61,33.91,45.67,28.47,2.41,50.31,25.06,55.62,52.68l21.15,7.19c6.08,2.07,13.97,7.25,15.59,13.74,1.91,7.63-5.5,16.2-12.33,17.81-10.02,2.37-19.9-1.86-25.27-9.57,6.05,1.88,21.39,7.28,22.86-1.92,1.3-8.16-14.24-15-21.25-18.98-4.14,10.25-7.5,22.76-19.61,24.04-15.46,1.63-22.58-20.75-23.7-32.07,4.66,8.1,9.41,27.86,20.46,27.07,8.37-.6,13.28-14.99,12.93-22.94l-15.73-7.08,14.35.4ZM274.96,725.07c-.17,2.64,2.69,7.82,5.04,8.43,2.66.7,6.86-.07,10.45-.94,19.94-15.09,37.56-54.75,38.03-80.64-27.61,1.72-70.97,16.44-85.74,39.5-1.72,2.69.72,8.73,3.4,10.23s6.9.58,9.67-2.05c13.03-12.37,36.34-31.03,55.98-30.74-2.7,23.13-22.13,41.5-36.83,56.21Z"/>
  <path class="cls-1" d="M742.01,681.92l-7.1-29.22c-21.22.89-39.66,15.47-44.82,36.05l15.28-.79-15.67,6.88c-.26,7.24,1.58,14.55,6.33,20.33,3.17,3.87,10.98,3.51,14.13-.62,4.92-6.45,7.86-13.1,11.55-20.33-.68,8.09-3.67,15.6-8.32,22.04-5.71,7.9-17.05,9.4-24,2.03-5.01-5.32-7.08-11.28-10.03-19.23-6.3,3.69-23.7,11.32-21.41,19.16,2.52,8.63,16.02,4.7,24.46.44-4.09,5.18-10.46,9.74-17.76,11.27-10.82,2.26-21.89-5.78-21.45-16.87.47-11.79,25.4-19.24,36.17-21.53,5.98-27.43,26.16-50.01,55.89-53.46,3.51-20.9,16.53-36.57,35.26-46.22,27.03-13.92,54.73-3.01,55.89,10.95,1.24,14.95-23.21,20.56-34.66,23.66l-5.8,5.51c-1.42,1.34-7.26-.53-8.22-2.22-1.28-2.25.84-7.53,3.18-8.17,3.8-1.03,16.38,9.28,38.5-11.18,3.13-2.9.03-9.71-3.17-11.73-10.17-6.42-22.24-7.01-33.22-2.74-17.41,6.77-30.04,22.02-31.2,41.28,34.21,5.04,65.65,19.5,86.66,46.15,2.82,3.57,3.84,10.46,2.92,14.68-.73,3.33-6,6.12-10.78,8,10.35,12.73,19.72,24.1,22.43,41.22-14.38,2.79-33.02-12.06-44.87-19.13-2.61,4.12-5.62,8.96-8.84,9.67-21.42,4.75-49.68-37.44-56.63-55.75-1.18,4.34-4,8.34-7.12,9.5-2.4.89-7.01-4.38-6.59-6.97.96-5.97,8.17-5.91,13.03-2.66ZM767.78,669.27c19.73-2.16,45.95,20.52,58.24,32.14,2.52,2.38,8.76.44,10.66-2.68,1.42-2.34.3-6.73-1.04-10.58-17.89-20.64-55.68-34.12-84.14-36.33-3.26,20.49,30.22,94.71,49.75,80.76,1.83-1.3,3.95-6.96,2.2-8.78l-14.76-15.42c-10.63-11.11-17.93-23.16-20.92-39.11Z"/>
  <path class="cls-1" d="M889.28,599.5c3.3-2.84,1.95-13.1-1.41-14.78-3.53-1.76-8.76-4.54-11.55-5.19-20.56-4.73-42.7-7.18-57.02-22.61-5.46-5.88-4.01-14.22,2.04-18.83,6.93-5.28,16.2-8.27,25.13-6.47-5.81,2.89-14.56,2.43-16.97,10.21-3.96,12.74,38.39,32.27,47.7,34.82l7.28-4.5c1.76-1.08,6.84,2.46,6.59,4.66-1.78,15.91,7.02,14.89,2.69,24.16-9.79,20.97-106.21-9.38-117.51-65.11-4.53-22.33,5.88-43.1,22.15-58.22-3.21-9.94-6.01-19.15-6.18-28.61-.17-9.54,6.17-15.69,15.58-15.16,4.78.27,11.29,2.14,13.89,5.09,5.55,6.3,6.09,18.8,2.62,27.03l-3.27-15.78c-.82-3.96-10.78-6.96-13.03-3.06-4.26,7.39-4.16,17.29-2.2,25.46,9.06-1.59,17.7-3.26,25.77-1.04s10.86,10.54,8.05,17.47c-3.95,9.74-10.63,17.41-18.62,23.21,5.32-8.61,18.77-22.26,13.79-31.04-4.09-7.22-22.81-3.6-25.92,1.42-4.62,7.47,1.29,13.44,6.6,17.54,2.45,1.89-1.13,7.88-3.68,8.1-15.48,1.3.6-14.47-10.45-20.62-16.1,16.14-16.73,40.14-4.34,59.45,16.71,26.04,43.59,44.97,73.37,54.19,5.93,1.84,13.66,2.73,18.9-1.79Z"/>
  <path class="cls-1" d="M189.66,598.29c3.57,5.41,11.97,5.27,17.63,3.59,30.55-9.03,57.69-27.74,75.2-53.96,12.61-18.89,12.58-43.49-3.21-59.09-13.23,3.95,5.22,20.23-10.54,19.43-2.65-.14-7.59-5.55-4.79-7.57,5.43-3.92,12.01-11.81,6.97-18.43-4.21-4.29-19.67-7.71-25.01-2.07-6.87,7.25,5.56,21.14,9.96,28.86-7.36-5.17-19.19-19.12-16.08-29.89,3.24-11.22,22.07-9.52,34.42-6.42.35-5.74,2.96-27.26-5.71-27.63-12.35-.53-10.45,13.73-13.37,20.69-2.32-7-2.88-15.45.35-22.82,2.93-6.66,10.09-9.28,16.41-9.23,6.13.05,13.69,3,15.19,10.69,2.14,10.97-2.15,22.19-5.79,33.08,24.5,22.66,32.51,55.02,10.6,83.31-31.22,40.31-97.72,57.71-105.56,40.23-4.32-9.63,4.69-11.08,2.53-22.94-.36-1.96,2.6-5.72,4.56-5.98,2.11-.27,5.37,2.06,8.31,4.75,7.31-.54,60.15-26.16,47.71-37.82-4.13-3.87-10.35-5.44-15.54-7.47,11.06-1.35,24.23,2.17,29.21,12.54,3.6,7.49-3.28,14.7-9.36,18.83-14.69,9.96-31.99,12.6-49.47,16.39-3.48.76-9.38,3.94-12.81,5.64-2.82,1.4-3.71,10.4-1.81,13.28Z"/>
  <path class="cls-1" d="M540.42,226.32c-8.69-7.08-11.22-17.2-13.03-27.33-4.05-22.56-2.95-46.06,7.7-66.51.75-1.44,3.05-3.59,4.26-4.14s4.63,1.93,5.35,3.3c12.23,23.34,15.92,70.56-4.27,94.68Z"/>
  <path class="cls-1" d="M545.67,946.22c-.86,1.94-3.68,4.72-4.98,5.36-6.73,3.28-27.18-44.24-6.45-91.36.74-1.68,3.71-4.51,5.25-4.94,7.57-2.1,26.18,45.99,6.19,90.94Z"/>
  <path class="cls-1" d="M415.62,281.21c36.73-39.77,100.39.52,110.73-16.18,3.25-5.24,3.83-16.82.39-20.9-2.3-2.71-4.2-4.91-5.36-6.45s3.49-5.88,5.39-5.74c2.38.17,6.55,1.54,7.4,3.11s-.92,4.99-2.12,7.41l4.54,16.5c1.01,3.68-.11,11.43-2.88,13.92-3.01,2.71-8.01,4.26-13.01,5.74l-54.43-4.5c-17.71-2.48-33.85.37-50.65,7.09Z"/>
  <path class="cls-1" d="M663.85,281.55c-33.45-15.92-61.19-3.55-105.33-3.49-5.88,0-13-3.73-14.76-9.5-2.37-7.76,2.3-18.1,3.59-24.74.45-2.32-2.87-7.5-1.34-9.06,1.73-1.78,5.96-3.03,8.19-2.76s5.38,5.89,3.66,7.28c-10.34,5.02-7.07,22.72-3.49,26.74,9.11,10.22,37.06-4.93,68.21-2.75,15.45,1.09,31.25,4.91,41.27,18.29Z"/>
  <path class="cls-1" d="M631.27,217.45c8.71-4.86,23.87-5.01,29.43,6.66,8.01,16.82-80.17,49.01-98.2,14.18-4.75-9.17-4.87-21.17.7-29.81,1.05,21.81,13.93,35.11,34.31,34.96,16.51-.12,32.52-4,47.46-11.37,2.82-1.39,7.25-8.61,5.16-10.81-4.27-4.48-11.41-2.63-18.86-3.81Z"/>
  <path class="cls-1" d="M419.61,223.29c7.16-11.63,23.08-10.75,31.68-3.87-7.48-.3-15.5-4.59-21.41,1.98-2.09,2.32,2.04,9.22,5.45,10.9,15.75,7.75,33.28,11.88,50.67,10.87,19.71-1.14,29.87-15.4,30.67-35.89,4.62,8.15,4.64,18.2,2.31,27.22-2.56,9.91-12.97,16.65-23.21,18.13-39.89,5.77-83.19-17.94-76.17-29.34Z"/>
  <path class="cls-1" d="M835.59,446.83c-1.82-5.18-6.51-9.9-9.93-12.2-1.57-1.05-.49-7.3,1.33-7.55l8.57-1.17-11.66-11.98c-9.73-10-16.49-23.45-13.31-37.32,9.22,33,22.37,30.52,45.55,48.81,6.69,8.74,10.74,21.85,1.85,29.89-7.32,6.62-19,1.23-22.41-8.48ZM851.17,440.9c-4.09-4.72-8.62-8.81-12.48-11.77-1.85,4.2-4.67,7.94-3.75,9.83,2.36,4.82,7.2,13.14,13.86,11.53,2.38-.57,4.03-7.69,2.37-9.6Z"/>
  <path class="cls-1" d="M254.21,434.02c-11.11,6.79-7.93,18.47-19.51,23.21-3.67,1.5-10.96,1.19-13.61-2.23-8.6-11.11-3.09-26.22,7.8-33.36l19.18-12.58c11.82-7.75,18.14-19.25,20.4-32.97,3.8,13.41-1.74,26.37-10.75,35.97l-13,13.87,8.77,1.95c1.6.36,2.11,5.11.71,6.14ZM237.27,449.66c3.59-3.53,7.36-8.85,8.04-11.75l-3.9-9.25c-4.2,4.39-18.02,11.72-12.8,19.86,1.09,1.71,7.07,2.7,8.66,1.14Z"/>
  <path class="cls-1" d="M378.3,225.11l-10.78,27.52c-6.34,16.19-18.3,31.48-36.04,34.44,12.76-7.72,22.8-18.61,24.44-34.08l4.35-21.21c4.21-11.53,13.84-19.95,27.14-18.68,2.58.25,6.81,2.66,8.22,4.56,5.46,7.37-3.56,21.73-13.17,25.4l6.8-11.5c1.23-2.08.86-7.03-.79-8.52-1.88-1.7-9.12-.6-10.17,2.08Z"/>
  <path class="cls-1" d="M714.39,257.12l-12.4-30.82c-.92-2.29-5.58-4.51-7.91-4.34-3.36.24-5.68,5.96-3.84,9l7.58,12.49c-9.31-3.6-19.97-18.68-12.43-27.08s24.34-.78,31.73,8.32c10.38,30.13.91,40.84,29.88,61.82-15.38-2.75-26.7-14.66-32.62-29.38Z"/>
  <path class="cls-1" d="M428.84,159.67c-3.05-.28-7.8,1.26-10.09,3.56-9.14,9.15,36.05,34.21,42.47,38.31-14.71-2.14-57.17-16.91-59.28-33.74,2.36-12.35,14.76-18.94,26.17-13.98,15.18,6.6,23.5,25.13,16.41,23.82-8.73-1.61-15.34-9.01-15.69-17.97Z"/>
  <path class="cls-1" d="M234.64,545.87c-9.38,17.79-49.75,18.59-58.72,2.21,16.24-15.6,42.37-17.22,58.72-2.21Z"/>
  <path class="cls-1" d="M903.48,548.29c-9.16,16.3-49.14,15.03-58.44-2.25,16.58-15.02,43.35-14.06,58.44,2.25Z"/>
  <path class="cls-1" d="M619.27,201.44c8.26-6.57,47.15-25.25,41.98-37.5-1.37-3.25-7.28-4.8-11.04-3.64.91,9.27-7.91,18.76-18.14,16.18,3.58-14.28,19.94-27.94,33.91-23.09,4.68,1.62,11.16,7.61,11.33,14.62.39,15.64-43.5,30.91-58.05,33.43Z"/>
  <path class="cls-1" d="M595.85,756.36c11.47-10.39,27.93-13.05,43.89-9.91l34.93,6.87c1.77.35,5.81-1.41,7.16-2.41,1.62-1.21,1.65-7.39-.27-8.33-5.01-2.44-13.66-1.98-21.55-1.7,5.76-4.21,29.15-7.94,32.92,5.38.6,2.12-.88,7.22-2.44,8.96-8.21,9.19-20.82,12.37-32.23,7.77l-18.99-7.65c-14.26-5.75-27.44-4.45-43.43,1.01Z"/>
  <path class="cls-1" d="M420.88,750.29c16.19-4.22,47.82-9.81,60.44,4.75-32.1-8.59-34.82-.2-61.79,8.52-10.69,3.45-21.13.62-29.28-7.02-2.17-2.03-3.77-7.56-3.13-10.61,2.65-12.72,27.85-9.37,33.34-5.05l-17.28-.11c-2.07-.01-6.04,2.88-6.44,4.85-.46,2.3,2.79,7.61,5.28,7.47,6.76-.37,12.93-1.26,18.86-2.8Z"/>
  <path class="cls-1" d="M184.96,507.79c4.37,14.06,19.06,6.69,23.64,8.79,1.67.77,2.24,5.78,1.13,7.25-.98,1.3-5.2,2.89-6.78,2.5-1.9-.46-4.27-3.49-6.38-4.7-6.73-3.87-14.59-6.4-19.84-12-5.78-6.17-3.14-14.65,1.24-20.43,14.26-18.82,53.82,22.09,59.82,31.02-13.38-6.29-38.89-25.99-50.48-21.08-1.86.79-3.01,6.49-2.34,8.65Z"/>
  <path class="cls-1" d="M835.67,656.7c6.3,7.64,11.64,7.78,20.45,3.39,2.08-1.04,4.34-7.2,2.83-9.1-2.76-3.48-11.22-6.58-16.08-6.71l-40.71-1.12c14.81-4.88,62.1-16.66,69.86,1.44,1.92,4.47.07,11.46-3.02,15.54-5.62,7.42-15.49,7.64-24.31,5.41-9.22-2.33-15.35,3.16-17.67-1.51-.77-1.55-.62-5.14.07-6.73.83-1.91,7.2-2.28,8.58-.6Z"/>
  <path class="cls-1" d="M304.98,565.09c3.76,9.22,47.88,7.39,43.67,57.97-14.31-43.34-51.26-29.63-50.53-55.55.24-8.64,6.75-17,15.95-19.15l-7.84,9.7c-1.02,1.27-1.84,5.54-1.24,7.02Z"/>
  <path class="cls-1" d="M871.29,516.86c3.67-3.98,19.55,6.59,23.91-9.6.53-1.96-.64-7.04-2.29-8.15-8.99-6.1-38.14,15.26-49.61,20.21,8.27-11.76,44.05-47.72,58.89-30.03,4.61,5.49,6.32,14.55.44,21.04-4.77,5.27-12.81,7.9-19.39,10.58l-4.71,4.97c-1.15,1.21-6.15-.2-7.59-1.19-1.52-1.05-1.08-6.3.34-7.84Z"/>
  <path class="cls-1" d="M224.24,660.44c12.31,8.66,18.56-4.98,23.84-5.24,3.15-.15,6.75,4.72,5.54,7.39-2.76,6.08-8.88,1.77-12.8,2.27-9.05,1.16-18.1,3.89-26.33-1.36-5.6-3.57-7.97-10.57-7.2-17.01,2.51-20.74,57.72-8.2,70.86-3.24-11.76,1.58-53.51-2.92-57.52,8.71-.72,2.08,1.47,6.97,3.6,8.47Z"/>
  <path class="cls-1" d="M730.97,621.77c-2.75-49.86,39.37-46.59,43.88-56.85.6-1.38-.21-5.57-1.19-6.86l-7.29-9.55c6.67,1.95,12.73,7.67,14.43,14.12,1.6,6.1.05,16.15-6.25,19.51l-25.32,13.47c-8.18,6.35-12.48,15.14-18.26,26.16Z"/>
  <path class="cls-1" d="M317.71,732.94l.38,12.44c.06,2.1,1.78,5.89,3.13,7.3,1.57,1.65,7.71,2.8,9.36,1.15,5.41-5.45,5.87-14.96,6.33-22.34l1.81-29c5.41,13.24,20.1,67.47-8.88,64.33-6.65-.72-13.78-4.26-15.81-10.97-2.39-7.89-.41-16.15,3.68-22.89Z"/>
  <path class="cls-1" d="M761.91,732.68c3.2,4.7,5.53,13.24,4.77,20.19-.81,7.39-7.34,11.95-12.73,13.28-6.54,1.62-16.89.6-18.84-7.18-4.76-18.96-.86-38.93,6.42-56.67,1.33,11.07-1.39,47.96,8.65,52.33,2.04.89,7.42-.89,8.99-2.77,4.25-5.1,2.24-10.48,2.75-19.18Z"/>
  <path class="cls-1" d="M644.29,254.46c13.2.56,24.44,4.17,36.9,8.18l14.91,2.43c-1.81-8.46-10.08-14.01-17.43-11.87-2.74.8-6.82,4.49-10.7,3.81-2.65-.46-4.01-6.32-2.67-8.35,3.91-5.95,9.04.03,17.28.65,10.02.76,18.83,3.79,23.55,13.55,1.31,2.7.48,9.2-1.2,11.59-1.89,2.68-9.8,4.31-13.22,2.68l-47.41-22.67Z"/>
  <path class="cls-1" d="M436.35,254.03l-34.29,16.61c-7.49,3.63-21,11.33-27.47,3.35-2.07-2.56-2.64-8.44-.84-11.6,7.47-13.13,17.6-11.17,35.21-16.16,1.92-.54,6.27,1.83,6.47,3.75.21,2.02-1.18,6.25-3.04,6.72-2.7.69-6.57-.99-9.33-2.65-6.73-4.06-18.07,1.32-18.92,11.15,18.64-1.68,32.89-10.59,52.2-11.16Z"/>
  <path class="cls-1" d="M606.95,206.22c-9.45.75-20.61-1.31-30.4-5.93-15.69-7.39-22.14-24.22-15.21-40.26,4.88-11.3-3.38-15.45,4.26-17.96,2.09-.69,5.93.7,7.53,2.18,3.65,3.4-2.47,6.62-3.84,9.1-6.94,12.58.19,28.16,9,38.5,8.97,5.9,16.86,9.45,28.66,14.37Z"/>
  <path class="cls-1" d="M473.25,205.88c24.54-8.72,44.81-20.42,38.71-51.85l-6.5-5.55c-1.39-1.19,1.9-5.71,3.66-6.2,2.06-.58,6.16-.15,7.78,1.24s.39,7.19-.29,9.81c6.39,13.67,7.74,31.69-6.05,42.1-10.12,7.64-22.79,11.89-37.32,10.46Z"/>
  <path class="cls-1" d="M179.36,327.54c-1.65,2.92-6.54,4.97-8.69,2.88-10.75-10.46-9.9-32.12,2.75-40.01,12.6,6.21,12.64,25.31,5.94,37.13Z"/>
  <path class="cls-1" d="M913.08,296.84c6.18,12.91,4.48,27.12-6.75,35.46-12.29-4.04-13.93-35.39-.96-41.38,2.09-.97,6.59,3.56,7.71,5.92Z"/>
  <path class="cls-1" d="M504.92,215.91c-6.84,15.38-27.91,23.58-42.86,15.87,6.45-15.87,29.15-25.13,42.86-15.87Z"/>
  <path class="cls-1" d="M618.88,193.86c-19.57,3.69-35.56-12.15-41.26-29.78,12.24,11.35,24.35,23.23,41.99,21.52-5.09-21.14-22.18-5.53-23.29-17.7-.24-2.69,4.85-5.67,7.08-5.36,2.77.39,4.75,3.27,6.63,6.5l11.88,8.2c2.23,1.54,4.67,6.85,4.37,9.57-.28,2.58-4.55,6.51-7.41,7.05Z"/>
  <path class="cls-1" d="M502.07,164.69c-1.84,7.09-6.94,13.96-12.65,19.66-12.55,12.52-31.43,13.19-35.3,3.95-.81-1.93.07-7.89,1.91-9.24l13.21-9.69c3-2.2,4.21-6.85,7.7-6.93,2.69-.06,7.42,3.7,6.64,6.24-3.69,12.14-13.18-5.39-24.18,16.52,18.22,3.25,28.89-8.98,42.67-20.53Z"/>
  <path class="cls-1" d="M617.19,231.94c-15.47,8.02-36.03-1.57-42.13-16.79,15.41-7.9,36.41,1.28,42.13,16.79Z"/>
  <path class="cls-1" d="M870.14,238.49c-15.29,8.72-34.85.19-43.3-15.81,15.69-7.7,34.85-.5,43.3,15.81Z"/>
  <path class="cls-1" d="M253.04,222.56c-8.27,15.88-26.34,23.71-43.23,16.84,6.76-15.99,26.99-24.94,43.23-16.84Z"/>
  <path class="cls-1" d="M717.3,796.96l4.48,7.75c1.08,1.86-3.42,6.09-5.63,5.88-1.84-.18-4.64-1.77-6.71-3.67-1.59-1.46,2.32-5.76,2.42-7.99,1.36-28.82,4.56-15.36,12.71-44.04,9.76,23.24-10.7,36.14-7.27,42.08Z"/>
  <path class="cls-1" d="M720.97,172.33c-16.81,11.83-23.6,5.98-44.3,13.49,14.7-21.5,38.41-9.41,41.54-18.12,1.27-3.54,4.32-8.25,7.45-7.81,5.1.72,7.61,4.48,5.67,9.49l-10.35,2.95Z"/>
  <path class="cls-1" d="M368.21,798.94c.23,2.56,3.03,8.25,1.24,9.72-2.16,1.78-8.4,2-10.18-.08-2.25-2.62.17-7.02,3.36-10.08,3.08-10.85-18.78-21.76-7.13-43.08,8.82,29.25,10.05,13.84,12.71,43.53Z"/>
  <path class="cls-1" d="M403.27,185.82c-20.2-7.12-28.2-2.03-43.37-12.94l-10.3-3.17c-1.81-.56-1.62-6.97.04-7.92s4.83-1.53,6.89-1.37c2.22.18,3.37,6.57,4.78,8.34,15.28,7.1,27.52-2.1,41.95,17.06Z"/>
  <path class="cls-1" d="M201.39,478.45c-28.4-6.38-19.68-18.92-37.95-33.08,19.81,1.06,22.01,19.02,37.95,33.08Z"/>
  <path class="cls-1" d="M700.78,607.35c-7.9-2.26-11.44-8.66-13.33-15.7l25.98-7.94-12.65,23.64Z"/>
  <path class="cls-1" d="M915.1,445.47c-15.61,16.25-12.01,27.52-36.04,32.86,14.14-12.91,16.87-30.81,36.04-32.86Z"/>
  <circle class="cls-1" cx="539.94" cy="792.95" r="6.16"/>
  <circle class="cls-1" cx="844.71" cy="618.67" r="6.13"/>
  <circle class="cls-1" cx="870.25" cy="415.53" r="6.01"/>
  <circle class="cls-1" cx="255.59" cy="271.9" r="6.03"/>
  <circle class="cls-1" cx="824.29" cy="271.91" r="5.99"/>
  <circle class="cls-1" cx="760.76" cy="175.99" r="5.99"/>
  <path class="cls-1" d="M376.1,740.99c-3.64-.07-6.48-4.5-5.6-6.87.94-2.54,6.06-5.23,8.64-3.71,2.1,1.23,4.38,4.75,4.19,6.54-.18,1.79-4.22,4.1-7.24,4.04Z"/>
  <circle class="cls-1" cx="220.47" cy="316.48" r="5.92"/>
  <path class="cls-1" d="M321.69,567.35c-2.55.27-6.16-.37-7.21-1.52-1.26-1.38-1.25-5.73.03-7.1s5.85-2.38,7.49-1.49c1.73.95,4.03,3.54,4.55,5s-3.17,4.93-4.85,5.1Z"/>
  <path class="cls-1" d="M760,567.78c-3.38-.39-6.42-3.68-6.23-5.52.21-2.14,4.05-5.96,6.36-5.72,2.97.31,6.68,3.35,6.72,5.44s-3.75,6.15-6.85,5.8Z"/>
  <path class="cls-1" d="M752.11,223.52c-2.58-.47-5.56-4.01-5.24-5.95s3.49-4.84,5.95-5.19c2.7-.38,7.08,3.16,7.17,5.56.11,2.69-4.46,6.2-7.88,5.58Z"/>
  <circle class="cls-1" cx="326.51" cy="217.96" r="5.99"/>
  <circle class="cls-1" cx="471.43" cy="878.63" r="5.96"/>
  <circle class="cls-1" cx="717.47" cy="287.78" r="5.94"/>
  <circle class="cls-1" cx="362.46" cy="287.84" r="5.91"/>
  <circle class="cls-1" cx="662.81" cy="782.89" r="5.93"/>
  <circle class="cls-1" cx="417.07" cy="782.88" r="5.91"/>
  <circle class="cls-1" cx="686.69" cy="826.8" r="5.95"/>
  <path class="cls-1" d="M672.35,216.18c-3.65-.08-7.19-3.34-6.99-5.48s3.87-5.96,5.94-5.85c3.04.16,6.54,2.27,7.05,4.2.61,2.33-2.44,7.22-6,7.14Z"/>
  <circle class="cls-1" cx="209.55" cy="415.48" r="5.85"/>
  <circle class="cls-1" cx="778.29" cy="745.27" r="5.82"/>
  <circle class="cls-1" cx="273.42" cy="532.27" r="5.91"/>
  <circle class="cls-1" cx="301.55" cy="745.31" r="5.95"/>
  <circle class="cls-1" cx="859.5" cy="316.51" r="5.85"/>
  <circle class="cls-1" cx="407.74" cy="210.51" r="5.82"/>
  <circle class="cls-1" cx="508.49" cy="826.21" r="5.9"/>
  <circle class="cls-1" cx="319.11" cy="176.09" r="5.91"/>
  <circle class="cls-1" cx="806.42" cy="532.26" r="5.83"/>
  <circle class="cls-1" cx="446.35" cy="734.27" r="5.84"/>
  <circle class="cls-1" cx="393.13" cy="826.83" r="5.89"/>
  <circle class="cls-1" cx="703.05" cy="735.67" r="5.86"/>
  <circle class="cls-1" cx="608.49" cy="878.57" r="5.86"/>
  <circle class="cls-1" cx="571.3" cy="826.15" r="5.85"/>
  <circle class="cls-1" cx="633.47" cy="734.43" r="5.87"/>
  <circle class="cls-1" cx="234.96" cy="618.68" r="5.89"/>
  <path class="cls-1" d="M159.09,403.66c-2.43-.14-6.47-1.48-7.13-2.86-.8-1.67,2.94-6.07,4.84-5.97s5.21,1.54,6.44,2.62-2.16,6.33-4.15,6.21Z"/>
  <circle class="cls-1" cx="922.16" cy="399.35" r="4.94"/>
</svg>