<?xml version="1.0" encoding="UTF-8"?>
<svg id="Capa_1" data-name="Capa 1" xmlns="http://www.w3.org/2000/svg" viewBox="0 0 640.49 636.59">
  <defs>
    <style>
      .cls-1 {
        fill: #fff;
      }
    </style>
  </defs>
  <path class="cls-1" d="M53.65,268.64h14.55v66.12l-26.68-15.44v48.63h-14.55v-54.89h3.83l-3.83-2.17-3.7-2.17v-15.83l3.7,2.04v-26.3h26.68ZM53.65,310.38v-27.19h-12.13v20.17l12.13,7.02Z"/>
  <path class="cls-1" d="M102.54,268.64h14.55v99.31h-14.55v-39.19h4.47l-.26-.13-4.21-2.43-12.13-7.02v48.76h-14.55v-99.31h26.68ZM102.54,310.25v-27.06h-12.13v20.04l12.13,7.02Z"/>
  <path class="cls-1" d="M151.43,268.64h14.55v41.36l-7.02,3.96,7.02,4.08v49.91h-41.23v-99.31h26.68ZM151.43,310.25v-27.06h-12.13v20.04l12.13,7.02ZM151.43,328.76h4.47l-.26-.13-4.21-2.43-12.13-7.02v34.21h12.13v-24.64Z"/>
  <path class="cls-1" d="M214.87,342.04v25.91h-41.23v-99.31h14.55v84.76h12.13v-19.66l14.55,8.3Z"/>
  <path class="cls-1" d="M263.76,283.19v84.76h-41.23v-99.31h41.23v14.55ZM249.21,353.4v-70.21h-12.13v70.21h12.13Z"/>
  <path class="cls-1" d="M324.91,299.53v-16.34h-12.13v70.21h12.13v-43.14l14.55,8.43v49.27h-41.23v-99.31h41.23v30.89h-14.55Z"/>
  <path class="cls-1" d="M388.35,268.64v99.31h-14.55v-39.19h4.47l-.26-.13-4.21-2.43-12.13-7.02v48.76h-14.55v-99.31h14.55v34.59l12.13,7.02v-41.61h14.55Z"/>
  <path class="cls-1" d="M415.53,321.23l-3.83-2.17v48.89h-14.55l.13-15.19v-39.32h4.34l-4.47-2.55v-.13l-3.7-2.17v-15.83l3.7,2.04v-26.17h14.55v34.59l3.83,2.17v15.83Z"/>
  <path class="cls-1" d="M464.3,342.04v25.91h-41.23v-99.31h14.55v84.76h12.13v-19.66l14.55,8.3Z"/>
  <path class="cls-1" d="M513.18,342.04v25.91h-41.23v-99.31h14.55v84.76h12.13v-19.66l14.55,8.3Z"/>
  <path class="cls-1" d="M567.18,311.02v14.55h-46.34v-14.55h46.34Z"/>
  <path class="cls-1" d="M617.22,268.64v30.76h-14.55v-16.21h-12.13v20.17l14.81,8.55v15.83l-14.81-8.55v34.21h12.13v-19.66l14.55,8.3v25.91h-41.23v-54.89h3.83l-3.83-2.17-3.7-2.17v-15.83l3.7,2.04v-26.3h41.23Z"/>
</svg>