<?xml version="1.0" encoding="UTF-8"?>
<svg id="Capa_1" data-name="Capa 1" xmlns="http://www.w3.org/2000/svg" viewBox="0 0 640.49 636.59">
  <defs>
    <style>
      .cls-1 {
        fill: #fff;
      }
    </style>
  </defs>
  <path class="cls-1" d="M442.38,354.41l18.49-18.41c1.96-1.95,5.22-4.02,7.2-4.83l2.97,4.37c4.38-4.4,6.92-7.62,13.07-8.27l.96,5.66,9.89,7.84-8.72-15.14c-.53-.92-.38-3.01-.28-3.69.77-5.33,20.38,13.09,21.66,14.37l40.31,40.12-21.51,21.62-44.02,44.04-10.57-10.85-52.81-54.79,23.38-22.04ZM482.4,412.98l36.27-36.49-16.97-17.04-18.93-21.47c-10.44,6.26,3.88-.26-15.54,18.41l-21.66,20.83,36.84,35.75Z"/>
  <path class="cls-1" d="M181.53,358.65l-37.27,26.68,34.69,23.24c2.2,1.47,4.25,2.57,5.72,4.95l-9.22-5.74-5.08-1.37-10.03-5.71c-.72,5.57,5.77,4.19,7.17,8.52.19.59-1.87.82-2.43.53l-8.81-4.61c-11.53-6.03-14.89-9.17-25.84-14.61l-1.77,13.18c-.06.42-.67,2.01-1.09,2l-2.2-.02c-1.19,7.43-3.74,15.13-7.42,22.11-1.39-1.72-3.77-2.96-4.8-2.04-.59,3.45-1.39,6.4-3.46,9.44l-.18-10.08-1.8,3.93-.23-17.71-1.6,4.6c0-21.11,4-39.43,4.29-62.24.19-14.41.6-28.53,2.43-42.85.22-1.71-.43-5.17-.7-6.88l-2.89-2.69c-.05-1.96-.48-3.47-1.67-4.98.55-2.51,1.48-6.68,2.75-9.35l12.36-26.11,8.12-15.53,18.84-40.31c7.67,13.93,11.16,24.4,18.72,38.1l8.05,14.59,6.95,11.68c6.12,10.29,11.2,20.8,16.59,31.52l6.11,12.15c-14.48,3.28-11.28,2.95-26.5,3.01-8.76.04-8.35-1.8-16.2-.64-13.02,1.92-11.31-2.27-19.57-2.2-5.16.05-9.35.04-14.34-.36l8.4-1.62c-2.42-.48-4.77-.77-7.14-.96.13.15,1.86-2.06,1.22-2.4l-3.73-1.97c.13-1.78,15.52-7.13,17.22-7.24l14.91-.94,23.38-2.91c-4.65-9.17-9.58-17.72-14.88-26.38-4.26-6.95-7.42-14.64-12.5-20.94l-7.3-9.05-21.36,45.72c-6.28,13.43-6.22,12.86-14.97,24.89l51.64,35.51c1.95,1.34,3.3,3.23,4.89,4.66,3.6,3.25,7.3,5.48,12.52,9.45ZM155.87,359.08l-23.88-15.67-1.21,35.21,25.09-19.54Z"/>
  <path class="cls-1" d="M47.6,299.47c0,3.4-.77,7.06-1.66,10.07l-5.62-.55c-.35,3.47,0,9.94-4.01,10.2-4.9.32-5.48-7.21-4.96-11.14-.14-2.34-.64-1.48-1.56.83-.78-3.04-1.37-6.76-1.1-10.31l1.88-24.69c.15-1.95,1.4-5.35,1.78-7.1-.19-5.53-.27-11.59,0-17.24l.66-13.59.73-17.11,1.44-24.34,76.61,44.44c-9.66,8.07-18.19,16.22-28.14,23.33l-18.3,13.08c-1.26.64-4.14-3.19-3.16-4.18l6.12-6.17c-3.36-1.4-9.99,6.01-16.41,4.02-3.41-5.65,20.31-23.08,24.26-27.09l-23.11-12.73-3.51,41.31c-.84,9.88-1.95,19.04-1.94,28.97Z"/>
  <g>
    <path class="cls-1" d="M261.1,333.88c4.67-3.69,5.57-6.71,10.46-8.25,3.63,5.38-7.62,25.33-10.15,31.33l-14.55,30.99c-6.47,13.77-12.33,27.08-19.38,40.87l-27.77-62.77c-3.32-7.5-6.08-14.46-9.84-21.74-1.42-2.76-2.65-6.46-3.08-9.02l3.78-2.73c-1.32-3.19-3.95-7.54-1.11-10.09,2.33-2.1,5.34,2.15,6.84,3.65,1.64,1.63,4.18,3.32,5.18,5.59l11.01,24.95c-.26,2.68.63,4.52,1.83,6.8l13.29,25.32,22.86-48.43,9.46-16.67,2.85.98c.7.24.48,2.68.29,3.24l-1.97,6.01Z"/>
    <path class="cls-1" d="M262.9,221.76c21.52-22.17,4.37,14.58,1.37,20.6l-16.48,35.33-18.86,40.31-27.3-62.44c-3.21-7.34-5.78-14.24-9.42-21.29-1.69-3.27-3.05-7.07-3.81-10.22l3.97-2.73c-1.47-3.05-3.81-7.71-1.33-10.07,2.68-2.54,5.36,2.25,6.94,3.63,1.82,1.6,4.11,3.25,5.15,5.58,3.87,8.66,7.5,16.8,10.83,25.56.51,1.35.82,3.67,1.48,5.01l13.29,26.84c1.76-2.67,2.55-4.96,3.89-7.81l19.31-41.33,9.02-15.92c.47-.31,1.97-.33,2.42.08.56.51,1,2.3,1.04,3.02l-1.52,5.84Z"/>
  </g>
  <g>
    <path class="cls-1" d="M405.46,424.73c-1.48,2.33-3.73,7.44-6.64,8.43-.76.26-3.37-.93-4.04-.48-.81.55-1.38,1.64-2.67,3.74l-7.07-1.02c-.78-2.05-1.02-5.61-.4-8.09,5.59-22.35,1.23-21.52,3.71-38.79.8-5.58-.11-11.45.06-17.39l1.4,5.45c1.74-18.28-2.58-33.27-1.28-49.26l2.31,18.74c1.41-4.39.89-7.67,1.24-11.65l.55,2.96c.08.45,1.25.6,1.38.16l.71-2.34c.2-.66,1.06-1.94,1.72-2.19s1.67,1.07,1.94,1.84l3.19,9.05c1.1,3.13,2.5,6.51,3.15,9.85,3.37,17.19,4.52,49.89,4.35,68.14,0,1.05-2.7,2.37-3.62,2.86Z"/>
    <path class="cls-1" d="M409.51,307.88c-1,2.72-3.75,7.45-6.28,8.67-.75.36-3.49-1.1-4.14-.59-.79.62-1.48,1.86-2.57,3.74l-7.02-.86c-.76-2.1-1.13-5.53-.51-8.02,5.62-22.96,1.28-22.12,3.72-38.99.84-5.78-.19-11.86.11-18.05l1.34,6.29c1.76-16.59-2.39-34.96-1.44-50.24l2.45,18.95c1.53-3.96.96-6.86,1.23-10.99l1.07,3.87c3.23-2.39,1.04-5.06,1.98-5.31l2.2-.6c.64,1.51,1.82,3.77,2.38,5.48l3.44,10.45c3.58,10.85,3.86,22.14,4.57,33.7.32,5.16,2.85,40.94.1,41.75l-2.63.77Z"/>
  </g>
  <g>
    <path class="cls-1" d="M460.55,250.11c-4.09,15.74.03,6.12-2.49,21.7-.79,4.88-.1,10.12.1,15.4l-1.51-2.78c-.92,10.43-.29,20.76.77,31.67.36,3.74,2.13,7.51-.25,11.2l-1.8-21.85-1.71,10.28-3.07,4.75c-.57.37-2.28,1.46-2.18,1.39l-2.17-5.68-3.02-7.72c-2.03-5.18-3.27-11.06-3.61-16.74l-1.84-30.82c.53-9.18.64-18.02.46-27.15l-.64-32.5,31.22,33.34c4.77,5.1,9.48,9.71,14.32,14.7l19.71,20.31.63-26.55c.02-.95,1.83-2.35,2.8-2.26.86-8.27,2.51-17.16,5.49-25.2l2.53,2.55c2.28,2.3,1.98-8.41,3.84-11.29,1.54,1.38,2.98,2.19,5.5,3.27,1.89,20.92-1.88,40.3-2.06,61.28l-.38,44.85-19.75-20.38c-7.8-8.05-13.47-17.38-21.17-25.36l-19.71-20.41Z"/>
    <path class="cls-1" d="M599.13,297.87l-22.89-49.23-16.79,31-8.59,17.49c-.59.44-2.06,2.34-2.6,1.93l-3.3-2.46c-1.64,2.97-3.98,8.29-7.09,7.63-3.84-2.45-.91-7.33-.43-10.46.35-2.32.14-5.71,1.29-7.93,4.87-9.39,9.38-18.34,14.66-27.34.98-1.67,2.45-3.34,3.4-5.32l19.77-41.13c.75-.18,2.38.97,2.95,2.2l46.38,101.17-16.66,1.12-21.99.02c-2.31,0-3.15.13-3.87-2.44-1.19-4.27,7.81-2.38,8.7-4.33l-11.57-3.4c-.75-.22-2.13-2.24-1.8-2.91,2.23-4.5,14.41-4.1,20.44-5.61Z"/>
  </g>
  <g>
    <path class="cls-1" d="M311.48,432.75c.11-13.38-9.22,5.63-17.81-2.91-1.35,3.65-2.44,6.61-4.81,9.31-2.73-1.77-2.94-5.16-3.72-8.29-.61-15.37-.03-30.13.46-45.66l2.05-66.08,79.27,40.76-39.7,23.97,38.98,24.83-42.89,20.16c-3.74,1.67-7.44,3-11.84,3.91ZM325.43,361.72l-18.07-9.34-.54,20.88,18.6-11.54ZM327.61,405.8c-7.38-4.9-13.55-8.7-21.15-12.65l-2.76,25.58c7.71-5.63,14.56-8.6,23.92-12.93Z"/>
    <path class="cls-1" d="M362.81,302.16l-7.6,1.5,9.76,4.18c.89.38,2.47,2.54,2.12,3.44s-1.55,1.95-2.8,3.04c-5.21.79-10.21,1.45-15.61,1.49l-60.75.54c-.54-14.54.23-28.2.94-42.34l2.07-41.18.05-16.37c0-.72.64-2.55,1.13-2.94.61-.49,1.95-.38,3.22-.34l1.86.06c1.04.03-.09-8.05,3.68-8.32,4.93-.35,4.83,3.89,6.24,6.65,1.19,2.34,2.95,5.28,2.84,8.03l-.8,19.5c-.08,2.01-.98,4.39-1.29,6.35-.84,5.21-.41,10.68-.69,16.42-.09,1.85,1.25,5.22,1.27,6.84l.33,26.5,36.46.24,17.4,1.8c.67.78.8,4.09.17,4.91Z"/>
  </g>
</svg>