<?xml version="1.0" encoding="UTF-8"?>
<svg id="Capa_1" data-name="Capa 1" xmlns="http://www.w3.org/2000/svg" viewBox="0 0 640.49 636.59">
  <defs>
    <style>
      .cls-1 {
        fill: #fff;
      }
    </style>
  </defs>
  <g>
    <g>
      <path class="cls-1" d="M609.46,519.91c1.85-.69,4.76-.68,7.09-.36l-8.93,24.62c-2.05.3-4.9.37-7.2.23l-7.21-17.24-7.02,16.77c-1.79.81-5.25.82-7.41.26l-8.95-24.55c2.11-.23,4.66-.29,6.78-.14l6.05,17.23c3.24-5.83,4.88-10.97,7.25-16.96,1.55-.42,4.47-.5,6.34-.27l7.21,17.5,6-17.08Z"/>
      <path class="cls-1" d="M554.94,532.35c-.53,12.44-17.2,14.57-27.12,11.01-4.93-1.77-8.08-5.74-8.49-10.25-.48-5.25,2.22-9.9,7.19-12.18,6.84-3.14,14.91-3.09,21.64.28,4.51,2.26,6.99,6.47,6.79,11.14ZM542.93,538.88c3.45-1.33,5.05-4.36,4.98-7.27-.07-2.78-1.82-5.69-4.9-6.8-3.73-1.35-8.13-1.35-11.82.01-3.36,1.24-5.04,4.33-4.86,7.6.4,7.29,10.46,8.83,16.6,6.46Z"/>
      <path class="cls-1" d="M447.26,542.81c-7.27,3.29-23.85,3.62-27.05-5.05,9.02-3.01,6.6,5.79,22.2,2.05.87-.21,2.13-1.92,2.17-2.76s-1.45-2.32-2.32-2.4l-15.33-1.4c-2.69-.25-5.46-2.88-5.86-4.84-.59-2.91.75-6.32,3.68-7.61,7.22-3.17,21.79-3.89,25.92,5.08-12.22,2.91-.97-4.18-20.72-2.18-.89.09-2.37,1.68-2.38,2.53-.02,1.16,1.63,2.46,2.89,2.57l14.66,1.29c2.57.23,5.44,2.85,5.9,4.76.65,2.72-.56,6.51-3.77,7.96Z"/>
      <polygon class="cls-1" points="501.54 544.44 494.97 544.56 494.65 534.12 475.74 534.48 475.74 544.42 469.01 544.52 469.02 519.47 475.56 519.35 475.91 529.24 494.79 529.17 494.95 519.37 501.49 519.42 501.54 544.44"/>
    </g>
    <g>
      <path class="cls-1" d="M318.44,544.45l-.52-16.66c-3.86,5.31-6.7,10.81-9.72,16.16-1.2.65-3.97.72-5.15.23l-10.01-16.95-.51,16.88c-1.27.66-4.61.62-5.95-.05l.02-24.64,8.21-.12,10.66,18.9,10.72-18.73,8.38-.14v24.8c-1.7.25-4.09.34-6.12.31Z"/>
      <path class="cls-1" d="M369.43,533.69l-17.81.04c-.2,1.56-.25,3.81-.19,6.08l18.82.08c1.1.56,1.09,4.06-.04,4.68l-25.97-.04-.06-25.23h26c.85.76.96,3.35.52,4.47l-19.15.04-.22,5.79,18.11.06v4.02Z"/>
      <polygon class="cls-1" points="54.37 544.45 47.79 544.57 47.49 534.37 28.66 534.35 28.42 544.56 21.81 544.5 21.65 519.32 28.57 519.26 28.68 529.05 47.35 529.12 47.57 519.27 54.49 519.32 54.37 544.45"/>
      <path class="cls-1" d="M97.9,538.56l-15.32-.1-3.13,5.75c-1.75.35-4.66.33-6.96.05l12.77-24.9h9.64s12.89,25.15,12.89,25.15l-6.98-.07-2.92-5.88ZM95.25,533.98l-5.21-9.91-5.1,10.02c4.04.18,6.43.18,10.3-.11Z"/>
      <path class="cls-1" d="M192.66,530.48c.13.9.02,3.13-.17,4.59l-17.73.15-.15,9.35-6.58-.09-.08-25.28,25.64-.03c.61.96.72,3.31.48,4.98l-19.15.06-.17,6.17,17.91.11Z"/>
      <path class="cls-1" d="M230.48,544.48l-6.65.03-.07-20.26-11.63-.14.19-4.8h28.94c1.07.57,1.24,3.57.67,4.73l-11.42.29-.05,20.15Z"/>
      <path class="cls-1" d="M149.21,539.76c1.08.02,1.24,3.54.76,4.78l-24.1.05-.25-25.18,7.17-.18.04,20.29,16.38.24Z"/>
      <rect class="cls-1" x="260.03" y="519.3" width="6.77" height="25.27"/>
    </g>
  </g>
  <path class="cls-1" d="M612.88,425.08l-.17,46.77H25.58s-.27-46.67-.27-46.67l10.74-.55v-195.77s84.78.14,84.78.14c2.88.49,4.97,3.62,7.23,5.36v139.7s45.96,0,45.96,0l22.28-146c-23.46-4.09-41.99-11.05-40.18-37.98,2.24-33.47,18.8-62.91,47.89-80.16,26.57-15.75,65.15-23.84,95.06-13.99,17.67,5.82,28.05,21.44,26.57,40.38-2.99,38.35-27.85,67.84-62.22,84.26l24.39,165.63.32-157.13,181.88.02,22.84,44.28,21.48-44.28,87.84.11-55.23,107.9,54.33,87.56,11.61.42ZM235.59,107.39c-3.32-3.23-8.64-3.94-13.72-1.82,4.59.75,8.85,1.55,13.72,1.82ZM228.84,111.5c-3.87-3.57-10.07-3.91-15.11-1.8,5.22,1.31,9.51,2.24,15.11,1.8ZM178.92,138.71c.38,2.14,2.17,2.82,2.07,3.66-.13,1.11-1.05,1.81-1.61,3.06-8.19,18.22-10.95,38.21-11.14,57.95-.82.88-3.33,1.85-3.61,2.68-2.07,6.09,5.82,1.24,9.8,8.36,1-4.73,3.66-4.39,7.16-4.9,29.67-4.3,57.97-13.66,84.65-27.23,18.58-9.45,34.67-22.07,47.03-38.73,6.94-9.36,12.71-22.98,3.94-32.52,1.92,7.7,1.55,14.9-2.37,21.74-7.96,13.88-19.14,24.7-32.62,33.49-32.1,20.93-62.38,32.54-100.18,39.73-2.73.52-9.05.37-9.57-3.19-3.17-21.84,3.59-43.51,15.95-61.5,4.33-1.76,9.98,2.62,11.13-1.87-2.43.98-3.4-1.27-5.08-1.59-5.02-.96-11-.82-15.56.85ZM221.82,116.6c-5.75-1.63-12.3-4.18-18.07-1.08,7.44.2,15.69,5.18,18.07,1.08ZM213.71,123.81c-6.04-2.38-12.57-4.12-19.4-1.58,1.17.93,21.86,5.23,19.4,1.58ZM206.42,131.86c-2.1-2.23-20.9-5.3-20.57-.54l11.82.97c2.98.24,5.78,2.3,8.76-.43ZM289.29,187.68c-4.25,8.96-11.25,14.78-18.27,21.67,23.88-13.29,41.68-35.55,46.01-63.33-4.79,7.98-14.04,12.74-17.85,20.79l-9.88,20.87ZM263.12,424.22l-9.29-195.95c-.15-3.14,3.01-4.66,2.13-7.99-2.52.49-5.22.7-7.57,1.99l7.24,202.06c2.5.59,4.85,1.3,7.48-.1ZM240.8,250.27l.26-26.48c-11.47,2.13-21.71,2.6-33.81,3.82l33.54,22.66ZM119.74,270.79c-2.36-8.08-9.69-9.77-14.71-13.73-10.52-11.36-24.5-16.92-39.9-18.34-6.84-.63-13.37-4.4-20.37-1.65,7.01-.03,13.18,3.03,19.25,3.57,15.8,1.43,28.49,6.97,39.86,17.65,4.87,4.58,11.68,7.79,15.88,12.5ZM114.62,249.03c-11.66-9.06-10.18-13.83-26.74-12.38,8.55,4.1,14.7,10.79,22.52,16.08l8.95,6.04c1.21-1.78,1.1-4.3.12-6.45-.57-1.24-2.94-1.8-4.85-3.29ZM109.58,235.44l-1.28,1.7,11.09,8.36,1.28-1.7-11.09-8.36ZM368.81,243.47c1.1.3,1.97.32,2.22-.17,3.77-7.37-67.24-9.24-76.26-1.1,25.79-2.04,49.48-5.38,74.04,1.26ZM383.83,237.17c-1.14,1.32-.88,11.56,2.07,14.13.49-2.14,1.57-18.35-2.07-14.13ZM397.71,275l.42-37.77c-2.12-.6-4.18-.83-6.22.2.74,18.02-3.4,22.69,5.8,37.56ZM406.9,293.16l1.76-54.03c.05-1.43-.25-2.19-1.11-2.16-.73.02-1.63.15-1.67,1.22l-1.41,48.84c-.07,2.37,1.01,4.65,2.42,6.14ZM484.66,276.04c-.89-9.3-9.97-3.84-29.3-15.2-11.53-6.78-21.52-14.81-31.85-23.3-2.47-2.03-7.29-.29-10.47-.34.18,21.96-.72,42.96-2.3,64.62,2.05,3.61,3.14,6.98,5.72,10.42,3.29-9.84,4.98-19.74,4.93-30.18l-.17-39.25c19.52,17.79,38.02,30.43,63.43,33.23ZM477.15,260.8c-16.22-4.56-27.76-15.3-42.86-24.37,11.2,14.07,28.25,22.21,44.17,27.53-.03-1.15-.66-2.97-1.31-3.16ZM469.17,245.42c-10.46-3.94-10.43-11.31-21.15-7.83,7.91,6.54,15.62,11.57,24.85,15.9-.17-3.34-1.91-5.49-3.7-8.06ZM514.88,247.84c8.18-4.27,14.94-7.43,22.52-10.38-3.96-4.01-25.28,7.47-22.52,10.38ZM586.65,241.95c.49-.39,1.01-2.32.2-2.45-15.92-2.48-31.92-1.53-47.67,2.72-12.56,3.39-33.04,14.39-35.6,28.53l10.94-9.26c32.38-27.41,69.37-17.33,72.12-19.54ZM119.6,309.78c.85-2.82.96-4.78-.49-5.98-1.02-.84-2.91-1.15-5.67-1.98,4.26-9.2,5.09-18.59-.02-26.99-4.04-6.63-10.96-9.25-16.28-13.91-10.46-9.15-21.61-14.93-36.01-15.37-5.39-.17-11.01-4.27-16.81-2.83-.6.97-.92,3.54.12,5.2,5.16-1.01,11.06,3.12,15.77,3.19,13.64.2,23.81,5.44,33.67,14.24,5.37,4.79,13.23,7.15,16.22,14.93,3.24,8.44.44,17.12-5.56,24.42,5.99,2.02,10.51,2.84,15.07,5.07ZM370.8,253.13c.78-2.11.94-5.01-.35-5.36-24.36-6.49-49.44-6.58-74.03-1.36-.84,2.03-1.11,3.99.38,5.36,24.87-5.69,49.74-5.02,74,1.36ZM462.21,344.77c-10.22-13.49-22.15-23.75-34.97-33.23,3.51-16.17,4.61-31.56,4.22-47.6,14.84,10.1,30.01,16.71,46.6,20.84,4.99,12.39,9.19,24.06,15.61,35.56,18.59-82.2,87.38-69.73,89.1-71.13.56-.46,1.44-1.35,1.19-3.08-26.32-3.18-52.63,4.51-71.52,23.28-10.79,10.72-16.18,24.24-19.98,39.04-4.51-9.02-6.95-17.63-10.09-26.92-20.23-4.34-38.12-13.55-55.08-26.47.52,19.57-.99,37.95-4.73,57.08,10.96,9.32,21.3,17.78,31.75,28.67-11.07-.14-21.73,1.51-31.58,7.09-1.96,1.11-3.86,2.41-3.3,5.25,13.18-7.15,27.25-9.3,42.8-8.36ZM371.58,259.06c-24.93-7.95-52.17-7.18-76.17-.54,26.71-3.99,50.67-3.78,76.17.54ZM44.54,319.98c12.97-14.49,29.24-23.98,49.75-18.15,8.55-4.14,10.93-14.68,5.79-22.75-2.99-4.69-7.88-7.62-13.61-8.47-6.55-9.95-16.84-13.82-28.45-13.53-1.25.03-14.4-6.29-14.18-1.57.08,1.64,8.32,1.81,13.5,4.83,11.25-.7,21.43,3.04,27.39,13.07,6.79.77,12.4,4.2,14.42,10.97,1.12,3.76.1,13.32-5.12,13.3-9.7-.04-18.88-1.82-28.1,2.5-3.76,1.77-26.2,14.01-21.4,19.8ZM509.69,309.36c11.61-36.4,33.25-50.07,70.41-53.07-30.92-4.87-59.38,15.96-69.86,44.1-6.64,17.84-10.22,35.65-11.88,54.68-.32,3.65-.99,7.42,1.68,10.2,1.23-19.5,3.74-37.46,9.64-55.92ZM370.8,271.97c.91-2.62.75-4.02-.14-5.38-24.54-6.29-49.58-6.7-74.3-1.26-.87,1.93-.75,3.67.05,5.31,24.74-5.51,49.94-5.18,74.39,1.33ZM43.72,305.01c16.57-11.19,26.6-14.44,47.4-13.76.64-8.67-7.01-11.67-14.02-12.2-1.91-4.15-3.86-9.11-9-10.96s-9.88,0-14.75-.18c-2.67-.78-5.76-8.03-10.21-3.89,4.46.9,7.27,4.27,9.19,6.84,4.16-.7,8.88-1.86,12.97-1.35,7.4.91,7.86,7.98,9.97,11.93,4.13,1.1,12.96-.38,13.31,7.18-11.04-.25-38.16,3.7-44.87,16.38ZM416.95,335.95l-37.8-73.37.04,156.02,37.75-82.65ZM522.3,311.18c3.58-12.31,10.53-23.31,20.41-31.47,8.09-6.67,17.95-9.57,28.32-10.77,1.57-.18,3.08-.93,2.63-2.64-12.21.73-24.44,4.31-33.8,12.69-11.42,10.23-19.41,24.03-21.79,39.2,11.01-10.35,23.89-15.95,37.55-16.09.5,0,1.62-1.36,1.4-1.64-.25-.34-1.2-.45-1.97-.48-12.01-.51-22.29,4.33-32.75,11.21ZM370.14,281.28c1.6-.98,1.17-1.83.85-2.35-.23-.37-.8-.62-1.74-.94-23.86-7.97-49.34-8.16-73.03.01-.87.3-.25,2.52.3,2.42l1.68-.3c24.06-4.24,48.38-7.37,71.95,1.15ZM541.11,293.79c9.43-13.77,24.95-15.14,28.24-17.73,4.31-3.38-23.04.71-34.14,21.9,7.92-1.77,15.11-3.4,23.05-3.52,1.29-.02,2.66-1.09,2.13-2.26-6.16-.79-12.56,1-19.28,1.61ZM43.55,293.9c7.03-1.72,11.65-6.88,18.47-7.74,2.56-1.31,4.17-3,3.61-5.41-1.94-8.47-13.89-.7-17.95,1.93-1.55-2.31-1.4-4.92-3.47-6.83-.94,4.45.92,7.86,1.59,11.76,2.17-2.35,15.32-11.93,17.33-6.77,1.52,3.88-17.87,6.29-19.58,13.07ZM495.83,344.69c3.03-2.14-7.66-16.63-11.01-25.29l-11.98-30.98c-10.06-2.15-19.11-5.4-28.09-9.43-2.03,4.64,22.83,10.6,26.19,11.59l12.01,30.57c3.38,8.6,8.25,16.07,12.87,23.54ZM482.54,350.9c-12.31-16.55-26.9-29.81-42.58-43.1.13-4.58,5.91-27.46.61-27.13-.17,10.02-1.77,18.72-3.31,28.03,16.35,13.58,31.24,27.42,43.78,44.02.44.59,2.27.43,2.3-.02.02-.3-.04-.78-.79-1.8ZM370.28,291.84c1.23.42,1.09-2.4-.15-2.83-23.51-8.15-48.41-8.52-72.16-.93-1.38.44-2.02.3-2.04,1.45,0,.48.15,2.09,1.25,1.72,23.9-8.08,49-7.59,73.1.59ZM328.46,294.8c1.96-.03,3.36-2.04,2.52-2.78-2.1-2.04-41.68,6.05-34.15,10.62,9.88-4.48,20.09-7.63,31.63-7.83ZM370.6,303.5c.68.3.93-2.45-.23-2.98-10.82-4.87-22.12-8.63-34.4-8.43-.94.27.85,2.65,2.23,2.7,11.53.45,21.84,4.02,32.4,8.7ZM333.49,301.6c10.8,13.26,22.46,23.68,36.98,30.93.74.37,1.16-2.36.73-2.97-.36-.51-.74-1.2-1.78-1.76-14.43-7.82-26.1-18.86-35.93-32.44-9.57,13.29-20.97,24.14-35.03,31.99-1.34.75-2.39,1.32-2.51,2.26-.14,1.1-.32,2.24.6,2.93,14.26-7.29,26.33-17.68,36.94-30.94ZM469.92,316.97c-2.43-6.32-4-12.62-7.04-18.79-1.09-2.21-5.84-2.5-7.62-2.75,1.27,3.38,4.77,2.83,6.33,5.12,1.91,6.26,3.85,12.03,8.33,16.42ZM453.43,303.93c-1.18-2.34,1.16-5.64-2.05-7.82l-1.12,8.83,15.19,13.07c-.2-5.46-10.27-10.62-12.02-14.08ZM211.23,308.19c6.84,2.13,13.11-1.23,15.92-6.74-1.12-1.21-.99-3.33-2.28-3.79-3.15-1.13-6.34-.59-9.45-.23-2.81,2.6-5.23,4.84-6.27,8.62,1.45-.46,2.2-1.79,4.06-.79-.42,1.51-2.8.75-1.98,2.92ZM323.01,301.93c1.6-.2,3.19-.97,2.93-3.12-10.81.99-20.95,4.32-29.87,10.1-.7.45-.12,2.39.39,2.44,1.25.12,11.55-7.52,26.56-9.42ZM371.87,312.44c-7.74-9.83-20.24-11.21-30.9-13.59-.23,1.91,1.61,3.3,3.01,3.41,10.42.77,18.1,6.78,27.9,10.18ZM572.44,413.85c-20.95-.87-40.29-9.84-52.61-26.45-14.2-19.14-5.33-45.86,8.44-63.08,6.23-7.79,15.18-9.19,24.27-14.45-22.49.21-37.58,25.35-41.33,44.35-2.27,11.53-.97,23.92,6.1,33.76,15.65,21.79,42.53,31.01,68.57,27.94,2.53-2.63-8.42-1.86-13.43-2.07ZM93.31,372.92c-16.92-1.71-38.93-10.51-39.25-29.4-.12-7.27,3.02-14.6,8.84-19.79,15.59-13.92,38.98-14.03,56.36-2.93,1.04-.47,1.09-2.03.48-2.91-.37-.54-.97-1-2.04-1.57-18.75-10.16-42.57-8.66-57.81,6.21-12.34,12.04-11.64,29.85.85,40.97,5.72,5.09,12.42,7.57,19.47,10.25-13.99,2.55-25.89-4.22-35.85-12.72-1.63,3.02.73,4.47,2.64,6,13.32,10.59,30.68,13.93,46.3,5.9ZM217.44,347.6c-2.33-6.82-9.26-5.68-14.31-6.46-13.48,2.33-5.16-20.99-9.08-27.96-2.22,7.28-.3,13.84-1.13,20.96-.68,5.89,4.38,10.23,10.14,9.61s9.47,1.83,14.38,3.84ZM210.84,336.6l-.02-17.58c0-1.87.53-3.2,1.33-4.81-2.72-.51-4.48-.6-6.71.07,2.33,3.38,2.56,7.44,1.2,10.92-2.01-3.64-2.13-7.32-4.37-10.33-1.28-1.73-4.49-1.16-5.64-.27,2.54-.34,2.28,20,.25,20.18.07,1.79,3.27,3.97,5.36,3.59-.42-4.48-1.56-8.25.1-12.67,2.47,2.88,4.1,14,7.23,13.63.73-.09,1.27-.89,1.27-2.73ZM224.16,328.27c1.02-2.66.89-4.89.24-7.05-1.43,1.22-2.06,2.17-2.9,2.31-.93.16-2.49-.05-2.57-1.43-.14-2.2-.75-4.82,1.62-5.29,1.29-.25,2.89.44,4.62,1.45,1.35.52.9-1.65.57-2.42-1.36-3.12-7.74-1.98-12.43-1.62,2.75,1.21,1.46,23.2.88,26.23,2.01,1.01,3.18,1.96,5.26,2.57-.44-5.01-1.39-10.4-.03-15.81.39-1.56,4.36-.05,4.76,1.06ZM237.86,326.31c-1.74-1.33-3.47-.57-4.11.13-.79.86-1,2.86-.16,3.7.71.71,2.18.58,3.24,1.51,1.2,1.05-.31,2.98-1.07,3.65-.68.6-2.56,1.27-3.57.52l-.14-16.73c-.02-2.04.77-3.34,1.8-4.76-2.7-.71-4.81-.74-7.52,0,1.1,1.41,1.78,2.74,1.79,4.71l.06,13.1c.01,2.85-.92,4.33-2.37,7.45,3.67-1.04,7.35.14,10.71-1.38,4.24-1.91,4.98-9.11,1.34-11.89ZM220.13,348.15c4.55-3.84,8.93-4.55,14-4.31s10.23-3.17,9.89-8.69c-.46-7.4,1.41-14.46-1.06-22.23-3.89,4.52,1.45,23.91-3.58,27.16-4.26,2.75-10.62-.85-18.1,4.31-1.32.91-2.4,2.32-1.14,3.75ZM426.29,341.2l15.87-3.83c-7.16-6.98-13.55-13.33-21.63-18.89,3.94,11.45,2.8,8.42,10,15.26-2.02,2.04-4.65,3.83-4.24,7.46ZM120.39,358.98c-13.84,3.01-32.06,6.38-44.13,0-8.61-4.55-13.29-15.34-8.31-24.03s13.84-12.04,23.11-12.82c12.67-1.07,24.23,5.55,28.52,16.76,1.35-4.82-.06-7.54-3.11-10.58-14.05-14.03-39.12-12.33-50.73,4.38-6.3,9.07-1.97,21.12,6.38,27.27,11.17,8.24,28.79,5.78,42.32,3.66-4.85,9.08-13.57,14.6-23.37,17.56-27.87,8.42-45.87-9.28-47.04-6.56-.16.38-.51,1.79.19,2.24,26.19,16.8,63.66,11.86,76.18-17.9ZM299.65,341.45c4.28-.59,38.71-18.41,31.55-21.55-10.25,8.83-21.89,15.42-35.43,19.98l18.53,85.97-14.65-84.39ZM351.48,423.68c-.31,1.61,1.54,1.09,2,.97s.67-.44.86-1.43l16.27-83.36c-12.87-5.26-24.25-11.89-34.89-20.1-.66-.51-1.44.6-1.13.91.21.21-.07,1.38.39,1.76,9.87,8.04,20.82,13.78,32.48,19.25l-15.98,82.01ZM542.6,394.51c-23.48-15.51-20.5-49.59-3.23-66.07,2.17-2.07,5.71-2.55,5.67-6.37-21.94,10.46-28.59,45.82-13.8,64.94,16.82,21.74,48.57,20.93,48.61,18.58.06-3.56-16.26,2.79-37.25-11.08ZM114.96,350.72c-1.19-6.08-3.22-12.24-7.88-16.74-7.29-7.04-19.46-6.77-26.87.06,1.81,5.37,7.85-6.52,21.32-.37,9.94,4.54,8.06,18.48,13.42,17.06ZM325.14,423.32l-14.75-75.58c2.2-1.38,26.89-12.57,20.83-15.47-7.27,5.69-15.51,9.95-23.94,13.77l15.14,77.64c.18.94.96.92,1.24,1.13.29.23,1.8.08,1.49-1.48ZM341.5,424.29c-.18.9,2.59.65,2.77-.27l15.27-78.05c-9.22-3.77-17.07-8.49-24.54-14.02-5.17,3.54,20.14,14.9,21.37,15.83l-14.86,76.5ZM101.19,344.44c1.42.87,2.43,2,3.96,1.3-1.91-7.78-10.02-11.12-17.03-7.84,2.07,3.3,8.55-1.9,13.08,6.54ZM87.27,352.24c-10.93-3.12-5.96-13.54-8.04-14.55-.44-.22-1.42-.51-1.84.58-2.62,6.8,1.18,14.12,8,16.48,8.9,3.09,18.39,2.49,27.78-.93-5.36-4.11-11.46,2.53-25.9-1.59ZM541.6,343.66c-.91-1.76-1.38-3.19-3.1-3.79-1.49,2.64-2.33,4.38-2.01,6.98,1.81-.89,3.17-1.87,5.11-3.19ZM100.58,348.35c-5.95-4.59-6.5,1.38-14.49-7.81-2.08,2.54-.33,5.31,2.02,6.5,4.04,2.05,8.52,2.09,12.47,1.3ZM331.8,407.52l-10.35-54.23,9.31-5.48c1.27-.75,1.85-1.97.72-3.6l-13.19,7.77,13.31,68.2c.6-4.09,1.07-8.11.2-12.65ZM334.67,407.96c.2,4.78-.75,8.8-.03,13.29l13.84-69.24-13.48-7.9c-1.36,1.11-.08,2.95,1.21,3.74l9.1,5.56-10.64,54.56ZM540.49,383.45c-4.61-3.99-7.64-8.34-7.2-14.31.64-8.65,6.23-13.85,12.47-20.55-8.82,1.91-13.17,11.31-14.74,19.45-3.49,18.03,28.4,31.17,40.88,22.97-12.13-.29-22.53.12-31.41-7.56ZM488.92,375.74c14.31,11.85,10.89,21.45,13.03,26.62,1.9,4.59,5.8-15.57-12.6-29.43-11.84-8.92-25.17-12.83-39.96-10.45-20.05,3.22-29.14,13.79-32.28,34.83-7.14-10.44-4.47-24.06,4.78-32.42,20.54-18.55,52.46-13.04,74.3,1.25.29-2.92-2.16-4.28-4.49-5.5-22.18-11.57-50.11-15.74-70.41,1.58-10.82,9.23-14.29,24.03-6.5,36.37,1.18,1.64,6,.84,7.57-.18,12.25-8.02,27.93-15.37,42.35-10.04,6.15,2.27,8.58,6.73,10.11,13.81,3.47-5.05-.57-9.15-3.31-12.59-15.29-11.67-36.77-2.65-50.94,7.17-.29-16.47,10.87-28.63,26.68-31.45,15.23-2.73,29.36.24,41.68,10.45ZM545.29,368.8c.03-4.23,3.33-6.68,6.16-11.07-5.85.33-7.72,6.64-8.39,10.08-1.04,5.37,1.75,9.72,5.46,12.79,7.78,6.44,21.57,4.82,17.75,2.75-1.93-1.05-21.09.44-20.98-14.55ZM561.19,375.31c-2.56-3.33-3.49-5.35-5.17-8.41-1.74,2-.78,4.49.46,6.2.87,1.2,2.84,3.6,4.7,2.21ZM485.74,398.16c2.68-2.3,4.23-4.61,4.79-6.86-4.41-11.7-15.11-19.56-27.65-20.74-8.6-.81-20.84-.18-25.66,8.59,18.75-5.25,43.37-2.48,48.52,19.02ZM97.09,404.5c-3.3,6.82-2.41,21.85,1.57,20.21,2.93-1.21-4.92-7.44,3.28-23.66,11.52-22.79,19.26-16.42,17.53-23.63-26.75,17.36-41.96,22.04-74.5,23.94-1.28.07-1.39,1.95-.73,3.03,21.34-.98,39.42-3.72,59.6-13.88l-6.76,13.99ZM182.56,392.21c5.68,1.36,8.65,5.27,9.78,9.22,3.15,11.05-7.34,16.95-15.97,22.83,3.52,3.4,14.91-8.29,16.74-11.25,4.83-7.8,1.63-17.91-7.05-22.32,14.45-10.31,33.09-10.52,44.76,4.12,3.56-1.03,6.98-.3,9.93-2.98-3.36-2.17-6.03.62-9.3,0-13.95-15.09-32.13-13.35-48.22-2.41-1.5-2.9.09-5.75-2.81-8.02-1.48,3.12-.22,6.49-.27,9.56-.18,11.3-7.21,18.29-17.63,20.76-13.8,3.26-28.17-1.65-34.04-15.52-11.87,11.24,2.3,32.8,4.4,28.21.39-.85-10.89-11.8-4.96-23.68,8.55,13.31,23.29,17.04,37.35,12.7,9.9-3.05,16.53-10.04,17.28-21.22ZM120.27,425.51c-1.33-6.47-5.26-11.11-5.25-17.49.03-11.57,9.1-20.69,20.37-21.67.79,6.07,2.41,11.68,7.39,15.32,8.65,6.33,22.22,4.81,28.47-4.34,3.48-5.1.92-14.21-5.22-15.66,2.16,4.94,6.61,9.54,3.14,14.45-5.25,7.42-16.72,9.02-24.21,4.09-5.47-3.6-7.04-9.73-6.98-16.66-12.05.35-23.72,8.5-25.08,21.31-.75,7.12,1.16,16.19,7.37,20.63ZM159.31,394.43c3.68-1.69,2.38-4.53,1.19-6.69-2.16-2.5-5-3.67-8.44-3.62,1.16,5.28,7.47.06,7.25,10.31ZM67.24,392.56c-7.77-1.75-15.08-3.45-22.51-6.85-.6-.27-1.25,1.61-.85,1.94,4.7,3.97,1.53,1.08,7.2,3.99-2.72,1.08-4.78.07-6.73,1.09-9.41,4.9,22.13,1.09,22.9-.17ZM148.62,386.22c-1.18,2.39-.42,5.23,1.27,7.42,1.39,1.81,4.12,3.49,6.87,1.91-10.05-6.19-3.03-4.44-8.13-9.33ZM216.31,395.26c4.48,2.9,5.09,7.16,5.6,12.51,6.43-4.92,12.75-4.46,20.17-6.45-5.96-3.53-11.71.1-17.45,1.93-4.42-11.39-12.07-14.92-25.04-12.34,6.36,8.4,6.67,18.56.86,26.54l-5.01,6.88c2.22,1.53,3.22-.59,4.62-2.26,7.01-8.37,9.52-19.02,3.78-29.27,4.31-.42,8.59-.05,12.46,2.46ZM482.28,417.23c-1.1-2.75-2.53-1.57-3.84-.87-15.1,8.16-32.11,10.49-48.21,4.62-14.06-5.12-25.01-15.59-28.89-30.07-2.34,1.59-1.8,3.86-.93,5.92,5.88,14,18.03,24,32.76,27.9h31.59c6.2-1.63,11.98-3.94,17.53-7.5ZM461.92,401.26c-.86-11.43-19.56-4.79-24-1.56,8.94,1.81,12.95-7.53,24,1.56ZM573.61,397.78l-7.55.77c14.46,5.87,10.48-1.07,7.55-.77ZM563.16,424.58c-18.71-4.92-35.33-10.52-49.46-25.3-1.41,6.54-3.69,12.36-2.89,19.29,4.1-4.26,1.97-8.97,4.35-14.26,9.11,8.91,34.93,22.8,48,20.27ZM466.76,411.75c-16.49,5.84-34.68,2.56-47.4-10.1-2,1.68-.07,3.03,1.15,4.12,12.48,11.2,30.69,14.2,46.52,8.34,4.23-1.57,8.55-5.69,7.94-10.11-3.97,2.61-4.39,6.39-8.21,7.75ZM439.33,403.8c6.32,4.59,15.58,6.67,21.88.25-19.2,3.73-12.03-1.61-21.88-.25ZM508.18,422.47l-14.65-19.57-13.25,19.86,27.9-.29ZM86.67,424.15c-1-7.08-.22-12.91,1.6-20.46-14.29,5.48-27.78,6.76-42.23,6.57-1.09-.01-1.59.06-1.94.33s-.51,2.42.25,2.48c13.46.98,26.41-.81,39.46-4.38-2.78,20.49,2.95,16.18,2.85,15.47ZM412.9,424.32c-7.3-4.96-13.51-10.81-17.91-19.41-1.59,1.08-3.11,3.69-2.01,5.49,3.34,5.48,12.06,18.21,19.92,13.92ZM217.43,423.5c6.61-6.6,15.64-7.72,23.51-13.58-11.31.94-20.08,7.89-28.31,14.24,1.23,1.05,3.5.64,4.81-.66ZM144.81,424.4c18.21,1.35,25.19,2.54,35.7-11.13-13.17,6.52-26.25,8.64-40.34,5.09.68,1.68,2.2,5.86,4.64,6.04ZM532.74,424.84c1.77-.5,2.98.39,4.45-.21l-16.67-8.78c-1.65,3.19-3.46,5.87-3.14,9.34,3.42-1.17,2.63-3.88,4.18-5.81l11.18,5.46ZM240.92,417.79c-6.38-.09-11.41,3.29-15.67,6.49-4.03,3.73,20.55-6.74,15.67-6.49ZM394.7,424.55l-6.25-7.13c-1.26,4.35,1.7,8.01,6.25,7.13ZM71.48,421.93c.7,1.87.71,2.71,1.09,2.86s2.08.29,2.15-.11c.34-2.01-.2-4.08-.88-6.6-9.63,1.42-18.85,2.56-28.89,2.14-1.07-.05-1.51,2.62-.66,2.74,9.19,1.29,18.03-.69,27.19-1.03ZM109.64,460.84c5.79.39,14.23-2.2,13.04-8.05-1.48-7.29-22.06-6.13-21.16-11.16.32-1.75,3.75-2.12,4.59-3.2.39-.5.39-2.57-.34-2.72-3.69-.76-7.85.66-10.59,3.39-1.35,1.34-1.27,3.4-.56,4.94,2.82,6.11,22.57,4.86,20.54,10.63-.71,2.01-5.51,2.17-5.89,3-.27.59-.71,3.11.36,3.18ZM121.3,440.78c-2.58-3.73-8.45-6.78-11.81-4.64-3.69,2.36,11.93,9.54,11.81,4.64ZM409.15,446.75c.72-7.75,8.98-6.59,8.97-9.16,0-.75-.05-1.83-.72-2.06-2.28-.77-15.59,1.44-15.25,12.99.34,11.6,15.2,13.3,15.87,12.06,3.2-5.89-10.04-1.19-8.87-13.83ZM436.53,447.72c-.26-11.12-15.22-14.15-15.49-11.1-.44,5.02,8.36,1.73,8.54,10.95.21,10.75-9.14,7.79-8.56,10.99.14.76-.02,1.82.69,2.19,1.32.69,15.1-.96,14.81-13.03ZM148.89,451.09l-.06-14.83c-2.29-.66-4.06-.71-6.46,0,.28,5.86-.78,11.75.43,17.49,1.27,6.05,13.21,8.98,13.57,5.82.56-4.83-7.44-1.14-7.48-8.48ZM172.39,453.76c1.15-5.8.04-11.6.53-17.47-2.51-.72-4.44-.73-6.74.02l-.33,16.7c-.08,4.14-7.48,2.28-7.07,6.58.32,3.28,12.45.04,13.6-5.82ZM202.81,437.59c.03,3.7,10.72-.3,10.59,6.02-.11,5.29-10.47,4.47-12.58,3.22-1.54-3.17.35-7.14-.8-10.53-2.29-.74-4.41-.67-6.47.05l.16,23.92c2.29.45,4.39.57,6.44.06l.48-8.84c5.73-.26,19.88.91,19.68-7.9s-17.52-9.26-17.5-6.01ZM260.28,449.8c1.4-.08,1.51-3.26-.01-3.3l-15.16-.38-.47-9.87c-2.13-.65-4.17-.69-6.54.04l.09,23.89c1.6.56,5.49,1.09,6.27-.29l.73-9.78c5.07-.66,9.77,0,15.1-.31ZM262.34,435.83h-15.04s0,3.53,0,3.53h15.04s0-3.53,0-3.53ZM310.11,440.42c-4.74-5.99-17.11-4.86-17.55-3.88-2.8,6.28,11.29-.19,11.46,7.09.13,5.55-10.91,4.8-14.4,3.98l-.04-11.28c-2.04-.61-4.02-.88-6.52-.04l.27,24.12c2.33.29,4.49.51,6.12-.43.61-2.71-.57-5.42.52-8.03.87-2.09,4.7-1.32,6.16-.02,6.33,5.62,4.7,10.53,15.13,8.23l-8.63-9.7c3.23-1.02,5.49-1.78,6.97-3.55,1.23-1.47,2.3-4.25.52-6.5ZM379.5,447.74c1.12-.25,5.43-2.68,5.04-6.01-.8-6.8-18.68-7.48-18.71-4.15-.04,3.73,13.01-.53,11.83,5.83-.76,4.08-10.27,2.85-14.46,2.73l-.23-9.99c-2.36-.52-4.31-.49-6.68.11l.14,24.06c2.35.37,4.27.49,6.32.33l.45-10.52c4.49.23,14.85-1.55,14.8,3.44-.04,4.07-8.35,3.02-10.93,3.4-1.43.21-1.49,3.47-.03,3.53,5.78.23,18.41.28,18.14-6.93-.18-4.72-7.6-5.39-5.68-5.82ZM497.5,436.8l-9.04,17.63-8.34-16.25c-.66-1.28-4.29-1.33-4.91-.07l-8.09,16.31c-5.98-8.62-5.35-22.51-15.48-17.99l11.7,23.43c1.48,1.24,6.06,1.38,7.25-.08,3.08-3.79,4.08-8.48,6.99-12.79,3.64,3.64,4.18,9.04,7.62,12.99,1.21,1.38,5.33.96,7.05.05l12.32-23.55c-1.64-.51-5.92-1.91-7.06.32ZM522.53,435.83v24.8h6.54v-24.8h-6.54ZM102.02,455.5c-1.98-2.02-7.17-4.68-8.28-1.29,1.02,4.35,8.88,8.08,12.07,5.77,2.81-2.03-2.72-3.4-3.78-4.48ZM262.4,460.39c6.32-5.4-15.86-3.13-14.33-3.32-1.32.17-1,3.37.27,3.44,4.73.25,9.4.18,14.06-.11ZM544.82,456.64l-13.02.23.07,3.94,13.02-.23-.07-3.94Z"/>
</svg>