<?xml version="1.0" encoding="UTF-8"?>
<svg id="Capa_1" data-name="Capa 1" xmlns="http://www.w3.org/2000/svg" viewBox="0 0 640.49 636.59">
  <defs>
    <style>
      .cls-1 {
        fill: #fff;
      }
    </style>
  </defs>
  <g>
    <g>
      <path class="cls-1" d="M393.79,278.93v97.11s-18.61.18-18.61.18l-.49-16.62c-6.18,11.19-15.18,17.74-27.75,18.24-8.55.34-17.01-.83-24.08-6.2-7.21-5.47-12.56-14.29-12.61-24.01l-.37-68.7h19.59s.28,63.13.28,63.13c.05,11.64,8.73,18.7,19.56,19.14,13.2.53,24.49-8.19,24.57-22.21l.35-60.08,19.57.03Z"/>
      <path class="cls-1" d="M473.58,372.6c-14.49,7.23-31.65,7.25-46.24.92-10.64-4.61-17.15-14.29-18.16-25.52l19.39-.07c1.28,7.95,6.76,13.29,14.47,14.59,7.05,1.19,14.5.97,20.68-2.55,4.41-2.52,6.28-6.92,5.79-11.79-.44-4.3-4.07-8.16-9.11-9.43l-26.27-6.64c-6.69-1.69-13.3-5.08-17.54-10.63-9.78-12.78-5.01-31.13,9.24-38.78,13.42-7.2,30.01-7.55,43.87-1.2,10.37,4.75,16.84,14.14,17.38,25.8l-18.42.03c-.92-6.94-4.94-12.11-11.38-14.12s-13.55-1.75-19.56,1.22c-6.65,3.29-9.42,11.67-4.51,17.48,8.69,10.27,43.25,6.82,52.75,23.27,7.84,13.57,2.02,30.26-12.36,37.43Z"/>
      <path class="cls-1" d="M590.59,361.52c10.24-1.13,17.54-7.67,19.59-17.92h18.93c-3.3,27.33-28.9,38.26-53.52,33.22-32.46-6.65-40.31-43.97-30.99-70.95,5.06-14.63,16.89-24.89,32.01-27.78,24.77-4.73,49.51,7.58,52.23,33.94h-18.7c-2.07-10.95-10.42-17.88-21.12-18.59-10.81-.71-20.17,4.85-24.38,15.13-4.83,11.8-4.91,25.66-.19,37.57,4.32,10.91,14.49,16.66,26.13,15.37Z"/>
    </g>
    <g>
      <polygon class="cls-1" points="270.34 376.19 269.76 276.95 228.78 376.01 213.68 376.22 172.42 276.86 171.9 376.09 153.49 376.06 153.49 242.53 177.18 242.54 221.16 350.28 265.02 242.6 288.9 242.52 288.9 376.06 270.34 376.19"/>
      <g>
        <path class="cls-1" d="M110.45,370.82c-6.06,6.57-14.95,8.04-22.68,4.22-9.63-4.76-19.56-4.79-29.3,0-7.2,3.54-15.36,2.96-21.25-3.02-15.23-15.46-24.49-36.08-25.75-57.93-.53-9.23.92-17.69,4.85-25.77,6.26-12.85,19.35-21.34,33.8-20.15,11.08.92,16.54,8.61,26.48,4.89l9.63-3.6c14.03-5.25,30.03-.5,39.36,11.99-10.41,7-16.53,17.88-15.65,30.24s8.01,22.03,19.44,27.41c-4.15,12.03-10.35,22.41-18.94,31.72Z"/>
        <path class="cls-1" d="M99.02,232.3c1.88,15.38-11.71,34.15-28.87,33.03-.56-16.72,11.89-30.99,28.87-33.03Z"/>
      </g>
    </g>
    <g>
      <rect class="cls-1" x="505.27" y="278.88" width="19.74" height="97.3"/>
      <ellipse class="cls-1" cx="515.1" cy="252.86" rx="11.29" ry="11.29"/>
    </g>
  </g>
  <g>
    <path class="cls-1" d="M405.66,166.78c1.67-.4,4.27-.43,7.01-.22l-9.1,24.95-7.13.08-7.21-17.36-7.13,17.12c-2.18.23-5.19.23-7.31,0l-9.09-24.93,6.95.09,6.3,17.89,7.17-17.7c1.45-.28,4.35-.31,6.14-.1l7.33,17.88,6.07-17.69Z"/>
    <path class="cls-1" d="M301.11,178.21c3.03,1.76,5.42,3.33,5.4,6.64-.01,2.68-2.49,6.46-6.09,6.5l-24.35.28v-25.32s23.51.3,23.51.3c2.3.03,4.95,2.68,5.56,4.53.64,1.96-.76,5.16-4.03,7.08ZM295.42,176.88c1.32,0,3.06-1.77,3.03-3.05-.03-1.36-1.7-2.79-3.11-2.79h-12.48s.12,5.78.12,5.78l12.43.05ZM297.05,187.15c1.26-.02,2.91-2.66,2.54-3.76-.32-.96-2.2-2.53-3.35-2.53h-13.37s.13,6.47.13,6.47l14.05-.18Z"/>
    <path class="cls-1" d="M348.77,189.7c-7.12,3.54-15.29,3.38-22.15.13-4.63-2.19-6.95-6.49-6.84-11.23.1-4.44,2.91-8.67,7.63-10.65,6.46-2.7,14.49-2.71,20.85.25,4.37,2.03,7.11,6.21,7.21,10.37.1,4.49-2.15,8.86-6.7,11.12ZM344.02,185.79c3.34-1.5,4.71-4.84,4.3-7.85-.93-6.88-10.25-7.95-16.2-6.05-3.2,1.03-5.21,3.87-5.35,6.71-.15,2.99,1.55,6.06,4.61,7.33,3.85,1.6,8.55,1.7,12.64-.14Z"/>
    <polygon class="cls-1" points="451.07 186.79 451.05 191.6 426.83 191.63 426.76 166.61 433.47 166.38 433.57 186.77 451.07 186.79"/>
    <g>
      <polygon class="cls-1" points="547.02 166.57 554.61 166.39 541.66 191.49 532.5 191.52 519.53 166.55 526.71 166.17 537.06 186.31 547.02 166.57"/>
      <path class="cls-1" d="M512.75,186.79l.04,4.82-24.37.02v-24.87c2.17-.39,4.91-.39,7.06-.03l.05,20.01,17.22.05Z"/>
      <rect class="cls-1" x="602.11" y="175.59" width="25.27" height="6.79" transform="translate(435.42 793.64) rotate(-89.97)"/>
      <rect class="cls-1" x="588.58" y="166.36" width="6.79" height="25.28"/>
      <rect class="cls-1" x="565.9" y="166.36" width="6.71" height="25.28"/>
    </g>
    <g>
      <path class="cls-1" d="M226.42,191.45l-5.77-8.3-10.41-.22-.11,8.65-6.96-.03.07-25.15c8.83.95,28.38-3.5,29.86,6.61.62,4.25-1.4,7.24-5.78,9.05l6.28,9.37c-1.73.1-5.22.18-7.17.03ZM222.73,178.68c1.99,0,3.73-2.23,3.59-4.07s-2.16-3.5-4.14-3.49l-11.9.08.04,7.55,12.41-.06Z"/>
      <path class="cls-1" d="M185.3,180.9l-18.3.14-.05,6.04,19.66.05-.03,4.49h-26.64s.16-25.27.16-25.27l26.53.02c.07,1.64-.04,3.84-.34,4.73h-19.25s-.08,5.75-.08,5.75l18.05.08.3,3.97Z"/>
      <path class="cls-1" d="M53.22,182.38c1.88,10.56-15.94,11.84-26.06,7.66-2.25-.93-3.93-3.27-4.87-5.21,10.98-2.71,4.05,5.39,22.28,2.2.87-.15,2.23-2.13,2.16-2.99-.5-5.7-22.9,1.17-23.65-9.43-.68-9.66,15.58-9.42,22.9-7.46,2.91.78,5.03,2.82,6.7,5.71-9.03,3.53-5.47-5.28-20.78-1.85-.85.19-2.27,1.92-2.15,2.77s1.84,2.21,2.84,2.29l14.23,1.13c3.11.25,5.99,2.87,6.4,5.2Z"/>
      <path class="cls-1" d="M122.51,184.16l-.32,7.36-6.53-.02.02-25.17c9.29.97,28.52-3.64,29.33,8.32.29,4.23-3.04,8.61-7.89,9.05s-9.14.36-14.6.46ZM134.08,179.4c2.05-.02,3.92-2.16,3.93-4.02s-1.86-4.09-3.94-4.09h-11.57s.17,8.23.17,8.23l11.41-.13Z"/>
      <path class="cls-1" d="M92.94,166.41h6.68s0,13.34,0,13.34c0,5.92-4.07,10.37-9.73,11.73-4.04.97-8.21.9-12.23-.18-5.72-1.53-9.23-6.09-9.23-11.91v-12.88s6.69-.13,6.69-.13l.19,14.12c.06,4.86,4.85,6.74,8.95,6.7,4.81-.05,8.64-2.56,8.65-7.64l.04-13.14Z"/>
    </g>
  </g>
  <g>
    <g>
      <path class="cls-1" d="M610.7,445.59c1.85-.69,4.76-.68,7.09-.36l-8.93,24.62c-2.05.3-4.9.37-7.2.23l-7.21-17.24-7.02,16.77c-1.79.81-5.25.82-7.41.26l-8.95-24.55c2.11-.23,4.66-.29,6.78-.14l6.05,17.23c3.24-5.83,4.88-10.97,7.25-16.96,1.55-.42,4.47-.5,6.34-.27l7.21,17.5,6-17.08Z"/>
      <path class="cls-1" d="M556.18,458.03c-.53,12.44-17.2,14.57-27.12,11.01-4.93-1.77-8.08-5.74-8.49-10.25-.48-5.25,2.22-9.9,7.19-12.18,6.84-3.14,14.91-3.09,21.64.28,4.51,2.26,6.99,6.47,6.79,11.14ZM544.16,464.56c3.45-1.33,5.05-4.36,4.98-7.27-.07-2.78-1.82-5.69-4.9-6.8-3.73-1.35-8.13-1.35-11.82.01-3.36,1.24-5.04,4.33-4.86,7.6.4,7.29,10.46,8.83,16.6,6.46Z"/>
      <path class="cls-1" d="M448.5,468.49c-7.27,3.29-23.85,3.62-27.05-5.05,9.02-3.01,6.6,5.79,22.2,2.05.87-.21,2.13-1.92,2.17-2.76s-1.45-2.32-2.32-2.4l-15.33-1.4c-2.69-.25-5.46-2.88-5.86-4.84-.59-2.91.75-6.32,3.68-7.61,7.22-3.17,21.79-3.89,25.92,5.08-12.22,2.91-.97-4.18-20.72-2.18-.89.09-2.37,1.68-2.38,2.53-.02,1.16,1.63,2.46,2.89,2.57l14.66,1.29c2.57.23,5.44,2.85,5.9,4.76.65,2.72-.56,6.51-3.77,7.96Z"/>
      <polygon class="cls-1" points="502.78 470.12 496.21 470.25 495.88 459.8 476.98 460.16 476.97 470.1 470.25 470.2 470.26 445.15 476.79 445.03 477.15 454.93 496.02 454.85 496.19 445.06 502.73 445.1 502.78 470.12"/>
    </g>
    <g>
      <path class="cls-1" d="M319.68,470.13l-.52-16.66c-3.86,5.31-6.7,10.81-9.72,16.16-1.2.65-3.97.72-5.15.23l-10.01-16.95-.51,16.88c-1.27.66-4.61.62-5.95-.05l.02-24.64,8.21-.12,10.66,18.9,10.72-18.73,8.38-.14v24.8c-1.7.25-4.09.34-6.12.31Z"/>
      <path class="cls-1" d="M370.66,459.37l-17.81.04c-.2,1.56-.25,3.81-.19,6.08l18.82.08c1.1.56,1.09,4.06-.04,4.68l-25.97-.04-.06-25.23h26c.85.76.96,3.35.52,4.47l-19.15.04-.22,5.79,18.11.06v4.02Z"/>
      <polygon class="cls-1" points="55.61 470.13 49.02 470.25 48.73 460.05 29.9 460.03 29.66 470.24 23.05 470.18 22.89 445 29.81 444.94 29.92 454.73 48.59 454.8 48.81 444.95 55.73 445 55.61 470.13"/>
      <path class="cls-1" d="M99.14,464.24l-15.32-.1-3.13,5.75c-1.75.35-4.66.33-6.96.05l12.77-24.9h9.64s12.89,25.15,12.89,25.15l-6.98-.07-2.92-5.88ZM96.49,459.66l-5.21-9.91-5.1,10.02c4.04.18,6.43.18,10.3-.11Z"/>
      <path class="cls-1" d="M193.89,456.16c.13.9.02,3.13-.17,4.59l-17.73.15-.15,9.35-6.58-.09-.08-25.28,25.64-.03c.61.96.72,3.31.48,4.98l-19.15.06-.17,6.17,17.91.11Z"/>
      <path class="cls-1" d="M231.72,470.16l-6.65.03-.07-20.26-11.63-.14.19-4.8h28.94c1.07.57,1.24,3.57.67,4.73l-11.42.29-.05,20.15Z"/>
      <path class="cls-1" d="M150.45,465.44c1.08.02,1.24,3.54.76,4.78l-24.1.05-.25-25.18,7.17-.18.04,20.29,16.38.24Z"/>
      <rect class="cls-1" x="261.27" y="444.98" width="6.77" height="25.27"/>
    </g>
  </g>
</svg>