<?xml version="1.0" encoding="UTF-8"?>
<svg id="Capa_1" data-name="Capa 1" xmlns="http://www.w3.org/2000/svg" viewBox="0 0 640.49 636.59">
  <defs>
    <style>
      .cls-1 {
        fill: #fff;
      }
    </style>
  </defs>
  <path class="cls-1" d="M306.28,479.75c-45.66-1.66-94.02-21.95-129.81-48.91-7.98-6.01-7.7-18.53-.35-24.64,22.35-18.58,41.27-40.24,55.51-65.56,7.49-13.31,13.35-27.09,16.78-41.9.2-.87.09-1.7-.17-2.23-.29-.59-1.55-1-2.53-.58-18.65,8.09-36.19,17.76-52.82,29.48-18.01,12.69-32.74,28-45.62,45.81-3.27,4.52-8.35,7.04-13.88,7.07-5.04.03-10.48-2.67-13.54-7.4-24.9-38.48-37.49-86.2-38.79-131.99-1.3-46.2,15.91-91.55,40.33-129.91,3-4.71,7.73-7.48,12.72-7.92,5.71-.5,11.05,1.77,14.58,6.37,26.31,34.23,56.77,59.19,97.48,74.31.73.27,1.43-.08,1.79-.2,2.86-.93-5.21-21.03-6.56-24.08-6.96-15.74-15.17-30.59-25.33-44.56-11.05-15.21-24.28-27.87-38.35-40.1-3.93-3.42-5.48-8.69-5.1-13.66.36-4.69,3.07-8.99,7.33-12.05C219.48,18.72,266.86,3.2,315.65,1.85c52.78-1.46,104.44,14.66,146.76,45.99,3.58,2.65,6.37,6.19,7.31,10.47,1.35,6.23-1.16,12.24-5.95,16.24-17.38,14.53-32.65,31.07-45.28,49.96-11.43,17.1-19.41,35.84-25.25,55.45-.25.84.28,1.84.51,2.28.29.56,1.27.72,2.25.36,39.24-14.54,72.59-40.35,97.48-73.89,3.13-4.22,8.17-6.73,12.89-6.69,4.97.05,10.53,2.02,13.51,6.55,21.37,32.51,34.6,69.57,38.62,108.41,3.13,30.22.3,60.13-8.25,89.19-6.96,23.64-17.03,45.87-30.17,66.56-2.82,4.44-7.63,6.88-12.22,7.21-5.14.37-10.66-1.56-13.92-5.78-6.9-8.94-13.53-17.49-21.33-25.71-9.93-10.48-20.46-19.45-32.5-27.51-14.34-9.59-29.26-17.53-45.17-24.11-.77-.32-1.7-.26-2.09,0-.54.35-.97,1.6-.66,2.55,5.42,16.39,11.96,31.97,20.14,47.19,13.48,25.08,31.14,42.88,52.5,61.21,3.92,3.36,5.23,8.65,4.81,13.74-.38,4.73-3.21,8.92-7.53,12.04-16.84,12.18-34.93,22.02-54.6,29.37-32.26,12.06-66.42,18.07-101.22,16.8ZM211.19,246.39c72.85,4.19,145.2,4.25,217.63.02,36.46-2.13,72.54-5.47,108.72-10.67-.94-37.21-11.44-72.67-29.64-104.49-.55-.97-.88-1.67-1.63-1.77-.93-.13-1.45.41-2.14,1.27-26.51,33.06-61.31,58.12-101.07,72.8-6.45,2.38-12.78,3.48-19.54,2.57-18-2.41-12.71-29.87-8.8-41.53,13.78-41.09,36.09-72.03,67.91-100.99.7-.63,1.19-1.77.22-2.43-37.28-25.64-81.79-38.54-127.09-37.2-41.31,1.22-81.41,13.59-115.85,36.28-1,.66-1.24,1.68-.34,2.49,13.11,11.86,25.25,24.33,35.53,38.84,14.38,20.27,31.01,50.82,35.52,75.26,1.95,10.55,1.25,27.05-12.44,28.58-5.54.62-11.09.05-16.62-1.88-25.64-8.96-49.27-22.46-70.11-39.96-12.5-10.49-23.31-22.11-33.62-34.6-.48-.58-1.06-.96-1.55-.91-.37.04-.88.31-1.22.89-18.81,31.89-32.56,69.37-31.89,106.8,35.97,5.16,71.67,8.42,107.99,10.64Z"/>
  <path class="cls-1" d="M328.9,603.62c4.72-2.51,9.45-1.29,12.62,2.54,3.31,4,3.55,9.23.12,13.3-2.3,2.72-5.01,4.99-8.28,6.79-11.43,6.32-24.3,9.12-37.3,7.53-18.12-2.22-32.53-14.43-37.6-31.92-4.5-15.53-2.26-32.04,6.86-45.28,7.42-10.78,18.87-17.61,31-18.87,13.65-1.43,26.31,3.27,35.77,12.86,9.1,9.22,14.52,21.36,14.09,34.21-.17,4.99-3.38,9.25-8.62,9.27l-55.71.24c.76,6.79,4.84,12.42,10.85,15.3,8.54,4.1,18.18,3.63,26.48-.79l9.71-5.17ZM321.64,578.02c-.75-6.77-3.67-12.19-8.68-16.1-7.38-5.12-17.5-4.97-24.4.98-4.5,3.89-6.92,9.39-7.54,15.22l40.62-.1Z"/>
  <path class="cls-1" d="M198.6,603.68c4.66-2.47,9.36-1.47,12.61,2.33,3.3,3.86,3.77,9.16.41,13.21-2.03,2.44-4.28,4.6-7.16,6.28-12.56,7.32-27.32,10.53-41.72,7.77-13.89-2.66-25.36-11.16-31.48-23.86-8.13-16.88-6.7-36.97,3.53-52.32,14.78-22.17,44.89-26.32,64.85-8.68,10.23,9.04,16.61,22.13,16.42,35.9-.08,5.78-3.73,9.79-9.4,9.81l-54.91.16c.56,6.76,4.86,12.58,11.08,15.46,8.21,3.81,17.43,3.67,25.4-.56l10.36-5.49ZM190.92,578.03c-.39-7.22-3.74-13.16-9.25-16.9-7.8-4.51-17.52-3.62-24.51,2.01-4.15,3.87-6.68,8.72-7.38,14.86l41.14.03Z"/>
  <path class="cls-1" d="M586.62,567.6v55.44c0,7.1-6.52,11.75-12.56,11.72-6.4-.03-12.34-4.83-12.41-11.87l-.44-49.31c-.08-8.86-6.97-14.72-15.45-15.16-8.99-.47-17.1,5.45-17.18,14.98l-.44,48.95c-.07,7.45-5.97,12.6-12.93,12.42-6.38-.16-12.28-5.26-12.27-12.53l.04-71.62c0-8.17,7.4-13.32,14.71-12.22,5.1.77,8.34,3.65,9.67,8.96,7.78-10.48,23.04-11.5,34.29-9.05,14.36,3.13,24.19,15.04,24.97,29.31Z"/>
  <path class="cls-1" d="M448.07,634.25c-15.47-.22-28.82-7.77-36.7-20.69-10.8-17.71-10.08-40.6,1.88-57.52,8.34-11.79,21.32-18.59,35.38-18.61,14.07-.02,27.1,6.75,35.45,18.53,12.12,17.09,12.79,40.19,1.68,58.01-8.15,13.07-22,20.51-37.7,20.28ZM463.91,602.95c6.19-10.09,6.2-22.86.64-33.05-4.16-7.62-12.27-10.91-20.55-8.98-16.94,3.95-20.27,27.4-12.77,41.48,3.43,6.43,9.46,10.05,16.24,10.11s12.54-3.22,16.43-9.56Z"/>
  <path class="cls-1" d="M111.63,622.66c-.01,7.7-6.38,12.2-13.26,12.17s-12.99-4.75-13.01-12.14l-.2-90.74-20.32-.12c-6.36-.04-10.76-5.04-10.95-11.3-.49-6.96,4.45-13.09,11.69-13.09h65.72c7.55-.01,12.56,6.41,11.84,13.69-.51,5.8-4.57,10.6-10.54,10.65l-20.81.19-.16,90.68Z"/>
  <path class="cls-1" d="M387.17,622.64c-.03,7.63-6.46,12.38-13,12.17-6.76-.21-12.16-5.58-12.18-12.95l-.2-59.98c-2.26-.48-4.62-.13-6.93-.25-5.8-.3-9.55-4.64-9.82-10.26-.31-6.55,4.25-11.83,10.96-11.96,1.95-.04,3.9.24,5.8-.2l.17-16.41c.07-7.24,5.32-12.59,12.21-12.86,6.75-.26,12.91,4.63,13.03,11.87l.28,17.52,9.88.26c5.94.16,9.51,4.89,9.62,10.65.11,5.94-3.47,11.09-9.63,11.25l-9.91.26-.26,60.89Z"/>
  <path class="cls-1" d="M250.07,622.12c0,7.66-6.08,12.62-12.54,12.69s-12.72-4.89-12.73-12.24l-.05-112.74c0-7.3,5.75-12.46,12.25-12.68,6.55-.21,13.02,4.8,13.02,12.35l.04,112.61Z"/>
  <path class="cls-1" d="M458.63,532.24c-2.5,1.48-5.14,1.62-7.6.53-1.64-.73-3.69-2.63-4.12-5.17l-5.48-32.31c-1.38-8.12,5.22-14.99,12.89-15.31,8.18-.34,14.65,6.29,14.32,14.97,6.17-5.54,14.92-5.19,20.09.76,5.08,5.85,4.66,15.94-2.45,20.16l-27.64,16.38Z"/>
</svg>