<?xml version="1.0" encoding="UTF-8"?>
<svg id="Capa_1" data-name="Capa 1" xmlns="http://www.w3.org/2000/svg" viewBox="0 0 640.49 636.59">
  <defs>
    <style>
      .cls-1 {
        fill: #fff;
      }
    </style>
  </defs>
  <path class="cls-1" d="M310.27,433.57c-32.6-1.19-67.12-15.67-92.68-34.92-5.7-4.29-5.5-13.23-.25-17.59,15.96-13.27,29.46-28.73,39.63-46.81,5.35-9.5,9.53-19.34,11.98-29.92.14-.62.06-1.21-.12-1.59-.21-.42-1.11-.72-1.81-.41-13.32,5.77-25.84,12.68-37.72,21.05-12.86,9.06-23.37,19.99-32.57,32.7-2.33,3.23-5.96,5.03-9.91,5.05-3.6.02-7.48-1.9-9.67-5.28-17.78-27.47-26.77-61.55-27.69-94.24-.93-32.99,11.36-65.36,28.79-92.75,2.14-3.36,5.52-5.34,9.08-5.66,4.07-.36,7.89,1.26,10.41,4.55,18.79,24.44,40.53,42.26,69.6,53.06.52.19,1.02-.06,1.28-.14,2.04-.67-3.72-15.01-4.68-17.19-4.97-11.24-10.83-21.84-18.08-31.81-7.89-10.86-17.33-19.9-27.38-28.63-2.81-2.44-3.92-6.21-3.64-9.76.26-3.35,2.19-6.42,5.24-8.6,28.22-20.26,62.05-31.35,96.89-32.31,37.68-1.04,74.57,10.47,104.78,32.83,2.56,1.89,4.55,4.42,5.22,7.48.97,4.45-.83,8.74-4.25,11.6-12.41,10.37-23.31,22.18-32.33,35.67-8.16,12.21-13.86,25.59-18.03,39.59-.18.6.2,1.31.36,1.63.21.4.91.52,1.6.26,28.02-10.38,51.83-28.81,69.59-52.76,2.23-3.01,5.83-4.81,9.2-4.77,3.55.03,7.52,1.44,9.65,4.68,15.26,23.21,24.7,49.67,27.57,77.4,2.23,21.58.21,42.93-5.89,63.68-4.97,16.88-12.16,32.75-21.54,47.52-2.01,3.17-5.45,4.91-8.72,5.15-3.67.26-7.61-1.12-9.94-4.13-4.93-6.38-9.66-12.48-15.23-18.36-7.09-7.48-14.61-13.89-23.2-19.64-10.24-6.85-20.89-12.52-32.25-17.22-.55-.23-1.21-.19-1.5,0-.39.25-.69,1.14-.47,1.82,3.87,11.7,8.54,22.82,14.38,33.69,9.62,17.9,22.23,30.62,37.49,43.71,2.8,2.4,3.73,6.18,3.44,9.81-.27,3.38-2.29,6.37-5.38,8.6-12.03,8.69-24.94,15.72-38.98,20.97-23.03,8.61-47.42,12.9-72.27,12ZM242.38,266.96c52.01,2.99,103.67,3.04,155.38.01,26.03-1.52,51.79-3.91,77.62-7.61-.67-26.56-8.17-51.88-21.16-74.6-.4-.69-.63-1.19-1.16-1.27-.67-.09-1.04.29-1.53.9-18.92,23.6-43.77,41.5-72.16,51.98-4.61,1.7-9.12,2.48-13.95,1.84-12.85-1.72-9.07-21.33-6.28-29.65,9.84-29.33,25.76-51.43,48.48-72.1.5-.45.85-1.26.16-1.74-26.62-18.31-58.39-27.52-90.74-26.56-29.5.87-58.13,9.7-82.71,25.9-.72.47-.88,1.2-.24,1.78,9.36,8.47,18.02,17.37,25.37,27.73,10.26,14.47,22.14,36.28,25.36,53.73,1.39,7.53.89,19.31-8.88,20.4-3.95.44-7.92.04-11.87-1.34-18.31-6.4-35.18-16.04-50.06-28.53-8.92-7.49-16.64-15.79-24-24.71-.34-.42-.75-.68-1.11-.65-.27.03-.63.22-.87.64-13.43,22.77-23.25,49.53-22.77,76.25,25.68,3.68,51.17,6.01,77.1,7.59Z"/>
  <path class="cls-1" d="M326.43,522.01c3.37-1.8,6.75-.92,9.01,1.81s2.54,6.59.08,9.5c-1.64,1.94-3.58,3.56-5.91,4.85-8.16,4.51-17.35,6.51-26.63,5.37-12.94-1.58-23.23-10.31-26.85-22.79-3.21-11.09-1.61-22.87,4.9-32.33,5.3-7.69,13.47-12.57,22.14-13.48,9.74-1.02,18.79,2.34,25.54,9.18,6.49,6.58,10.37,15.25,10.06,24.43-.12,3.56-2.41,6.6-6.15,6.62l-39.78.17c.54,4.85,3.45,8.86,7.75,10.93,6.1,2.93,12.98,2.59,18.9-.56l6.94-3.69ZM321.24,503.73c-.54-4.83-2.62-8.7-6.2-11.5-5.27-3.65-12.5-3.55-17.42.7-3.21,2.77-4.94,6.7-5.39,10.87l29-.07Z"/>
  <path class="cls-1" d="M233.4,522.05c3.32-1.76,6.68-1.05,9,1.66,2.36,2.76,2.69,6.54.29,9.43-1.45,1.74-3.06,3.28-5.12,4.48-8.97,5.23-19.51,7.52-29.79,5.55-9.92-1.9-18.1-7.97-22.47-17.03-5.81-12.05-4.78-26.4,2.52-37.36,10.55-15.83,32.05-18.79,46.3-6.19,7.31,6.46,11.86,15.8,11.73,25.63-.06,4.13-2.67,6.99-6.71,7l-39.2.11c.4,4.83,3.47,8.98,7.91,11.04,5.86,2.72,12.44,2.62,18.14-.4l7.4-3.92ZM227.91,503.74c-.28-5.16-2.67-9.39-6.61-12.07-5.57-3.22-12.51-2.58-17.5,1.43-2.97,2.76-4.77,6.22-5.27,10.61l29.37.02Z"/>
  <path class="cls-1" d="M510.43,496.29v39.58c0,5.07-4.65,8.39-8.97,8.37-4.57-.02-8.81-3.45-8.86-8.48l-.31-35.21c-.06-6.33-4.98-10.51-11.03-10.83-6.42-.34-12.21,3.89-12.27,10.7l-.31,34.95c-.05,5.32-4.26,8.99-9.23,8.87-4.56-.11-8.77-3.76-8.76-8.95l.03-51.14c0-5.83,5.28-9.51,10.5-8.73,3.64.55,5.95,2.61,6.91,6.4,5.56-7.48,16.45-8.21,24.48-6.46,10.25,2.23,17.27,10.74,17.83,20.93Z"/>
  <path class="cls-1" d="M411.51,543.88c-11.04-.16-20.58-5.55-26.2-14.77-7.71-12.65-7.2-28.99,1.34-41.07,5.95-8.42,15.22-13.27,25.26-13.29,10.04-.01,19.35,4.82,25.31,13.23,8.65,12.2,9.13,28.69,1.2,41.42-5.82,9.33-15.71,14.64-26.91,14.48ZM422.82,521.53c4.42-7.2,4.43-16.32.46-23.6-2.97-5.44-8.76-7.79-14.67-6.41-12.1,2.82-14.47,19.56-9.12,29.62,2.45,4.59,6.75,7.18,11.6,7.22s8.95-2.3,11.73-6.83Z"/>
  <path class="cls-1" d="M171.3,535.6c0,5.5-4.55,8.71-9.46,8.69-4.91-.02-9.27-3.39-9.29-8.66l-.14-64.78-14.51-.09c-4.54-.03-7.68-3.6-7.82-8.07-.35-4.97,3.18-9.34,8.34-9.34h46.92c5.39-.01,8.97,4.58,8.46,9.77-.36,4.14-3.26,7.57-7.53,7.61l-14.86.13-.11,64.75Z"/>
  <path class="cls-1" d="M368.03,535.59c-.02,5.45-4.61,8.84-9.28,8.69s-8.68-3.99-8.7-9.25l-.14-42.82c-1.62-.34-3.3-.09-4.95-.18-4.14-.22-6.82-3.31-7.01-7.32-.22-4.68,3.03-8.45,7.82-8.54,1.39-.03,2.78.17,4.14-.15l.12-11.71c.05-5.17,3.8-8.99,8.72-9.18s9.22,3.3,9.3,8.48l.2,12.51,7.05.19c4.24.11,6.79,3.49,6.87,7.6s-2.48,7.92-6.88,8.03l-7.08.19-.19,43.47Z"/>
  <path class="cls-1" d="M270.14,535.22c0,5.47-4.34,9.01-8.95,9.06-4.59.05-9.08-3.49-9.09-8.74l-.04-80.49c0-5.21,4.1-8.9,8.75-9.05,4.68-.15,9.29,3.43,9.3,8.82l.03,80.4Z"/>
  <path class="cls-1" d="M419.05,471.04c-1.78,1.06-3.67,1.16-5.42.37-1.17-.52-2.63-1.88-2.94-3.69l-3.91-23.07c-.98-5.8,3.73-10.7,9.2-10.93,5.84-.24,10.46,4.49,10.22,10.69,4.4-3.95,10.65-3.71,14.34.54s3.33,11.38-1.75,14.39l-19.74,11.7Z"/>
</svg>