<?xml version="1.0" encoding="UTF-8"?>
<svg id="Capa_1" data-name="Capa 1" xmlns="http://www.w3.org/2000/svg" viewBox="0 0 640.49 636.59">
  <defs>
    <style>
      .cls-1 {
        fill: #fff;
      }
    </style>
  </defs>
  <g>
    <path class="cls-1" d="M531.81,341.8l30.19.21-2.08,17.73-66.08.8,25.3,43.8-45.71.13-39.1-66.95-39.2,66.77-22.13,1.51c-13.3.77-26.97.63-38.63.08l-68.77-87.62-.39,42.64-.46,45.47-38.84-.11c-.11-18.4.31-34.15-.69-51.13-.53-9.03.01-17.19.09-26.26l.65-70.23,38.5.07,69.5,87.74.77-87.78,38.88.03.72,102.27,60.03-101.8,57.62,98.34,49.93-54.74c5.34-6.45,7.93-14.45,2.9-21.79-5.54-5.13-15.88-5.89-20.94,1.28-2.64,3.74-3.41,9.64-4.66,14.91l-18.04.21c.32-10.04,1.38-19.57,8.48-27.02,12.23-12.83,34.7-14.21,48.33-2.37,12.76,11.09,11.9,30.98,1.15,43.07l-27.34,30.74Z"/>
    <path class="cls-1" d="M220.77,331.93l.03,19.01-.52,55.49-43.5.04-.61-123.33-77.77,134.94c-.54.94-2.62,2.17-3.3,1.88-.91-.39-2.82-1.82-3.42-2.88L.24,257.2l52.9.05,42.78,74.23,42.9-74.39,50.22.43,31.06,1.14.67,73.27Z"/>
    <path class="cls-1" d="M310.86,255.41l10.96,6.51c-13.86,8.05-29.67,9.24-43.35,2.11l11.37-4.18c.3-6.3-1.89-12.55-4.63-18.34-6.37-13.43-17.48-19.32-33.32-20.09,11.06-6.43,24.13-6.56,33.98.19,6.29,4.31,9.73,11.85,14.38,19.12,11.56-19.17,35.3-25.21,54.29-14.16-19.59,1.64-43.37,4.39-43.68,28.84Z"/>
  </g>
  <path class="cls-1" d="M640.24,261.96l-22.47.39-47.85,59.59c-1.83,5.33-2.41,13.47-2.69,19.2l36.71-.04-1.81,16.29,23.32-.57,2.95-15.97,9.12-1.24,2.63-18.82-8.58.26,8.68-59.1ZM608.27,320.91h-10.49l13.26-14.09-2.78,14.09Z"/>
</svg>