<?xml version="1.0" encoding="UTF-8"?>
<svg id="Capa_2" data-name="Capa 2" xmlns="http://www.w3.org/2000/svg" viewBox="0 0 640 189.82">
  <defs>
    <style>
      .cls-1 {
        fill: #fff;
      }
    </style>
  </defs>
  <g id="Capa_1-2" data-name="Capa 1">
    <g>
      <path class="cls-1" d="M0,80.91v-23l2-3.36,25,.81c2.14.07,6.15,2.41,8.45,3.26,4.77,6.96,9.15,14,13.81,21.23l29.7,46.15,5.88,9.56,6.22-9.81,30.63-45.91,16.71-25,58.74.05c2.33,0,4.46,3.74,4.44,6.04l-.9,128.79-38.94-.04.72-96.42-23.72,35.44-28.52,43.24-11.44,17.74-29.4.09-8.45-13.9-30.14-47.48L0,80.91Z"/>
      <path class="cls-1" d="M516.79,163.21l.54,26.59-31.64-.31c-4.01-5.52-7.26-11.14-11.04-16.92l-29.24-44.7-13.56-20.74-13.6,20.97-30.85,47.88-8.57,13.77-49.73.07c-4.95-4.43-9.61-8.83-14.26-13.43l-14.18-14.04-35.77-33.92c-5.02-4.76-9.26-9.33-14.68-13.94l-.38,75.23-37.72.12.65-135.11,26.73-.19,26.54,25.35c8.68,8.29,17.1,16.06,25.82,24.31l23.66,22.39c1.63,1.54,2.82,3.08,4.78,4.65l.18-56.59c3.9,1.64,6.61,3.95,10.01,5.93l25.46,14.79.31,59.82,17.82-27.4,30.73-47.25c5.75-8.84,11.07-17.33,17.23-25.7l23.07.04,16.33,24.97,31.73,47.99,23.63,35.39Z"/>
      <path class="cls-1" d="M356.54,90.04c-7.6-3.25-12.12-6.59-18.62-10.23l-39.28-21.98c-.9-.5-2.06-2.64-1.7-3.33s1.61-1.9,2.35-2.27l15.36-7.77c-1.24-3.16-15.18-15.42-17.32-16.8-12.57-8.09-25.17-14.9-38.61-21.44-2.65-1.29-4.82-3.17-4.54-6.22l90.11,27.61.86,3.46c31.72-10.91,63.85-17.97,98.38-18.09-.58,3.09-3.56,4.49-6.89,5.28-26.78,6.35-60.75,10.97-79.48,33.45-3.86,4.64-5.72,10.98-4.6,16.96l3.99,21.37Z"/>
      <g>
        <path class="cls-1" d="M621.76,123.18l-55.59-.08-.31-13.45c1.3-.95,4.86-2.38,6.42-2.38l41.04-.09-.02-7.57h-30.02c-10.35,0-17.87-8.17-17.89-18.73l-.05-22.58,7.05-3.58,66.32-.02.61,14.46c-3.41,1.64-8.02,3.04-11.92,3.04h-36.77s.08,6.43.08,6.43c11.37,1.3,23.12-1.35,33.25,1.12,13.29,3.24,16.12,14.84,16.05,26.14l-.1,15.95c-6.11.96-11.44,1.35-18.14,1.34Z"/>
        <path class="cls-1" d="M553.24,123.16l-61.23-.03-.42-21.2c-.29-14.79,10.41-18.16,21.44-22.82l25.77-.27.04-6.6-47.17-.07c-.13-3.64-.23-9.47-.14-13.12.04-1.63,4.14-4.23,5.83-4.23l44.85-.14c10.63-.03,20.76,7.12,20.95,18.17l.44,25.28c-4.29,1.01-8.13,1.55-12.28,1.54l-36.24-.04.1,7.59,48.45.07.29,15.91s-1.45-.02-10.67-.02Z"/>
      </g>
    </g>
  </g>
</svg>