<?xml version="1.0" encoding="UTF-8"?>
<svg id="Capa_1" data-name="Capa 1" xmlns="http://www.w3.org/2000/svg" viewBox="0 0 640.49 636.59">
  <defs>
    <style>
      .cls-1 {
        fill: #fff;
      }
    </style>
  </defs>
  <path class="cls-1" d="M517.02,386.15l.19,25.06h-25.77c-1.62-.31-5.63-1.56-6.67-3.11l-51.68-77.63-53.75,80.79-49.5-.02-78.46-72.89-.46,72.82-37.39.13-.07-131.91,27.28-.15,80.35,74.95.43-55.24,35.43,20.07.38,57.22,62.3-93.65c1.02-1.54,4.24-3.38,5.63-3.36l21.16.38,70.6,106.54Z"/>
  <path class="cls-1" d="M202.14,410.76l-38.68.53-.39-95.35-61.4,92.22c-1.09,1.64-5.59,3.21-7.4,3.18l-22.82-.36L.24,303.52l.15-24.23,26.76.45c2.78.61,6.79,1.66,9.23,2.69l50.18,75.49,52.29-78.55,59.15-.03c2.21.68,3.94,2.32,4.21,4.62l-.07,126.8Z"/>
  <path class="cls-1" d="M623.47,305.46c10.36.17,16.5,10.53,16.76,19.06.28,9.1-5.5,19.92-15.91,20.64-12.89.89-25.31.37-38.52.57-8.95.14-18.83-6.09-18.93-15.87l-.31-30.11c-.1-9.46,6.85-16.53,15.72-18.28,2.45-.48,6.39-1.73,8.51-1.74l43.59-.08.28,14.29c-3.22.63-6.87,1.43-9.94,1.44l-32.91.07-.06,9.48,31.71.53ZM591.53,321.09v10.53h22.01v-10.53h-22.01Z"/>
  <path class="cls-1" d="M564.19,345.67h-71.33c-.11-8.77-.46-16.97.4-25.49.87-8.56,10.23-14.64,18.3-14.81l27.95-.57c.65-2.3.76-6.22.47-9.43l-47.2-.12.04-12.36c0-1.83,4.45-3.57,6.08-3.56l47.15.12c8.18.02,17.42,6.85,17.89,15.39.49,8.84.34,16.24.36,26.03l-47.86.28c-.89,2.61-.92,6.35-.47,10.23l48.28.11-.05,14.18Z"/>
  <path class="cls-1" d="M357.97,275.4c-9.83,12.08-1.58,25.24-1.02,37.13l-60.12-33.39c46.13-25.64,94.99-39.91,146.84-41.12.92,1.03-1.34,3.03-2.98,3.41-16.49,3.89-32.16,7.33-48.24,12.06-13.47,3.97-25.36,10.71-34.48,21.91Z"/>
  <path class="cls-1" d="M315.86,267.27c-10.96-17.12-38.42-29.06-57.81-38.16-1.32-.62-3.01-2.8-2.84-3.87l91.67,28.57-31.02,13.46Z"/>
</svg>