<?xml version="1.0" encoding="UTF-8"?>
<svg id="Capa_1" data-name="Capa 1" xmlns="http://www.w3.org/2000/svg" viewBox="0 0 640.49 636.59">
  <defs>
    <style>
      .cls-1 {
        fill: #fff;
      }
    </style>
  </defs>
  <path class="cls-1" d="M308.04,256.8l12.36,5.35c-16.22,7.81-30.55,9.77-44.43,2.34,4.94-1.32,9.07-2.54,12.97-5.1-2.73-11.6-7.08-22.03-15.65-30.06-9.01-8.44-28.16-3.48-24.6-7.35.4-.43,2.89-1.06,2.89-1.06l13.59-3.45c6.77-1.31,16.41,2.16,21.46,7.16,4.61,4.56,7.71,11,11.41,16.66,7.07-8.07,14.87-17.21,25.48-18.31,6.87-.71,24.53-1.41,27.96,4.71l-14.24,1.14s-4.09-.07-11.58,3.02c-10.19,4.21-17.53,12.8-17.61,24.96Z"/>
  <g>
    <path class="cls-1" d="M513.6,400.6l-44.62,1.21-14.77-26c-4.49-7.91-9.78-15.49-13.86-23.69-2.7-5.43-3.88-11.98-8.02-17.07l-33.68,58.12-6.45,10.61-26.37,1.4c-11.12.59-22.3.37-32.98.2l-37.63-47.41-31.4-39.9-.78,87.45-37.9-.04.09-137.77c0-2.61-.63-5.44-1.05-8.39l38.24.18,69.99,88.27c.88-2.24-.28-5.64-.28-8.43l-.11-79.95h39.3s.21,105.68.21,105.68c8.46-13.33,16.28-25.99,23.25-39.87,2.43-4.83,4.49-9.88,7.11-14.36l29.79-50.82,37.65,64.57,21.13,35.71,3.58,5.7,19.54,34.6Z"/>
    <path class="cls-1" d="M218.21,404.98l-42.11.58-.35-125.43-15.26,26.87-61.86,107.96c-1.05,1.83-3.71,3.59-5.97,4.44L13.8,282.35.24,258.07l48.41-.17,44.41,76.96,44.7-76.98,50.37.5c9.98,1.17,19.53.99,30.03,1.11l.04,145.48Z"/>
    <path class="cls-1" d="M492.21,356.25l14.75-16.31,18.89-20.4c8.02-8.66,16.33-16.21,23.19-25.95,4.84-6.87,1.76-18.13-6.63-20.98-4.25-1.44-11.72.62-14.23,3.35-3.91,4.24-5.2,9.35-5.12,16.87l-19.55.28c.93-17.06,7.67-34.76,26.62-36.91,5.84-.66,11.58-1.18,17.25-.08,17.45,3.4,27.44,20.3,22.58,37.14-2.3,7.97-6.88,14.1-12.46,20.02l-24.44,25.91,32.68.58-3.24,15.48c-25-1.42-44.41.71-70.29,1.01Z"/>
    <path class="cls-1" d="M611.33,315.68c-1.89-2.56-8.19-1.48-12.05-.72l2.41-15.78,11.31-.87c4-3.68,7.27-10.72,7.15-16.15-.15-7.05-5.24-9.52-11.24-8.98-2.21.2-6.1.56-7.59,1.36-4.5,2.43-2.77,13.94-6.6,14.07l-14,.5c-3.89-9.52-.38-18.2,6.49-24.77,5.75-5.5,10.83-7.51,18.76-8.51,12.74-1.6,27.27,1.45,32.45,14.85,4.87,12.6-.53,26.76-9.8,36.15,3.96,6.14,8.36,12.57,8.28,19.98-.07,7.41-2.47,16.27-7.37,21.9-9.58,10.99-25,12.25-38.28,9.87-13.27-2.38-20.17-14.76-21.53-27.39l18.92.06c2.85,5.35,6.24,10.38,10.03,10.95,6.01.89,12.33.02,15.23-4.52,4.19-6.55,2.73-14.83-2.58-21.99Z"/>
  </g>
</svg>