<?xml version="1.0" encoding="UTF-8"?>
<svg id="Capa_1" data-name="Capa 1" xmlns="http://www.w3.org/2000/svg" viewBox="0 0 640.49 636.59">
  <defs>
    <style>
      .cls-1 {
        fill: #fff;
      }
    </style>
  </defs>
  <path class="cls-1" d="M303.95,407.06l-.29-58.88-21.87,61.52c-.31-.38-.84-1.06-.85-1.05,0,.02-.61.6-1.13,1.09l-22.66-61.14-.18,58.16c-2.39.37-4.69.28-7.79-.13v-80.26s16.4-.02,16.4-.02l18.98,52.58,18.37-52.51,15.51.12-.02,80.55-14.48-.02Z"/>
  <path class="cls-1" d="M474.01,406.94c-2.98.34-5.79.35-8.92.07l-39.86-61.02-.12,61.15-8.26.04v-80.58s14.43-.07,14.43-.07l34.25,52.65.22-52.58,8.26.04v80.31Z"/>
  <path class="cls-1" d="M52.54,469.07c31.38-2.33,67.97-12.13,90.87-36.38,9.26-10.5,16.31-23.14,16.36-37.46l.18-50.19,13.2-17.68c.49-.65,2.64-.27,2.82-.67l.09,66.51c.02,17.82-7.6,33.62-20.7,45.43-9.9,9.02-21.31,14.94-33.92,19.86-21.96,7.63-44.81,11.64-68.89,10.58Z"/>
  <g>
    <path class="cls-1" d="M623.71,407.1l-59.12-.13,39.98-74.46-35.45-.21-.19-6.13,56.17.05-40.33,74.49,38.67.14c.74,1.88.75,3.95.28,6.25Z"/>
    <path class="cls-1" d="M544.9,368.06l-28.07.06-.02,32.8,29.87.05c.46,1.83.49,3.71.22,6.14l-45.31-.04v-80.7s45.37.06,45.37.06l.1,5.87-30.4.12-.02,29.3,28.19.14.07,6.19Z"/>
  </g>
  <path class="cls-1" d="M390.17,368.06l-28.04.05v32.77s30.16.12,30.16.12c.09,2.11.06,3.94-.15,6.12l-45.23-.04v-80.74s45.2.1,45.2.1c.17,2.02.16,3.8.02,5.91l-30.15.03v29.35s28.1.11,28.1.11l.1,6.21Z"/>
  <path class="cls-1" d="M130.65,307.65l-14.42-.02-.41-34.8c-.11-9.38-4.93-18.03-9.65-25.93-10.74-18-32.38-37.28-49.44-49.21l-28.82-20.16c-4.42-3.09-9.04-5.77-12.52-10.17,16.14,4.71,30.18,11.7,43.82,19.92,28.67,17.28,50.86,41.89,65.91,72.21l22.23-33.48,16.88.03-33.49,48.43-.09,33.2Z"/>
  <g>
    <path class="cls-1" d="M500.23,306.97c-3.19.25-5.71.27-8.84.15l-39.76-60.71-.26,60.69h-8.27s0-80.43,0-80.43l14.49-.02,34.29,52.89.11-52.91h8.22s.01,80.34.01,80.34Z"/>
    <g>
      <path class="cls-1" d="M379.75,269.99c-1.9-.38-2.67-3.2-3.09-5.09l-1.91,2.39c-.56.7-3.43.3-3.67-.59-1.07-3.88,1.64-8.84,2.1-12.65-.74-5.8-8.76-21.09-15.88-21.17-1.75-.02-4.26,1.39-5.56,3.04-12.33,15.68,2.12,37.65,13.79,49.52,4.82,4.9,9.38,9.37,13.83,14.62,1.42,1.67,2.57,5.38,1.39,7.14-1.4,2.09-5.14,1.1-6.74-.42-17.1-16.12-43.06-44.49-32.41-69.65,2.65-6.26,7.59-11.39,14.22-12.96,12.79-3.03,18.68,10.03,21.85,20.42,9.32-14.72,29.87-21.24,43.81-9.11,5.9,5.14,7.25,13.28,4.65,20.63-5.2,14.67-20.04,27.51-31.6,37.81-.42.37-1.58.72-1.94.44-.47-.37-.23-1.48.28-2.16l17.3-23.08c6.71-8.96,9.03-26.75-.4-31.29-5.99-2.88-13.67-1.79-19.57,2.11-4.59,3.03-9.23,9.01-9.16,15.72.06,5.22,6.78,15.94-1.3,14.33Z"/>
      <path class="cls-1" d="M283.3,299.43c-.66-.88-1.56-2.52-1.15-3.01l1.78-2.13c.84-1,3.93-2.73,4.73-1.5,2.32,3.51,4.27,6.65,7.83,8.61,5.6,3.08,11.41.96,14.5-4.3,3.67-6.27,3.08-13.27-2.41-18.37-4.47-4.16-9.85-7.54-15.32-10.34-8.9-4.57-12.42-13.15-11.45-22.72,1.37-13.48,12.36-22.86,25.98-20.86,8,1.17,15.04,5.84,17.99,13.81-.66,1.85-4.3,3.91-6.05,2.93-2.16-3.87-4.64-7.51-8.69-9.39-3.6-1.67-7.63-1.25-10.58,1.6-3.55,3.42-4.84,8.65-3.92,13.55,2.23,11.87,19.33,13.11,27.22,23.03s5.5,25.85-4.09,33.91c-11.09,9.32-27.92,6.41-36.38-4.82Z"/>
    </g>
  </g>
  <path class="cls-1" d="M214.05,268.27l-28.04.05v32.96s30.11.03,30.11.03c.13,2.05.12,3.98-.09,6.01h-45.25s0-80.74,0-80.74l44.71.03c.93,1.52.89,3.87.4,5.97l-30.08.08.04,29.5,28.1.03.08,6.08Z"/>
  <rect class="cls-1" x="241.75" y="226.62" width="15.23" height="80.62"/>
  <rect class="cls-1" x="205.72" y="326.52" width="15.21" height="80.61"/>
</svg>